<svg width="40" height="40" viewBox="0 0 40 40" fill="none" xmlns="http://www.w3.org/2000/svg">
    <path d="M20.0077 0C20.257 0.184615 20.3352 0.42764 20.33 0.737419C20.3133 1.65737 20.3258 2.57732 20.3237 3.49831C20.3237 3.97497 20.1516 4.20548 19.8032 4.21278C19.4476 4.21904 19.2484 3.96245 19.2463 3.48058C19.2431 2.5867 19.2233 1.69074 19.2588 0.797914C19.2692 0.528814 19.4413 0.265971 19.5394 0C19.6958 0 19.8512 0 20.0077 0Z" fill="#4570EE"/>
    <path d="M15.0982 34.0788C15.0982 33.8837 15.0867 33.6876 15.1002 33.4936C15.142 32.8928 15.1201 32.3734 14.4953 31.9844C14.0082 31.6809 13.8538 31.0874 13.8497 30.5022C13.8434 29.7346 13.8413 28.9669 13.8517 28.1992C13.8549 27.9844 13.7954 27.8498 13.6056 27.7247C10.779 25.8545 9.02566 23.247 8.49058 19.9061C7.51953 13.8357 11.4277 8.29518 17.1738 6.96741C23.4747 5.51239 29.5889 9.40705 30.9918 15.6954C31.9889 20.1659 30.077 24.9387 26.2199 27.5567C25.931 27.7528 25.8403 27.9531 25.8507 28.2827C25.8736 28.9972 25.857 29.7137 25.858 30.4292C25.859 31.3001 25.4867 31.9593 24.719 32.3703C24.524 32.4746 24.4749 32.5925 24.476 32.7948C24.4791 33.7419 24.525 34.6942 24.4478 35.636C24.2862 37.6105 23.24 38.9977 21.3907 39.6798C19.5498 40.3588 17.8778 39.9416 16.4729 38.5826C15.5195 37.6605 15.1023 36.4913 15.0919 35.1719C15.0888 34.8078 15.0919 34.4438 15.0919 34.0788C15.094 34.0788 15.0961 34.0788 15.0982 34.0788ZM19.8606 31.5338C21.1227 31.5338 22.3847 31.5411 23.6468 31.5307C24.3884 31.5244 24.7722 31.126 24.7753 30.3906C24.7785 29.5969 24.8139 28.8011 24.7639 28.0104C24.7274 27.4284 24.9537 27.1072 25.4272 26.7807C28.9777 24.3307 30.6006 20.9241 30.0489 16.6488C29.2823 10.7025 23.5227 6.72856 17.6452 7.95933C11.4559 9.25476 7.846 15.8373 10.0916 21.746C10.9334 23.9593 12.3633 25.7012 14.3868 26.934C14.7946 27.1823 14.9605 27.467 14.9386 27.9416C14.9041 28.7207 14.9281 29.503 14.9292 30.2832C14.9292 31.1666 15.2974 31.5317 16.1912 31.5327C17.4147 31.5348 18.6371 31.5327 19.8606 31.5327V31.5338ZM16.2674 35.8519C16.33 37.3361 17.9216 38.8151 19.5049 38.8861C21.4658 38.9737 23.0825 37.7022 23.3381 35.8519H16.2674ZM16.1965 34.7192H23.3714V32.6509H16.1965V34.7192Z" fill="#4570EE"/>
    <path d="M7.30779 5.05867C7.50806 5.16715 7.66451 5.21408 7.76777 5.31421C8.49163 6.02139 9.20819 6.7369 9.91849 7.45763C10.1699 7.71317 10.1803 8.04277 9.97481 8.25868C9.75056 8.4944 9.43139 8.4871 9.15082 8.21174C8.43843 7.51083 7.72396 6.812 7.04078 6.08292C6.9104 5.9442 6.85199 5.65737 6.89058 5.46545C6.92188 5.31317 7.15134 5.20052 7.30675 5.05763L7.30779 5.05867Z" fill="#4570EE"/>
    <path d="M29.9341 8.49544C29.8038 8.39218 29.591 8.30665 29.5357 8.16167C29.4731 7.99688 29.4752 7.70691 29.5806 7.59531C30.3284 6.80365 31.1013 6.03599 31.8846 5.27875C32.0984 5.07223 32.3738 5.10561 32.5845 5.31839C32.7941 5.53012 32.8254 5.80965 32.622 6.02034C31.8658 6.8047 31.0898 7.56924 30.3128 8.33273C30.2377 8.40679 30.1062 8.42347 29.9331 8.49544H29.9341Z" fill="#4570EE"/>
    <path d="M35.772 18.6576C35.2786 18.6576 34.7853 18.6608 34.2929 18.6566C33.8872 18.6524 33.6723 18.4636 33.6723 18.1247C33.6723 17.8086 33.8903 17.5865 34.2554 17.5833C35.2671 17.5739 36.2799 17.5739 37.2916 17.5833C37.6473 17.5865 37.882 17.8211 37.882 18.1247C37.882 18.448 37.6442 18.6535 37.252 18.6566C36.7587 18.6608 36.2663 18.6576 35.773 18.6576H35.772Z" fill="#4570EE"/>
    <path d="M3.76777 18.6253C3.28797 18.6253 2.80818 18.6326 2.32839 18.6232C1.90075 18.6149 1.6619 18.4094 1.66607 18.0756C1.67024 17.7387 1.89971 17.5552 2.34195 17.5541C3.30153 17.5499 4.26112 17.5499 5.2207 17.5541C5.6692 17.5562 5.87885 17.7356 5.87572 18.0902C5.87155 18.4313 5.64834 18.617 5.20714 18.6243C4.72735 18.6316 4.24756 18.6263 3.76777 18.6263V18.6253Z" fill="#4570EE"/>
    <path d="M28.719 17.551C28.719 17.7544 28.7305 17.9244 28.7169 18.0913C28.6909 18.4209 28.5125 18.6441 28.1766 18.6399C27.846 18.6357 27.6593 18.4292 27.6478 18.0871C27.6124 17.067 27.4663 16.0668 27.0439 15.1301C25.7161 12.1825 23.4507 10.546 20.2131 10.2863C20.0703 10.2748 19.9263 10.2769 19.7855 10.2602C19.4528 10.2216 19.2442 10.0287 19.264 9.69596C19.2838 9.36741 19.5028 9.19531 19.845 9.19427C21.0841 9.1901 22.2783 9.42373 23.3965 9.95151C26.6215 11.4754 28.354 14.0506 28.7201 17.5489L28.719 17.551Z" fill="#4570EE"/>
</svg>
