<svg width="40" height="41" viewBox="0 0 40 41" fill="none" xmlns="http://www.w3.org/2000/svg">
    <path d="M12.8176 40.833C12.4096 40.6733 12.2781 40.3686 12.2865 39.9428C12.3052 38.941 12.3021 37.9381 12.2833 36.9363C12.2802 36.7474 12.2051 36.5283 12.0903 36.377C11.1647 35.1539 10.1848 33.9695 9.29567 32.7203C8.57145 31.7028 8.19891 30.5184 7.98707 29.289C7.97142 29.1993 7.96411 29.1085 7.95994 29.0177C7.94324 28.6566 8.14777 28.3895 8.46918 28.3477C8.77494 28.3081 9.05774 28.5335 9.12975 28.8831C9.17671 29.1116 9.19966 29.3454 9.2508 29.5739C9.52629 30.798 10.0564 31.9011 10.837 32.8831C11.6301 33.8808 12.4346 34.8711 13.2069 35.8854C13.3665 36.0952 13.4761 36.3968 13.4834 36.6598C13.5137 37.7524 13.4855 38.8461 13.5011 39.9387C13.5074 40.3613 13.3811 40.6702 12.9742 40.833H12.8176Z" fill="#4570EE"/>
    <path d="M27.1173 40.833C26.8345 40.618 26.7583 40.3279 26.7614 39.9825C26.7729 38.6812 26.7614 37.3798 26.7708 36.0775C26.7718 35.874 26.7958 35.6548 26.8752 35.4722C27.3354 34.4119 27.8102 33.359 28.2892 32.307C28.477 31.8959 28.8516 31.7613 29.173 31.9815C29.4809 32.1923 29.5122 32.4771 29.363 32.8048C28.9393 33.7388 28.5146 34.6728 28.1065 35.6141C28.022 35.8093 27.9709 36.0357 27.9688 36.2476C27.9563 37.4967 27.9542 38.7469 27.9688 39.9961C27.973 40.3498 27.8759 40.6274 27.5869 40.832H27.1183L27.1173 40.833Z" fill="#4570EE"/>
    <path d="M12.1143 14.9807C13.0086 14.2345 13.7902 13.4811 14.672 12.8737C15.5392 12.2768 15.9107 11.5661 15.7437 10.5288C15.6487 9.93815 15.8564 9.40697 16.23 8.93215C16.4867 8.60551 16.6965 8.24235 16.9427 7.90736C17.1661 7.60264 17.4822 7.54003 17.7619 7.71848C18.0489 7.90215 18.1167 8.24548 17.9101 8.57107C17.7014 8.90084 17.501 9.24209 17.2485 9.53533C16.9052 9.93398 16.9052 10.3754 16.9699 10.9149C17.6409 10.3556 18.2764 9.82753 18.9098 9.2974C19.729 8.61282 20.5471 7.92719 21.3663 7.24261C22.7866 6.05399 24.4959 6.16565 25.746 7.52751C25.7805 7.56403 25.8181 7.59742 25.8024 7.58177C26.4348 7.40958 27.0108 7.17165 27.6056 7.10486C29.2555 6.92119 30.5369 8.30809 30.3783 9.9872C30.1759 12.1369 30.0058 14.2898 29.8513 16.4438C29.8284 16.7631 29.9171 17.1137 30.0402 17.4143C30.5808 18.7344 31.2799 20.0034 31.6859 21.3611C32.4623 23.9606 32.167 26.5309 31.066 29.0083C30.8709 29.4477 30.6768 29.887 30.4733 30.3232C30.2844 30.7281 29.9578 30.8732 29.628 30.7114C29.3118 30.5559 29.2346 30.2418 29.3932 29.8369C29.8106 28.7746 30.3282 27.7383 30.611 26.6405C31.2121 24.306 30.9293 22.0237 29.8889 19.8427C29.6593 19.3616 29.4673 18.8575 29.1876 18.4078C28.6158 17.4863 28.6053 16.5085 28.7097 15.4743C28.9059 13.5458 29.0541 11.6131 29.1981 9.68039C29.2638 8.79127 28.4666 8.12756 27.5889 8.29662C27.4742 8.31853 27.3583 8.33732 27.2467 8.36758C26.695 8.51924 26.4191 8.87371 26.4191 9.43097C26.4202 10.3775 26.0695 11.1863 25.3172 11.7373C24.6305 12.2392 24.2945 12.8476 24.162 13.6856C23.8948 15.3783 23.5317 17.0553 23.1904 18.7354C23.1466 18.9525 23.2019 19.0631 23.3595 19.1925C23.9021 19.6392 24.4124 20.1286 24.9728 20.5502C26.8021 21.9256 26.6863 24.4469 24.8392 25.6616C25.0041 25.8129 25.1648 25.9559 25.3213 26.1041C26.5245 27.2395 26.6226 29.0501 25.5488 30.2888C24.5001 31.4983 22.6707 31.66 21.4028 30.63C20.544 29.9329 19.7123 29.2035 18.7595 28.3968C18.6291 28.57 18.5164 28.7631 18.362 28.9144C18.0917 29.1774 17.7713 29.1763 17.5271 28.9447C17.2788 28.7088 17.2767 28.3624 17.5407 28.0775C17.7797 27.8197 18.0322 27.5745 18.2847 27.3292C18.6437 26.9796 18.9171 26.9713 19.3064 27.301C20.2299 28.0837 21.1461 28.8758 22.0728 29.6543C23.1414 30.5528 24.6764 30.1093 25.0375 28.7892C25.2326 28.0775 25.0531 27.4346 24.4907 26.9504C22.9222 25.599 21.3454 24.258 19.7603 22.9264C19.1237 22.3911 18.4204 22.413 17.7797 22.964C16.7726 23.8301 15.774 24.7046 14.7732 25.5781C14.5426 25.7795 14.2932 25.8369 14.0208 25.6856C13.7725 25.5468 13.6942 25.312 13.7631 25.0511C13.7975 24.9228 13.8872 24.7913 13.9885 24.7026C15.0445 23.7738 16.0912 22.8346 17.1734 21.9361C18.148 21.1273 19.514 21.1732 20.5116 22.0102C21.5291 22.8628 22.5455 23.7185 23.5431 24.5951C23.7769 24.8007 23.9522 24.7881 24.1912 24.6514C25.2483 24.0472 25.4528 22.5664 24.5314 21.7566C22.9473 20.3644 21.3319 19.0078 19.7154 17.6533C19.106 17.143 18.3943 17.193 17.765 17.7367C16.7799 18.5883 15.8032 19.4492 14.8129 20.2945C14.6835 20.4051 14.4873 20.5283 14.3412 20.5085C14.1502 20.4824 13.8987 20.3582 13.8194 20.2027C13.7401 20.0441 13.8121 19.7874 13.8716 19.5912C13.905 19.4826 14.0469 19.4054 14.145 19.3198C15.0978 18.4902 16.0495 17.6606 17.0053 16.8351C17.1431 16.7161 17.2808 16.5742 17.4447 16.5147C18.4559 16.1474 19.1592 15.3584 19.9565 14.7041C21.4853 13.4487 22.9953 12.1693 24.5105 10.8961C25.0938 10.4057 25.3693 9.79414 25.1888 9.02711C25.0177 8.29975 24.5543 7.84266 23.8353 7.66839C23.1925 7.51185 22.6384 7.71535 22.1385 8.13695C20.496 9.52177 18.8462 10.8972 17.1994 12.2757C14.8734 14.222 12.5578 16.1829 10.2161 18.1093C8.97008 19.1341 8.39092 20.3853 8.5725 22.0102C8.72172 23.3407 8.79164 24.6806 8.89599 26.0175C8.90747 26.1604 8.91373 26.3044 8.90852 26.4464C8.89495 26.7855 8.6685 27.0141 8.34813 27.0245C8.02568 27.0349 7.77627 26.8283 7.74601 26.4892C7.66148 25.5687 7.58635 24.6483 7.51539 23.7279C7.45486 22.9368 7.36616 22.1448 7.36094 21.3527C7.35155 19.7936 7.97559 18.5017 9.14331 17.4769C9.63273 17.048 10.1315 16.6285 10.6439 16.2267C10.8589 16.0576 10.9445 15.8823 10.9434 15.6058C10.933 13.5353 10.9392 11.4649 10.9403 9.39445C10.9403 8.5909 11.1626 7.84788 11.6071 7.1873C12.755 5.48211 13.9039 3.77692 15.0894 2.09782C16.0213 0.772484 17.8089 0.470893 19.1488 1.35584C20.4866 2.2387 20.8988 3.99816 20.0786 5.38193C19.8667 5.73987 19.6257 6.08112 19.3794 6.4161C19.1582 6.71874 18.8315 6.78344 18.5613 6.60812C18.267 6.41715 18.2002 6.08425 18.4089 5.75553C18.603 5.44767 18.8253 5.15756 19.0173 4.84866C19.561 3.97311 19.3324 2.89093 18.4955 2.34097C17.6743 1.80144 16.59 1.99972 16.0088 2.83562C14.865 4.48028 13.7213 6.12704 12.6287 7.80614C12.3564 8.22461 12.1518 8.76622 12.1372 9.25879C12.0809 11.1309 12.1143 13.0073 12.1143 14.9828V14.9807ZM19.9085 16.2924C20.6369 16.8925 21.3548 17.4832 22.1062 18.103C22.3879 16.6608 22.6624 15.2583 22.9358 13.8557C22.9107 13.8442 22.8847 13.8327 22.8596 13.8202C21.8662 14.6519 20.8738 15.4837 19.9074 16.2924H19.9085Z" fill="#4570EE"/>
    <path d="M25.1011 2.63212C25.1011 2.25644 25.0928 1.87971 25.1032 1.50403C25.1147 1.08347 25.3443 0.834055 25.7001 0.833011C26.057 0.831968 26.2866 1.07199 26.2939 1.50298C26.3054 2.26792 26.3054 3.03285 26.2939 3.79779C26.2876 4.21209 26.0372 4.48133 25.7012 4.48133C25.3652 4.48133 25.1137 4.20374 25.1032 3.79883C25.0928 3.40958 25.1011 3.02033 25.1011 2.63212Z" fill="#4570EE"/>
    <path d="M33.2877 5.29114C33.222 5.37358 33.1239 5.58334 32.959 5.69187C32.2995 6.12704 31.6233 6.5382 30.945 6.94415C30.6121 7.14347 30.275 7.06207 30.0976 6.77405C29.915 6.47872 29.9953 6.15626 30.3335 5.94024C31.0003 5.5155 31.6713 5.09599 32.3517 4.69109C32.7899 4.43019 33.2783 4.68482 33.2888 5.28905L33.2877 5.29114Z" fill="#4570EE"/>
    <path d="M30.274 2.44219C30.2448 2.51942 30.2103 2.65926 30.1425 2.78135C29.7877 3.42837 29.4287 4.07434 29.0635 4.71613C28.8349 5.11791 28.5219 5.23374 28.2005 5.05216C27.8738 4.86849 27.8112 4.5502 28.0335 4.1453C28.4008 3.47533 28.7713 2.80744 29.148 2.14269C29.2941 1.88493 29.5101 1.73152 29.8232 1.81501C30.1049 1.89119 30.2552 2.08529 30.2729 2.44219H30.274Z" fill="#4570EE"/>
</svg>
