<svg width="81" height="81" viewBox="0 0 81 81" fill="none" xmlns="http://www.w3.org/2000/svg">
    <path d="M23.8913 80.5002C23.2944 80.1455 23.0975 79.6314 23.1038 78.9361C23.1304 75.5314 23.1319 72.1267 23.1038 68.722C23.0975 67.8689 23.4382 67.4595 24.2241 67.1064C26.9304 65.8908 29.1132 63.9798 30.9038 61.633C31.56 60.772 32.1085 59.8298 32.771 58.8283C30.21 57.947 28.5491 56.3345 27.9725 53.7658C27.5725 51.9783 27.9382 50.3017 28.946 48.7861C31.2163 45.3736 34.985 45.0486 39.1241 47.8861C41.0522 46.3486 42.5085 43.2408 42.6616 40.2939H16.535C16.3585 41.5501 16.1319 42.8205 16.01 44.1002C15.5163 49.283 15.7835 54.3876 17.9647 59.2095C18.621 60.6611 19.5788 61.9783 20.4288 63.3392C20.946 64.1689 20.646 65.058 19.7304 65.2752C19.1147 65.4205 18.7616 65.0455 18.4319 64.6236C16.6179 62.3017 15.3772 59.6892 14.585 56.8642C13.3382 52.4252 13.1772 47.9064 13.7163 43.3533C13.8741 42.0158 14.1069 40.6861 14.3663 39.3642C14.6304 38.0236 14.7897 37.9267 16.1897 37.8767C16.3147 37.872 16.4382 37.8486 16.6741 37.8205C16.2257 36.5017 15.8319 35.2205 15.3538 33.972C14.9975 33.0408 14.9382 32.147 15.1554 31.1658C15.9147 27.7501 16.6054 24.3205 17.335 20.897C17.6054 19.6298 18.4991 19.3017 19.4897 20.1267C22.3444 22.5048 25.1882 24.8955 28.0132 27.3095C28.3272 27.5783 28.5694 27.997 28.7085 28.3939C29.7241 31.3048 30.721 34.2236 31.685 37.1517C31.871 37.7173 32.1382 37.9126 32.7335 37.8923C34.0757 37.8455 35.421 37.8783 36.8335 37.8783C36.8335 35.4986 36.8288 33.2173 36.835 30.9361C36.8366 30.1095 37.1757 29.7048 37.8679 29.6501C38.6897 29.5861 39.1585 30.0251 39.1632 30.9142C39.1741 32.9158 39.1663 34.9173 39.1663 36.9173C39.1663 37.2001 39.1663 37.4845 39.1663 37.822H41.1897C41.1897 36.4064 41.1897 35.0345 41.1897 33.6642C41.1897 32.8064 41.1866 31.9486 41.1897 31.0908C41.196 30.0564 41.5507 29.6314 42.3804 29.6455C43.1647 29.6595 43.5257 30.0986 43.5272 31.0705C43.5319 33.0205 43.5272 34.9689 43.5272 36.9189C43.5272 37.2017 43.5272 37.4861 43.5272 37.8751C44.6085 37.8751 45.6429 37.9158 46.6679 37.8439C46.8929 37.8283 47.1569 37.4439 47.2897 37.1751C49.8116 32.0564 52.3163 26.9314 54.821 21.8048C55.6022 20.2048 56.8554 19.3298 58.6554 19.397C59.1819 19.4173 59.7319 19.5908 60.2163 19.8158C61.91 20.6001 63.5882 21.4205 65.2569 22.258C67.3866 23.3251 68.1257 25.4845 67.085 27.6501C65.5788 30.783 64.0382 33.897 62.5116 37.0205C62.3991 37.2517 62.2897 37.483 62.1366 37.8017C63.3882 37.9345 63.4804 38.758 63.5132 39.7533C63.6522 44.072 64.9397 48.0611 67.1553 51.758C67.8038 52.8392 68.0757 53.9501 67.6022 55.1705C67.171 56.283 66.4038 57.1111 65.246 57.3548C64.5179 57.508 64.3663 57.8455 64.2929 58.4752C63.671 63.8127 61.1116 68.0142 56.7304 71.0845C53.685 73.2189 50.2554 74.1923 46.5413 74.1705C45.6632 74.1658 44.785 74.1705 43.8319 74.1705C43.8319 75.7877 43.8054 77.3158 43.8429 78.8423C43.86 79.5533 43.671 80.1095 43.0663 80.4986H23.885L23.8913 80.5002ZM45.1319 40.2767C45.0741 40.6033 45.021 40.8814 44.9757 41.1611C44.9554 41.2892 44.9538 41.4205 44.9335 41.5486C44.385 44.9189 42.9335 47.8064 40.31 50.0408C39.0944 51.0767 38.7538 51.0205 37.6616 49.8783C36.6335 48.8033 35.41 48.0705 33.8679 48.2845C31.6507 48.5923 30.1382 50.3955 30.2038 52.522C30.2725 54.7173 31.8538 56.3673 34.1304 56.6173C35.5663 56.7751 35.921 57.383 35.346 58.7033C33.4085 63.1423 30.296 66.5173 26.0679 68.858C25.5897 69.122 25.4241 69.4048 25.4382 69.9377C25.4757 71.3142 25.4507 72.6908 25.4507 74.0673C25.4507 75.4095 25.4507 76.7533 25.4507 78.1252H41.4804C41.4804 76.6126 41.4804 75.1392 41.4804 73.6658C41.4804 72.0892 41.771 71.8267 43.3288 71.7908C45.4022 71.7423 47.5194 71.8923 49.5397 71.5252C56.7975 70.208 61.821 64.2158 62.0803 56.8314C62.1272 55.497 62.435 55.1923 63.7569 55.172C65.4085 55.147 65.9038 54.2783 65.0632 52.8533C63.7116 50.5626 62.6257 48.1517 62.0022 45.5673C61.585 43.8408 61.3538 42.0689 61.0319 40.2751H45.1335L45.1319 40.2767ZM64.1257 28.3345C64.4179 27.7439 64.6804 27.2408 64.9194 26.7283C65.4522 25.5892 65.2054 24.872 64.0741 24.3111C62.6116 23.5845 61.1397 22.8736 59.671 22.1595C58.1616 21.4251 57.546 21.6298 56.8179 23.1158C54.535 27.772 52.2554 32.4298 49.9772 37.0892C49.8679 37.3126 49.785 37.5501 49.6507 37.8798C52.8819 37.8798 56.0163 37.8845 59.1522 37.8658C59.31 37.8658 59.5225 37.6955 59.61 37.5455C59.8522 37.1298 60.0429 36.6845 60.2741 36.2095C59.1975 35.6814 58.1975 35.197 57.2038 34.6986C56.3554 34.2736 56.1225 33.722 56.4788 33.0236C56.8304 32.3345 57.3991 32.1955 58.2554 32.6033C59.2569 33.0798 60.2522 33.5658 61.3163 34.0798C61.9147 32.858 62.4897 31.6861 63.0835 30.4751C62.4116 30.1408 61.8054 29.8517 61.2116 29.5408C60.4475 29.1408 60.235 28.6283 60.5366 27.9673C60.8507 27.2783 61.4507 27.0736 62.2147 27.4205C62.8257 27.697 63.4257 28.0001 64.1225 28.3361L64.1257 28.3345ZM25.6882 28.4173C24.2132 27.1767 22.8116 25.9861 21.3897 24.8205C21.2397 24.6986 20.9507 24.6564 20.7522 24.6986C18.9163 25.0939 18.8163 25.2033 18.446 27.022C18.1538 28.4548 17.8663 29.8892 17.5663 31.3673C19.0444 31.4751 20.4132 31.5892 21.785 31.6642C22.0116 31.6767 22.3038 31.5751 22.471 31.4236C23.5288 30.4658 24.56 29.4783 25.6882 28.4173ZM26.9444 30.4908C25.9741 31.3939 25.0897 32.1892 24.246 33.0267C24.1085 33.1626 24.06 33.5048 24.121 33.7064C24.4975 34.9423 24.9116 36.1689 25.3304 37.3908C25.3913 37.5673 25.5475 37.8439 25.6647 37.847C26.8897 37.8814 28.1163 37.8673 29.4507 37.8673C28.5929 35.3439 27.7882 32.9751 26.9444 30.4908ZM17.8132 33.7814C18.2632 35.1173 18.6725 36.3611 19.1116 37.5939C19.1569 37.7205 19.3757 37.8626 19.5179 37.8658C20.6475 37.8876 21.7772 37.8783 22.996 37.8783C22.5866 36.6283 22.2304 35.4986 21.8382 34.3798C21.785 34.2283 21.5679 34.0455 21.4132 34.0314C20.2538 33.9283 19.0913 33.8642 17.8147 33.7814H17.8132Z"
          fill="#4570EE"/>
    <path d="M44.5897 10.5314C44.0194 8.0564 42.8054 6.09546 41.1897 4.36265C40.6772 3.81265 40.0975 3.32671 39.5538 2.8064C38.9444 2.22358 38.8866 1.6689 39.3632 1.09702C39.8241 0.547021 40.4632 0.484521 41.0757 1.00796C44.9288 4.29858 47.3288 8.31421 47.2679 13.5423C47.2522 14.8408 47.2288 16.1408 47.2741 17.4392C47.2835 17.7298 47.496 18.1064 47.735 18.2783C48.7788 19.0361 49.3522 20.0142 49.3475 21.3095C49.3382 23.7001 49.3554 26.0908 49.2741 28.4798C49.2616 28.872 48.8897 29.383 48.5366 29.6017C48.0679 29.8923 47.5288 29.697 47.1632 29.2251C46.4335 28.2845 45.7069 27.3408 44.9413 26.3501C43.5288 27.558 41.9335 28.2345 40.1007 28.2376C38.2913 28.2408 36.7038 27.608 35.2741 26.3673C34.5788 27.2548 33.8944 28.1251 33.2147 28.9986C32.8147 29.5126 32.3819 29.958 31.6475 29.7033C30.9179 29.4501 30.835 28.847 30.8429 28.1861C30.8694 25.9001 30.8866 23.6126 30.9007 21.3267C30.9085 20.022 31.4866 19.0142 32.5679 18.3408C32.9975 18.072 33.0741 17.7798 33.0819 17.3345C33.1179 15.2845 33.1022 13.2298 33.2647 11.1892C33.4257 9.16577 34.2616 7.33765 35.3132 5.61733C35.7335 4.9314 36.3444 4.76421 36.9616 5.12515C37.5725 5.4814 37.7022 6.08921 37.3569 6.79702C36.7835 7.97515 36.2304 9.16265 35.5804 10.5298C37.2975 10.5298 38.7413 10.5298 40.185 10.5298C41.6288 10.5298 43.035 10.5298 44.5866 10.5298L44.5897 10.5314ZM44.86 12.9814H35.4225C35.4225 14.4267 35.4413 15.8001 35.4132 17.172C35.4038 17.647 35.5132 17.9033 36.0022 18.0876C37.5725 18.6783 38.8694 20.8408 37.6038 22.8705C37.2897 23.3736 36.9944 23.8892 36.696 24.3892C38.571 26.4017 41.9975 26.3486 43.5007 24.3001C43.3007 23.972 43.0929 23.6455 42.8975 23.3111C41.5194 20.9595 42.0397 19.2142 44.4741 17.947C44.6429 17.8595 44.8413 17.622 44.8444 17.4517C44.8741 15.9783 44.8616 14.5033 44.8616 12.983L44.86 12.9814ZM33.2554 24.8564C33.3163 24.8736 33.3772 24.8892 33.4382 24.9064C34.1116 23.897 34.785 22.8892 35.4554 21.8798C35.7272 21.4705 35.9569 20.9783 35.5085 20.6283C35.1616 20.358 34.6007 20.1111 34.221 20.2048C33.8429 20.297 33.3335 20.8048 33.2991 21.1705C33.1835 22.3892 33.2554 23.6251 33.2554 24.8548V24.8564ZM46.7819 24.9126C46.8475 24.8892 46.9147 24.8673 46.9804 24.8439C46.9804 23.6095 47.0429 22.3689 46.9413 21.1423C46.9116 20.7892 46.4694 20.3486 46.1069 20.1767C45.621 19.9486 45.0944 20.1314 44.7257 20.5939C44.3991 21.0048 44.4741 21.3923 44.7444 21.8001C45.4304 22.833 46.1038 23.8736 46.7819 24.9111V24.9126Z"
          fill="#4570EE"/>
    <path d="M21.546 11.1548C20.6194 11.0314 19.3288 11.458 19.3225 9.97515C19.3147 8.4564 20.6366 8.8689 21.5616 8.73296C21.7225 7.79702 21.3054 6.4189 22.8725 6.47358C24.3022 6.52358 23.9225 7.80015 24.0538 8.74077C24.9585 8.86421 26.2882 8.46108 26.3038 9.94233C26.3194 11.4548 24.9757 11.0236 24.0725 11.1595C23.8804 12.097 24.3475 13.4767 22.7491 13.4283C21.2632 13.3845 21.7507 12.0783 21.546 11.1533V11.1548Z"
          fill="#4570EE"/>
    <path d="M51.96 2.97358C52.096 2.03296 51.721 0.711084 53.2069 0.712646C54.6897 0.714209 54.3085 2.04233 54.4538 2.9689C55.3882 3.0939 56.6991 2.72202 56.6929 4.22046C56.6866 5.67983 55.3944 5.28765 54.4772 5.42671C54.2569 6.33608 54.7522 7.72827 53.0819 7.68452C52.2694 7.66265 52.0897 7.28452 51.9632 5.47515C51.7975 5.44546 51.6116 5.39077 51.4225 5.38452C50.1757 5.33608 49.6866 5.01108 49.6819 4.21265C49.6772 3.38296 50.185 3.0439 51.4819 3.01108C51.6319 3.00796 51.7819 2.98765 51.96 2.97358Z"
          fill="#4570EE"/>
    <path d="M62.5444 14.1376C62.3147 15.0189 62.871 16.4923 61.1803 16.3845C59.7678 16.2939 60.2038 15.0548 60.0444 14.1205C59.1397 13.9814 57.7038 14.4283 57.8038 12.8033C57.8882 11.4361 59.1272 11.8095 60.0366 11.7064C60.2132 10.7923 59.7694 9.41108 61.3225 9.43296C62.7866 9.45327 62.3819 10.7408 62.51 11.672C63.4179 11.8751 64.8616 11.3658 64.7632 13.0283C64.6788 14.4705 63.41 13.9533 62.5413 14.1392L62.5444 14.1376Z"
          fill="#4570EE"/>
    <path d="M53.0257 43.8283C55.3647 43.833 57.2897 45.7127 57.2788 47.983C57.2757 48.7314 56.8772 49.1939 56.1975 49.2392C55.5319 49.283 55.0413 48.8517 54.9397 48.1361C54.7616 46.8814 54.0944 46.1955 53.0382 46.183C51.9772 46.1689 51.3116 46.8158 51.0788 48.0861C50.9241 48.9314 50.4397 49.3345 49.721 49.2205C49.0007 49.1064 48.6335 48.5564 48.7241 47.7236C48.9679 45.4767 50.7929 43.8251 53.0257 43.8298V43.8283Z"
          fill="#4570EE"/>
    <path d="M34.0304 53.5205C33.3772 53.5033 32.9413 53.0423 32.9413 52.3658C32.9413 51.6705 33.435 51.1736 34.1054 51.1939C34.7366 51.2126 35.2116 51.7142 35.2116 52.3611C35.2116 53.0455 34.7116 53.5376 34.0288 53.5205H34.0304Z"
          fill="#4570EE"/>
</svg>
