<svg width="41" height="40" viewBox="0 0 41 40" fill="none" xmlns="http://www.w3.org/2000/svg">
    <path d="M14.4426 39.999C14.0034 39.8926 13.5526 39.8196 13.1269 39.6746C11.0495 38.9684 9.57107 37.6626 9.03268 35.4607C8.93774 35.0737 8.91896 34.668 8.86157 34.2456C7.82132 34.0286 6.83427 33.6385 6.0027 32.9428C5.60725 32.6111 5.25563 32.221 4.91862 31.8278C4.64838 31.5128 4.69221 31.1436 4.96766 30.9329C5.25772 30.7107 5.58013 30.765 5.84515 31.1102C6.66733 32.1814 7.76497 32.7884 8.99825 33.0513C9.36135 32.4964 9.6775 31.9644 10.0469 31.4732C10.1595 31.324 10.4204 31.2051 10.6103 31.2103C11.0464 31.2208 11.3114 31.784 11.0193 32.1094C10.1397 33.0888 9.89765 34.208 10.2451 35.444C10.6124 36.7489 11.5013 37.6334 12.6918 38.23C15.076 39.4242 18.1529 38.7609 19.6293 36.7374C19.8734 36.4036 20.1207 36.0709 20.3357 35.7183C20.4077 35.5994 20.3993 35.4211 20.3993 35.2698C20.4024 27.0319 20.4014 18.794 20.4024 10.5561C20.4024 10.4132 20.3931 10.2682 20.4139 10.1274C20.463 9.78741 20.6654 9.56837 21.0097 9.5715C21.353 9.57463 21.5679 9.79575 21.594 10.1368C21.6222 10.4988 21.6065 10.8649 21.6076 11.2289C21.6086 11.6951 21.6076 12.1614 21.6076 12.6704C22.6092 12.7277 23.5816 12.7934 24.505 12.3981C25.3763 12.0258 25.6674 11.256 25.7571 10.3913C25.7675 10.287 25.5985 10.1306 25.4775 10.0523C24.817 9.62157 24.4977 8.83929 24.696 8.08413C24.8827 7.37174 25.5463 6.83562 26.2861 6.80015C27.101 6.76052 27.776 7.19651 28.0536 7.94228C28.3509 8.74229 28.0452 9.64034 27.2856 10.0576C27.03 10.1984 26.9539 10.3559 26.9288 10.6291C26.7567 12.4409 25.5035 13.6738 23.6745 13.8292C23.0046 13.8865 22.3306 13.898 21.6326 13.9324V17.4151C22.2701 17.4151 22.9045 17.4339 23.5368 17.412C25.0559 17.3599 26.5866 17.3651 28.0651 16.9572C28.6066 16.8081 29.145 16.5744 29.6239 16.2793C30.3981 15.8026 30.7163 15.0172 30.8039 14.141C30.8133 14.044 30.662 13.9011 30.5525 13.8292C29.9578 13.4391 29.6447 12.8946 29.6907 12.1885C29.7345 11.5147 30.0882 11.013 30.6996 10.7188C31.5479 10.31 32.5725 10.6583 33.0107 11.4896C33.4406 12.3032 33.1641 13.3358 32.3596 13.8041C32.1238 13.9408 32.0184 14.0826 31.9809 14.358C31.6939 16.4993 30.3271 17.6217 28.3426 18.1223C26.7807 18.5166 25.1811 18.5729 23.5806 18.5979C22.9452 18.6073 22.3087 18.6 21.6409 18.6V22.2767C22.1835 22.2767 22.7135 22.2736 23.2436 22.2767C24.9485 22.2892 26.6513 22.3393 28.3186 22.7503C28.6702 22.8368 29.0187 22.9484 29.3526 23.0882C30.8843 23.7307 31.7722 24.8812 31.9861 26.5302C32.0195 26.7879 32.1019 26.9276 32.3388 27.058C33.1015 27.4815 33.4103 28.4233 33.09 29.2202C32.7749 30.0046 31.9151 30.4666 31.0909 30.2956C30.2551 30.1214 29.6322 29.3266 29.6886 28.4776C29.7303 27.8518 30.0224 27.3574 30.5723 27.0497C30.7726 26.9381 30.8373 26.8431 30.8019 26.6022C30.6255 25.3725 29.9379 24.5787 28.7986 24.1365C27.704 23.7119 26.5501 23.6035 25.3971 23.5346C24.2546 23.4658 23.1079 23.47 21.9633 23.4439C21.8621 23.4418 21.7609 23.4439 21.6347 23.4439V27.1175C22.1699 27.1175 22.6875 27.107 23.2039 27.1195C25.3919 27.1686 26.6784 28.3441 26.958 30.5105C26.9768 30.6596 27.1479 30.8265 27.2909 30.9172C27.8866 31.2938 28.256 31.9937 28.1621 32.6309C28.0494 33.3986 27.5538 33.9629 26.8328 34.1454C25.9929 34.3582 25.1185 33.9274 24.7774 33.1326C24.4445 32.3566 24.7148 31.4169 25.4472 30.9777C25.7331 30.8067 25.804 30.6481 25.7331 30.33C25.4524 29.0638 24.8786 28.5026 23.5722 28.3524C22.9441 28.2794 22.3056 28.2867 21.6315 28.2554C21.6222 28.4494 21.6096 28.5871 21.6096 28.7237C21.6086 30.9099 21.6107 33.0961 21.6055 35.2823C21.6055 35.5264 21.619 35.7371 21.8402 35.8998C21.9383 35.9718 21.9946 36.1063 22.0552 36.2211C23.1027 38.1924 25.4587 38.9987 27.3159 38.7922C28.9165 38.6138 30.2593 37.964 31.2067 36.6237C31.7503 35.8539 31.9871 34.9924 31.8838 34.0443C31.8129 33.3955 31.9767 33.2495 32.6278 33.117C33.2079 32.9991 33.7765 32.8041 34.3337 32.5976C34.7907 32.4286 35.1204 32.4724 35.2801 32.8051C35.4407 33.1399 35.2926 33.481 34.8544 33.6646C34.3055 33.8941 33.74 34.0829 33.139 34.305C33.0963 34.6346 33.0827 35.0393 32.9877 35.4242C32.4181 37.7533 30.8405 39.0832 28.6222 39.7549C28.2779 39.8592 27.919 39.9186 27.5674 40H25.9272C25.8562 39.9739 25.7863 39.9364 25.7133 39.9239C23.7402 39.6068 22.1637 38.6774 21.1057 36.946C21.0786 36.9022 21.0754 36.8448 21.0514 36.7603C20.9471 36.9001 20.9147 36.9376 20.8887 36.9804C20.0091 38.4313 18.7111 39.3116 17.098 39.7611C16.7642 39.854 16.423 39.9218 16.086 40H14.4458L14.4426 39.999ZM31.4467 12.8904C31.7513 12.8904 32.0163 12.6276 32.0216 12.3189C32.0268 11.9955 31.7482 11.717 31.4289 11.7295C31.1243 11.741 30.8613 12.0153 30.8665 12.3168C30.8718 12.6161 31.1483 12.8904 31.4467 12.8904ZM32.0216 28.5495C32.0153 28.2408 31.7482 27.979 31.4435 27.9811C31.1441 27.9832 30.8697 28.2575 30.8655 28.5579C30.8624 28.876 31.1535 29.1576 31.4696 29.143C31.7753 29.1295 32.0268 28.8583 32.0205 28.5495H32.0216ZM26.4123 7.9767C26.0962 7.97044 25.8458 8.20929 25.8353 8.52638C25.8249 8.86224 26.0785 9.12717 26.4082 9.12195C26.7212 9.11778 26.9674 8.86536 26.9674 8.54932C26.9674 8.22703 26.7306 7.98191 26.4123 7.9767ZM26.404 31.8716C26.0847 31.8695 25.8416 32.1073 25.8353 32.4265C25.8291 32.754 26.0555 32.9971 26.3779 33.0085C26.7139 33.021 26.9716 32.7707 26.9674 32.4328C26.9643 32.1094 26.7274 31.8727 26.404 31.8716Z" fill="#4570EE"/>
    <path d="M40.9986 21.335C40.9047 21.6552 40.8265 21.9806 40.7127 22.2935C40.1399 23.8602 39.0287 24.9178 37.5429 25.6156C37.4386 25.6646 37.3322 25.7084 37.2237 25.7564C37.4303 26.2028 37.6671 26.6221 37.8236 27.0685C38.3463 28.5653 38.1971 30.0089 37.3969 31.3794C37.1611 31.782 36.847 31.9009 36.5319 31.7226C36.1959 31.5327 36.1427 31.2021 36.3796 30.7776C37.2779 29.1682 37.0901 27.4607 35.8787 26.0391C35.7285 25.8628 35.5772 25.6177 35.5741 25.4028C35.5689 25.0617 35.86 24.9282 36.174 24.8417C37.5169 24.4714 38.6135 23.7538 39.3146 22.5178C40.2004 20.9553 39.8603 18.8473 38.6208 17.7668C38.025 17.9597 37.4824 18.1631 36.9253 18.306C36.5549 18.4009 36.2627 18.1787 36.1949 17.8408C36.1333 17.5321 36.3368 17.2494 36.6874 17.1566C38.1909 16.7581 39.0308 15.8163 39.0997 14.452C39.1623 13.2295 38.2691 11.9904 36.9367 11.5085C36.5517 11.3688 36.1344 11.2978 35.7243 11.2478C34.9376 11.1518 34.7425 10.8097 35.1233 10.1296C35.8339 8.85922 35.5188 7.38541 34.3283 6.43625C33.6104 5.86362 32.7757 5.62059 31.8701 5.57053C31.6572 5.55905 31.604 5.65293 31.531 5.84172C31.3077 6.41643 31.0729 6.99323 30.7714 7.52935C30.5763 7.87668 30.209 7.90171 29.9304 7.69102C29.6529 7.48137 29.6205 7.16741 29.8417 6.82947C30.81 5.3494 30.6284 3.74521 29.3576 2.51965C27.0903 0.332398 23.3091 1.02602 21.9694 3.39684C21.7096 3.85682 21.5917 4.25734 21.6011 4.75174C21.6167 5.61016 21.6052 6.46962 21.6052 7.32804C21.6052 7.67537 21.4748 7.94239 21.1169 8.03522C20.7351 8.13327 20.4064 7.81305 20.4033 7.327C20.3949 6.29857 20.397 5.27117 20.4033 4.24274C20.4054 4.0018 20.4022 3.78381 20.1716 3.62631C20.0819 3.56477 20.0329 3.44065 19.9723 3.34156C18.3196 0.641137 14.1242 0.449218 12.2336 2.99005C11.8037 3.56685 11.5491 4.20623 11.5408 4.9374C11.5345 5.43806 11.2653 5.66544 10.7645 5.62268C10.5965 5.60808 10.4285 5.58513 10.2605 5.57053C9.87656 5.53611 9.64493 5.33376 9.6272 5.0125C9.60946 4.68916 9.84631 4.45135 10.2438 4.39398C10.2814 4.38877 10.3179 4.38042 10.3607 4.37208C10.9106 1.96892 12.4913 0.621319 14.8201 0.123791C16.717 -0.280907 19.3849 0.239568 21.0053 2.68862C22.4452 0.628621 24.4339 -0.259003 26.8973 0.0966721C29.3858 0.45652 31.027 1.85836 31.6583 4.37938C33.1691 4.39502 34.537 4.84979 35.5866 6.00339C36.6602 7.18202 36.967 8.55883 36.4463 10.1171C37.9801 10.4832 39.2144 11.2373 39.8958 12.684C40.5854 14.1485 40.3569 15.5388 39.4189 16.8572C40.2808 17.7125 40.7378 18.7712 40.9986 19.929V21.335Z" fill="#4570EE"/>
    <path d="M5.55913 10.1129C5.28889 9.29827 5.22212 8.49618 5.46001 7.68261C5.74903 6.69381 6.33436 5.92197 7.17012 5.33578C7.50191 5.10214 7.82014 5.14386 8.03299 5.42235C8.25002 5.70606 8.19367 6.05235 7.85457 6.30267C7.10751 6.8534 6.60043 7.5491 6.52426 8.49409C6.50026 8.79866 6.54826 9.1147 6.60043 9.41927C6.66929 9.82605 6.8571 10.0701 7.32871 10.1796C7.82953 10.2954 8.30532 10.5802 8.7498 10.8587C9.08264 11.0673 9.10038 11.4365 8.88335 11.7056C8.66737 11.9726 8.34079 12.0039 8.01943 11.7651C6.951 10.9713 5.83771 11.1257 4.7432 11.6555C3.65078 12.1833 2.96736 13.0511 2.91311 14.3048C2.87763 15.1101 3.20734 15.7933 3.75303 16.3794C4.10674 16.7591 4.09944 17.0637 3.71338 17.4141C1.05588 19.8256 2.0398 23.4898 5.35671 24.6924C5.5633 24.7675 5.78137 24.8124 5.989 24.8844C6.46792 25.0523 6.61817 25.4956 6.28115 25.8669C5.51531 26.7097 5.08126 27.6714 5.05622 28.8197C5.04892 29.1431 4.75155 29.3767 4.4521 29.3652C4.13282 29.3527 3.89806 29.0961 3.89285 28.7384C3.87928 27.7339 4.18499 26.8223 4.7046 25.9733C4.73694 25.9201 4.76616 25.8638 4.81624 25.7741C3.0331 25.0137 1.69339 23.8246 1.18318 21.9148C0.666701 19.9779 1.25934 18.3039 2.57192 16.854C0.672962 14.2736 2.08153 10.9171 5.56122 10.1118L5.55913 10.1129Z" fill="#4570EE"/>
    <path d="M7.63011 20.0218C7.6635 17.9472 9.5562 15.712 11.6044 15.3261C12.0082 15.2499 12.3139 15.421 12.3911 15.7662C12.4599 16.077 12.2596 16.3733 11.8809 16.4786C10.0424 16.9918 9.08563 18.2497 8.80914 20.0886C8.75279 20.4641 8.47943 20.7092 8.15807 20.6758C7.83357 20.6424 7.62385 20.3827 7.63011 20.0208V20.0218Z" fill="#4570EE"/>
    <path d="M14.0951 27.1854C14.4498 27.1864 14.6387 27.4232 14.6815 27.8175C14.743 28.3943 14.7785 28.9857 14.9455 29.5353C15.2115 30.4125 15.7989 31.0665 16.6253 31.4879C16.93 31.6433 17.1366 31.854 17.0385 32.2253C16.93 32.6394 16.5408 32.7761 16.0994 32.5497C14.6804 31.8217 13.8802 30.6337 13.5974 29.09C13.5181 28.6602 13.515 28.2128 13.5129 27.7737C13.5108 27.4044 13.7539 27.1833 14.0951 27.1843V27.1854Z" fill="#4570EE"/>
    <path d="M17.2389 7.0954C17.1565 7.89332 16.8842 8.58277 16.4032 9.18773C15.8648 9.86361 15.1814 10.3445 14.3926 10.6772C14.0169 10.8357 13.6737 10.7022 13.5443 10.3757C13.4201 10.0639 13.5589 9.75931 13.9241 9.59451C14.8819 9.16061 15.6571 8.55252 15.9597 7.48862C16.0088 7.31548 16.0286 7.13295 16.0776 6.95876C16.1715 6.6302 16.447 6.44454 16.7485 6.5113C17.0709 6.58222 17.2181 6.80856 17.241 7.0954H17.2389Z" fill="#4570EE"/>
    <path d="M17.076 19.9247C17.0092 21.1399 16.5793 22.1193 15.4921 22.719C15.1061 22.9318 14.7451 22.8609 14.5771 22.5521C14.4049 22.235 14.5228 21.9148 14.9141 21.6874C15.5297 21.3307 15.8229 20.7873 15.8657 20.0926C15.8698 20.028 15.8688 19.9633 15.8719 19.8986C15.8897 19.4397 16.1411 19.1456 16.5 19.1664C16.859 19.1873 17.0843 19.496 17.077 19.9247H17.076Z" fill="#4570EE"/>
    <path d="M26.9976 4.35335C27.008 4.67147 26.7357 4.94475 26.406 4.94683C26.0794 4.94892 25.8352 4.72154 25.8175 4.40028C25.7998 4.07799 26.0606 3.78906 26.3788 3.7755C26.6887 3.76299 26.9882 4.04148 26.9976 4.35335Z" fill="#4570EE"/>
    <path d="M29.3628 19.9154C29.703 19.9238 29.944 20.1804 29.9294 20.5214C29.9169 20.8281 29.6518 21.0878 29.3493 21.0888C29.0362 21.0888 28.7483 20.801 28.7524 20.4891C28.7556 20.1699 29.0342 19.9081 29.3628 19.9154Z" fill="#4570EE"/>
    <path d="M33.311 19.9143C33.6543 19.9059 33.9078 20.1479 33.912 20.4879C33.9162 20.8134 33.6459 21.0918 33.3277 21.0887C33.0303 21.0866 32.7538 20.8227 32.7361 20.5234C32.7173 20.2094 32.9886 19.9226 33.3121 19.9143H33.311Z" fill="#4570EE"/>
    <path d="M26.9977 36.6237C26.9956 36.944 26.7191 37.2047 26.3883 37.1985C26.0628 37.1922 25.8249 36.9565 25.8176 36.6331C25.8103 36.3098 26.0805 36.0282 26.3988 36.0271C26.7128 36.0261 27.0008 36.3119 26.9977 36.6237Z" fill="#4570EE"/>
    <path d="M31.4467 12.8904C31.1483 12.8904 30.8718 12.6161 30.8665 12.3168C30.8613 12.0143 31.1243 11.74 31.4289 11.7295C31.7482 11.7181 32.0278 11.9955 32.0216 12.3189C32.0163 12.6276 31.7513 12.8904 31.4467 12.8904Z" fill="white"/>
    <path d="M32.0216 28.5495C32.0278 28.8572 31.7763 29.1284 31.4706 29.143C31.1534 29.1576 30.8623 28.875 30.8665 28.5579C30.8696 28.2575 31.1451 27.9832 31.4445 27.9811C31.7492 27.979 32.0153 28.2408 32.0226 28.5495H32.0216Z" fill="white"/>
    <path d="M26.4123 7.9767C26.7306 7.98295 26.9674 8.22703 26.9674 8.54932C26.9674 8.86641 26.7212 9.11778 26.4082 9.12195C26.0785 9.12612 25.8249 8.86224 25.8353 8.52638C25.8458 8.20929 26.0962 7.97044 26.4123 7.9767Z" fill="white"/>
    <path d="M26.4038 31.8717C26.7262 31.8738 26.963 32.1095 26.9672 32.4328C26.9714 32.7698 26.7136 33.0211 26.3777 33.0086C26.0553 32.9961 25.8289 32.7531 25.8351 32.4266C25.8414 32.1074 26.0855 31.8696 26.4038 31.8717Z" fill="white"/>
</svg>
