<svg width="81" height="81" viewBox="0 0 81 81" fill="none" xmlns="http://www.w3.org/2000/svg">
    <path d="M26.1355 80.166C25.3194 79.8467 25.0565 79.2372 25.0732 78.3857C25.1107 76.382 25.1045 74.3763 25.0669 72.3726C25.0606 71.9949 24.9104 71.5566 24.6808 71.2539C22.8295 68.8078 20.8698 66.4389 19.0916 63.9406C17.6431 61.9056 16.8981 59.5367 16.4744 57.0781C16.4431 56.8986 16.4285 56.717 16.4201 56.5354C16.3867 55.8133 16.7958 55.279 17.4386 55.1955C18.0501 55.1162 18.6157 55.567 18.7597 56.2662C18.8537 56.7233 18.8996 57.1908 19.0018 57.6479C19.5528 60.0961 20.6131 62.3022 22.1742 64.2662C23.7604 66.2615 25.3695 68.2422 26.914 70.2709C27.2333 70.6904 27.4524 71.2936 27.467 71.8195C27.5276 74.0048 27.4712 76.1921 27.5025 78.3773C27.515 79.2226 27.2625 79.8404 26.4485 80.166H26.1355Z" fill="#4570EE"/>
    <path d="M54.7348 80.166C54.1692 79.7361 54.0168 79.1558 54.0231 78.465C54.046 75.8623 54.0231 73.2597 54.0419 70.6549C54.0439 70.2479 54.0919 69.8096 54.2506 69.4444C55.171 67.3239 56.1206 65.2179 57.0786 63.1141C57.4542 62.2918 58.2035 62.0225 58.8463 62.4629C59.462 62.8845 59.5246 63.4543 59.2262 64.1097C58.3788 65.9776 57.5294 67.8456 56.7133 69.7282C56.5443 70.1185 56.442 70.5714 56.4378 70.9951C56.4128 73.4934 56.4086 75.9938 56.4378 78.4921C56.4462 79.1997 56.2521 79.7548 55.674 80.1639H54.7368L54.7348 80.166Z" fill="#4570EE"/>
    <path d="M24.7288 28.4613C26.5174 26.969 28.0806 25.4621 29.8442 24.2474C31.5786 23.0536 32.3216 21.6322 31.9877 19.5576C31.7977 18.3763 32.2131 17.3139 32.9602 16.3643C33.4737 15.711 33.8932 14.9847 34.3857 14.3147C34.8324 13.7053 35.4647 13.5801 36.0241 13.937C36.598 14.3043 36.7337 14.991 36.3204 15.6421C35.903 16.3017 35.5023 16.9842 34.9972 17.5707C34.3106 18.368 34.3106 19.2508 34.44 20.3299C35.782 19.2112 37.053 18.1551 38.3199 17.0948C39.9582 15.7256 41.5945 14.3544 43.2329 12.9852C46.0734 10.608 49.492 10.8313 51.9923 13.555C52.0612 13.6281 52.1363 13.6948 52.105 13.6635C53.3698 13.3192 54.5219 12.8433 55.7115 12.7097C59.0112 12.3424 61.5741 15.1162 61.2569 18.4744C60.852 22.7739 60.5118 27.0797 60.2029 31.3875C60.157 32.0262 60.3344 32.7275 60.5807 33.3286C61.6618 35.9688 63.0601 38.5067 63.872 41.2221C65.4248 46.4212 64.8342 51.5618 62.6323 56.5167C62.242 57.3953 61.8538 58.274 61.4468 59.1465C61.0691 59.9563 60.4158 60.2464 59.7563 59.9229C59.1239 59.6119 58.9695 58.9837 59.2867 58.1738C60.1215 56.0491 61.1567 53.9766 61.7223 51.7809C62.9245 47.112 62.3589 42.5474 60.2781 38.1853C59.8189 37.2232 59.4349 36.2151 58.8755 35.3155C57.7318 33.4726 57.7109 31.5169 57.9197 29.4486C58.312 25.5915 58.6084 21.7262 58.8964 17.8608C59.0279 16.0825 57.4334 14.7551 55.6781 15.0932C55.4485 15.1371 55.2169 15.1746 54.9936 15.2352C53.8902 15.5385 53.3385 16.2474 53.3385 17.3619C53.3406 19.255 52.6393 20.8725 51.1346 21.9745C49.7613 22.9784 49.0892 24.1952 48.8242 25.8712C48.2899 29.2565 47.5636 32.6106 46.8811 35.9709C46.7934 36.405 46.904 36.6262 47.2192 36.885C48.3045 37.7783 49.3251 38.7572 50.4458 39.6004C54.1045 42.3512 53.8728 47.3938 50.1787 49.8232C50.5084 50.1258 50.8298 50.4118 51.1429 50.7081C53.5493 52.979 53.7455 56.6001 51.5979 59.0776C49.5004 61.4966 45.8417 61.8201 43.3059 59.7601C41.5882 58.3659 39.9248 56.9069 38.0193 55.2936C37.7584 55.6401 37.533 56.0262 37.2241 56.3288C36.6836 56.8548 36.0429 56.8527 35.5545 56.3893C35.0578 55.9176 35.0536 55.2247 35.5816 54.6549C36.0596 54.1394 36.5646 53.6489 37.0697 53.1585C37.7877 52.4593 38.3345 52.4426 39.113 53.1021C40.96 54.6674 42.7925 56.2516 44.6458 57.8086C46.783 59.6056 49.8531 58.7186 50.5752 56.0784C50.9655 54.6549 50.6065 53.3693 49.4816 52.4008C46.3447 49.698 43.1911 47.016 40.0208 44.3528C38.7477 43.2821 37.341 43.3259 36.0596 44.428C34.0455 46.1603 32.0482 47.9093 30.0467 49.6562C29.5854 50.0591 29.0866 50.1738 28.5419 49.8712C28.0452 49.5936 27.8886 49.124 28.0264 48.6022C28.0953 48.3455 28.2747 48.0825 28.4772 47.9051C30.5893 46.0476 32.6827 44.1691 34.847 42.3721C36.7963 40.7546 39.5283 40.8464 41.5235 42.5203C43.5584 44.2255 45.5913 45.937 47.5865 47.6901C48.054 48.1013 48.4046 48.0763 48.8826 47.8029C50.9968 46.5944 51.4059 43.6328 49.563 42.0131C46.3948 39.2289 43.164 36.5156 39.9311 33.8065C38.7122 32.7859 37.2888 32.8861 36.0303 33.9735C34.0601 35.6766 32.1066 37.3985 30.126 39.0891C29.8672 39.3103 29.4748 39.5566 29.1826 39.5169C28.8007 39.4647 28.2977 39.2164 28.1391 38.9054C27.9805 38.5881 28.1245 38.0747 28.2434 37.6823C28.3102 37.4653 28.5941 37.3108 28.7902 37.1397C30.6958 35.4804 32.5992 33.8211 34.5109 32.1702C34.7864 31.9323 35.0619 31.6484 35.3896 31.5294C37.412 30.7948 38.8187 29.2169 40.4132 27.9083C43.4708 25.3974 46.4908 22.8386 49.5212 20.2923C50.6879 19.3113 51.2389 18.0883 50.8778 16.5542C50.5356 15.0995 49.6089 14.1853 48.1709 13.8368C46.8853 13.5237 45.777 13.9307 44.7773 14.7739C41.4922 17.5435 38.1926 20.2944 34.8991 23.0515C30.247 26.944 25.6158 30.8657 20.9324 34.7186C18.4404 36.7682 17.2821 39.2706 17.6452 42.5203C17.9437 45.1814 18.0835 47.8613 18.2922 50.5349C18.3152 50.8209 18.3277 51.1089 18.3173 51.3927C18.2901 52.071 17.8372 52.5281 17.1965 52.549C16.5516 52.5699 16.0528 52.1566 15.9923 51.4783C15.8232 49.6374 15.6729 47.7966 15.531 45.9557C15.41 44.3737 15.2326 42.7896 15.2221 41.2054C15.2033 38.0872 16.4514 35.5034 18.7869 33.4538C19.7657 32.596 20.7633 31.7569 21.7881 30.9534C22.218 30.6153 22.3892 30.2646 22.3871 29.7115C22.3662 25.5707 22.3787 21.4298 22.3808 17.2889C22.3808 15.6818 22.8254 14.1958 23.7145 12.8746C26.0103 9.46422 28.3081 6.05384 30.6791 2.69563C32.5428 0.0449682 36.118 -0.558214 38.7978 1.21168C41.4734 2.9774 42.2978 6.49631 40.6574 9.26386C40.2337 9.97974 39.7516 10.6622 39.2591 11.3322C38.8166 11.9375 38.1633 12.0669 37.6228 11.7162C37.0342 11.3343 36.9007 10.6685 37.3181 10.0111C37.7063 9.39535 38.1508 8.81512 38.5348 8.19733C39.6222 6.44622 39.1651 4.28186 37.4913 3.18194C35.8488 2.10289 33.6803 2.49944 32.5178 4.17124C30.2303 7.46057 27.9429 10.7541 25.7577 14.1123C25.213 14.9492 24.8039 16.0324 24.7747 17.0176C24.662 20.7619 24.7288 24.5146 24.7288 28.4655V28.4613ZM40.3172 31.0849C41.774 32.285 43.2099 33.4663 44.7126 34.7061C45.2761 31.8216 45.825 29.0165 46.3718 26.2114C46.3217 26.1885 46.2696 26.1655 46.2195 26.1405C44.2326 27.8039 42.2478 29.4673 40.3151 31.0849H40.3172Z" fill="#4570EE"/>
    <path d="M50.7025 3.76425C50.7025 3.01288 50.6858 2.25942 50.7067 1.50805C50.7297 0.666935 51.1888 0.16811 51.9005 0.166022C52.6143 0.163935 53.0734 0.643977 53.0881 1.50596C53.111 3.03584 53.111 4.56571 53.0881 6.09558C53.0755 6.92417 52.5746 7.46266 51.9026 7.46266C51.2306 7.46266 50.7276 6.90748 50.7067 6.09767C50.6858 5.31917 50.7025 4.54066 50.7025 3.76425Z" fill="#4570EE"/>
    <path d="M67.0757 9.08227C66.9442 9.24716 66.748 9.66667 66.4182 9.88374C65.0992 10.7541 63.7468 11.5764 62.3902 12.3883C61.7244 12.7869 61.0503 12.6241 60.6955 12.0481C60.3302 11.4574 60.4909 10.8125 61.1672 10.3805C62.5008 9.53101 63.8428 8.69198 65.2036 7.88217C66.0801 7.36039 67.0569 7.86965 67.0778 9.0781L67.0757 9.08227Z" fill="#4570EE"/>
    <path d="M61.0482 3.38439C60.9897 3.53884 60.9209 3.81851 60.7852 4.06271C60.0756 5.35673 59.3577 6.64867 58.6272 7.93226C58.1701 8.73581 57.544 8.96748 56.9012 8.60432C56.2479 8.23698 56.1227 7.60041 56.5672 6.7906C57.3019 5.45065 58.0428 4.11489 58.7962 2.78538C59.0884 2.26986 59.5204 1.96305 60.1466 2.13002C60.7101 2.28238 61.0106 2.67059 61.0461 3.38439H61.0482Z" fill="#4570EE"/>
</svg>
