<svg width="40" height="40" viewBox="0 0 40 40" fill="none" xmlns="http://www.w3.org/2000/svg">
    <path d="M11.6955 40.0001C11.3971 39.8227 11.2986 39.5657 11.3018 39.218C11.3151 37.5157 11.3158 35.8134 11.3018 34.111C11.2986 33.6845 11.469 33.4798 11.8619 33.3032C13.2151 32.6954 14.3065 31.7399 15.2018 30.5665C15.5299 30.136 15.8041 29.6649 16.1354 29.1641C14.8549 28.7235 14.0244 27.9173 13.7361 26.6329C13.5361 25.7391 13.719 24.9009 14.2229 24.143C15.358 22.4368 17.2424 22.2743 19.3119 23.693C20.276 22.9243 21.0041 21.3704 21.0807 19.8969H8.0174C7.92912 20.5251 7.81584 21.1602 7.7549 21.8001C7.50802 24.3915 7.64162 26.9438 8.73224 29.3548C9.06037 30.0805 9.53928 30.7391 9.96428 31.4196C10.2229 31.8345 10.0729 32.279 9.61506 32.3876C9.30724 32.4602 9.13068 32.2727 8.96584 32.0618C8.05881 30.9009 7.43849 29.5946 7.0424 28.1821C6.41896 25.9626 6.33849 23.7032 6.60802 21.4266C6.68693 20.7579 6.80334 20.093 6.93302 19.4321C7.06506 18.7618 7.14474 18.7134 7.84474 18.6884C7.90724 18.686 7.96896 18.6743 8.08693 18.6602C7.86271 18.0009 7.66584 17.3602 7.42677 16.736C7.24865 16.2704 7.21896 15.8235 7.32756 15.3329C7.70724 13.6251 8.05256 11.9102 8.4174 10.1985C8.55256 9.56492 8.99943 9.40086 9.49474 9.81335C10.9221 11.0024 12.344 12.1977 13.7565 13.4048C13.9135 13.5391 14.0346 13.7485 14.1041 13.9469C14.6119 15.4024 15.1104 16.8618 15.5924 18.3259C15.6854 18.6087 15.819 18.7063 16.1166 18.6962C16.7877 18.6727 17.4604 18.6891 18.1666 18.6891C18.1666 17.4993 18.1643 16.3587 18.1674 15.218C18.1682 14.8048 18.3377 14.6024 18.6838 14.5751C19.0947 14.543 19.3291 14.7626 19.3315 15.2071C19.3369 16.2079 19.333 17.2087 19.333 18.2087C19.333 18.3501 19.333 18.4923 19.333 18.661H20.3447C20.3447 17.9532 20.3447 17.2673 20.3447 16.5821C20.3447 16.1532 20.3432 15.7243 20.3447 15.2954C20.3479 14.7782 20.5252 14.5657 20.9401 14.5727C21.3322 14.5798 21.5127 14.7993 21.5135 15.2852C21.5158 16.2602 21.5135 17.2344 21.5135 18.2094C21.5135 18.3509 21.5135 18.493 21.5135 18.6876C22.0541 18.6876 22.5713 18.7079 23.0838 18.6719C23.1963 18.6641 23.3283 18.4719 23.3947 18.3376C24.6557 15.7782 25.908 13.2157 27.1604 10.6524C27.551 9.85242 28.1776 9.41492 29.0776 9.44851C29.3408 9.45867 29.6158 9.54539 29.858 9.65789C30.7049 10.0501 31.544 10.4602 32.3783 10.879C33.4432 11.4126 33.8127 12.4923 33.2924 13.5751C32.5393 15.1415 31.769 16.6985 31.0057 18.2602C30.9494 18.3759 30.8947 18.4915 30.8182 18.6509C31.444 18.7173 31.4901 19.129 31.5065 19.6266C31.576 21.786 32.2197 23.7805 33.3276 25.629C33.6518 26.1696 33.7877 26.7251 33.551 27.3352C33.3354 27.8915 32.9518 28.3055 32.3729 28.4274C32.0088 28.504 31.933 28.6727 31.8963 28.9876C31.5854 31.6563 30.3057 33.7571 28.1151 35.2923C26.5924 36.3594 24.8776 36.8462 23.0205 36.8352C22.5815 36.8329 22.1424 36.8352 21.6658 36.8352C21.6658 37.6438 21.6526 38.4079 21.6713 39.1712C21.6799 39.5266 21.5854 39.8048 21.283 39.9993H11.6924L11.6955 40.0001ZM22.3158 19.8884C22.2869 20.0516 22.2604 20.1907 22.2377 20.3305C22.2276 20.3946 22.2268 20.4602 22.2166 20.5243C21.9424 22.2094 21.2166 23.6532 19.9049 24.7704C19.2971 25.2884 19.1268 25.2602 18.5807 24.6891C18.0666 24.1516 17.4549 23.7852 16.6838 23.8923C15.5752 24.0462 14.819 24.9477 14.8518 26.011C14.8861 27.1087 15.6768 27.9337 16.8151 28.0587C17.533 28.1376 17.7104 28.4415 17.4229 29.1016C16.4541 31.3212 14.8979 33.0087 12.7838 34.179C12.5447 34.311 12.4619 34.4524 12.469 34.7188C12.4877 35.4071 12.4752 36.0954 12.4752 36.7837C12.4752 37.4548 12.4752 38.1266 12.4752 38.8126H20.4901C20.4901 38.0563 20.4901 37.3196 20.4901 36.5829C20.4901 35.7946 20.6354 35.6634 21.4143 35.6454C22.451 35.6212 23.5096 35.6962 24.5197 35.5126C28.1486 34.854 30.6604 31.8579 30.7901 28.1657C30.8135 27.4985 30.9674 27.3462 31.6283 27.336C32.4541 27.3235 32.7018 26.8891 32.2815 26.1766C31.6057 25.0313 31.0627 23.8259 30.751 22.5337C30.5424 21.6704 30.4268 20.7844 30.2658 19.8876H22.3166L22.3158 19.8884ZM31.8127 13.9173C31.9588 13.6219 32.0901 13.3704 32.2096 13.1141C32.476 12.5446 32.3526 12.186 31.7869 11.9055C31.0557 11.5423 30.3197 11.1868 29.5854 10.8298C28.8307 10.4626 28.5229 10.5649 28.1588 11.3079C27.0174 13.636 25.8776 15.9649 24.7385 18.2946C24.6838 18.4063 24.6424 18.5251 24.5752 18.6899C26.1908 18.6899 27.758 18.6923 29.326 18.6829C29.4049 18.6829 29.5111 18.5977 29.5549 18.5227C29.676 18.3149 29.7713 18.0923 29.8869 17.8548C29.3486 17.5907 28.8486 17.3485 28.3518 17.0993C27.9276 16.8868 27.8111 16.611 27.9893 16.2618C28.1651 15.9173 28.4494 15.8477 28.8776 16.0516C29.3783 16.2899 29.876 16.5329 30.408 16.7899C30.7072 16.179 30.9947 15.593 31.2916 14.9876C30.9557 14.8204 30.6526 14.6759 30.3557 14.5204C29.9736 14.3204 29.8674 14.0641 30.0182 13.7337C30.1752 13.3891 30.4752 13.2868 30.8572 13.4602C31.1627 13.5985 31.4627 13.7501 31.8111 13.918L31.8127 13.9173ZM12.594 13.9587C11.8565 13.3384 11.1557 12.743 10.4447 12.1602C10.3697 12.0993 10.2252 12.0782 10.126 12.0993C9.20802 12.2969 9.15803 12.3516 8.97287 13.261C8.82678 13.9774 8.68303 14.6946 8.53303 15.4337C9.27209 15.4876 9.95646 15.5446 10.6424 15.5821C10.7557 15.5884 10.9018 15.5376 10.9854 15.4618C11.5143 14.9829 12.0299 14.4891 12.594 13.9587ZM13.2221 14.9954C12.7369 15.4469 12.2947 15.8446 11.8729 16.2634C11.8041 16.3313 11.7799 16.5024 11.8104 16.6032C11.9986 17.2212 12.2057 17.8344 12.4151 18.4454C12.4455 18.5337 12.5236 18.6719 12.5822 18.6735C13.1947 18.6907 13.808 18.6837 14.4752 18.6837C14.0463 17.4219 13.644 16.2376 13.2221 14.9954ZM8.65646 16.6407C8.88146 17.3087 9.08615 17.9305 9.30568 18.5469C9.32834 18.6102 9.43771 18.6813 9.50881 18.6829C10.0736 18.6938 10.6385 18.6891 11.2479 18.6891C11.0432 18.0641 10.8651 17.4993 10.669 16.9399C10.6424 16.8641 10.5338 16.7727 10.4565 16.7657C9.87678 16.7141 9.29552 16.6821 8.65724 16.6407H8.65646Z" fill="#4570EE"/>
    <path d="M22.0447 5.0157C21.7596 3.7782 21.1526 2.79773 20.3447 1.93132C20.0885 1.65632 19.7986 1.41335 19.5268 1.1532C19.2221 0.861792 19.1932 0.584448 19.4315 0.298511C19.6619 0.0235107 19.9815 -0.00773929 20.2877 0.253979C22.2143 1.89929 23.4143 3.9071 23.3838 6.52117C23.376 7.17039 23.3643 7.82039 23.3869 8.46961C23.3916 8.61492 23.4979 8.8032 23.6174 8.88914C24.1393 9.26804 24.426 9.7571 24.4237 10.4048C24.419 11.6001 24.4276 12.7954 24.3869 13.9899C24.3807 14.186 24.1947 14.4415 24.0182 14.5509C23.7838 14.6962 23.5143 14.5985 23.3315 14.3626C22.9666 13.8923 22.6033 13.4204 22.2205 12.9251C21.5143 13.529 20.7166 13.8673 19.8002 13.8688C18.8955 13.8704 18.1018 13.554 17.3869 12.9337C17.0393 13.3774 16.6971 13.8126 16.3572 14.2493C16.1572 14.5063 15.9408 14.729 15.5737 14.6016C15.2088 14.4751 15.1674 14.1735 15.1713 13.843C15.1846 12.7001 15.1932 11.5563 15.2002 10.4134C15.2041 9.76101 15.4932 9.2571 16.0338 8.92039C16.2486 8.78601 16.2869 8.63992 16.2908 8.41726C16.3088 7.39226 16.301 6.36492 16.3822 5.3446C16.4627 4.33289 16.8807 3.41882 17.4065 2.55867C17.6166 2.2157 17.9221 2.1321 18.2307 2.31257C18.5361 2.4907 18.601 2.7946 18.4283 3.14851C18.1416 3.73757 17.8651 4.33132 17.5401 5.01492C18.3986 5.01492 19.1205 5.01492 19.8424 5.01492C20.5643 5.01492 21.2674 5.01492 22.0432 5.01492L22.0447 5.0157ZM22.1799 6.2407H17.4611C17.4611 6.96335 17.4705 7.65007 17.4565 8.33601C17.4518 8.57351 17.5065 8.70164 17.751 8.79382C18.5361 9.08914 19.1846 10.1704 18.5518 11.1852C18.3947 11.4368 18.2471 11.6946 18.0979 11.9446C19.0354 12.9509 20.7486 12.9243 21.5002 11.9001C21.4002 11.736 21.2963 11.5727 21.1986 11.4055C20.5096 10.2298 20.7697 9.35711 21.9869 8.72351C22.0713 8.67976 22.1705 8.56101 22.1721 8.47585C22.1869 7.73914 22.1807 7.00164 22.1807 6.24148L22.1799 6.2407ZM16.3776 12.1782C16.408 12.1868 16.4385 12.1946 16.469 12.2032C16.8057 11.6985 17.1424 11.1946 17.4776 10.6899C17.6135 10.4852 17.7283 10.2391 17.5041 10.0641C17.3307 9.92898 17.0502 9.80554 16.8604 9.85242C16.6713 9.89851 16.4166 10.1524 16.3994 10.3352C16.3416 10.9446 16.3776 11.5626 16.3776 12.1774V12.1782ZM23.1408 12.2063C23.1736 12.1946 23.2072 12.1837 23.2401 12.1719C23.2401 11.5548 23.2713 10.9344 23.2205 10.3212C23.2057 10.1446 22.9846 9.92429 22.8033 9.83836C22.5604 9.72429 22.2971 9.8157 22.1127 10.0469C21.9494 10.2524 21.9869 10.4462 22.1221 10.6501C22.4651 11.1665 22.8018 11.6868 23.1408 12.2055V12.2063Z" fill="#4570EE"/>
    <path d="M10.5229 5.32742C10.0596 5.2657 9.41427 5.47898 9.41115 4.73757C9.40724 3.9782 10.0682 4.18445 10.5307 4.11648C10.6111 3.64851 10.4026 2.95945 11.1862 2.98679C11.901 3.01179 11.7111 3.65007 11.7768 4.12039C12.2291 4.1821 12.894 3.98054 12.9018 4.72117C12.9096 5.47742 12.2377 5.26179 11.7861 5.32976C11.6901 5.79851 11.9236 6.48835 11.1244 6.46414C10.3815 6.44226 10.6252 5.78914 10.5229 5.32664V5.32742Z" fill="#4570EE"/>
    <path d="M25.7299 1.23679C25.7979 0.766479 25.6104 0.105542 26.3533 0.106323C27.0947 0.107104 26.9041 0.771167 26.9768 1.23445C27.444 1.29695 28.0994 1.11101 28.0963 1.86023C28.0932 2.58992 27.4471 2.39382 26.9885 2.46335C26.8783 2.91804 27.126 3.61414 26.2908 3.59226C25.8846 3.58132 25.7947 3.39226 25.7315 2.48757C25.6486 2.47273 25.5557 2.44539 25.4611 2.44226C24.8377 2.41804 24.5932 2.25554 24.5908 1.85632C24.5885 1.44148 24.8424 1.27195 25.4908 1.25554C25.5658 1.25398 25.6408 1.24382 25.7299 1.23679Z" fill="#4570EE"/>
    <path d="M31.0221 6.81882C30.9072 7.25945 31.1854 7.99617 30.3401 7.94226C29.6338 7.89695 29.8518 7.27742 29.7721 6.81023C29.3197 6.7407 28.6018 6.96414 28.6518 6.15164C28.694 5.46804 29.3135 5.65476 29.7682 5.6032C29.8565 5.14617 29.6346 4.45554 30.4111 4.46648C31.1432 4.47664 30.9408 5.12039 31.0049 5.58601C31.4588 5.68757 32.1807 5.43289 32.1315 6.26414C32.0893 6.98523 31.4549 6.72664 31.0205 6.8196L31.0221 6.81882Z" fill="#4570EE"/>
    <path d="M26.2627 21.6641C27.4322 21.6665 28.3947 22.6063 28.3893 23.7415C28.3877 24.1157 28.1885 24.3469 27.8486 24.3696C27.5158 24.3915 27.2705 24.1759 27.2197 23.818C27.1307 23.1907 26.7971 22.8477 26.269 22.8415C25.7385 22.8344 25.4057 23.1579 25.2893 23.793C25.2119 24.2157 24.9697 24.4173 24.6104 24.3602C24.2502 24.3032 24.0666 24.0282 24.1119 23.6118C24.2338 22.4884 25.1463 21.6626 26.2627 21.6649V21.6641Z" fill="#4570EE"/>
    <path d="M16.7651 26.5102C16.4385 26.5016 16.2205 26.2712 16.2205 25.9329C16.2205 25.5852 16.4674 25.3368 16.8026 25.3469C17.1182 25.3563 17.3557 25.6071 17.3557 25.9305C17.3557 26.2727 17.1057 26.5188 16.7643 26.5102H16.7651Z" fill="#4570EE"/>
</svg>
