<svg width="40" height="40" viewBox="0 0 40 40" fill="none" xmlns="http://www.w3.org/2000/svg">
    <path d="M33.9285 23.0491C33.9285 23.9649 33.5647 24.8432 32.9171 25.4908C32.2695 26.1384 31.3912 26.5022 30.4754 26.5022C29.5596 26.5022 28.6813 26.1384 28.0337 25.4908C27.3861 24.8432 27.0223 23.9649 27.0223 23.0491C27.0223 21.0835 28.2043 20.0742 29.1606 19.2507C30.1168 18.4273 30.741 17.8961 30.741 16.6742C30.741 15.4766 30.2653 14.328 29.4185 13.4812C28.5716 12.6344 27.4231 12.1586 26.2255 12.1586C25.0279 12.1586 23.8793 12.6344 23.0325 13.4812C22.1856 14.328 21.7099 15.4766 21.7099 16.6742C21.7099 16.8855 21.6259 17.0882 21.4765 17.2377C21.327 17.3871 21.1244 17.4711 20.913 17.4711C20.7017 17.4711 20.499 17.3871 20.3495 17.2377C20.2001 17.0882 20.1162 16.8855 20.1162 16.6742C20.1162 15.0539 20.7598 13.5 21.9055 12.3543C23.0512 11.2085 24.6052 10.5649 26.2255 10.5649C27.8457 10.5649 29.3997 11.2085 30.5454 12.3543C31.6911 13.5 32.3348 15.0539 32.3348 16.6742C32.3348 18.6398 31.1528 19.6492 30.1965 20.4726C29.2403 21.296 28.6161 21.8273 28.6161 23.0491C28.6161 23.5423 28.812 24.0152 29.1607 24.3639C29.5093 24.7126 29.9823 24.9085 30.4754 24.9085C30.9685 24.9085 31.4415 24.7126 31.7902 24.3639C32.1389 24.0152 32.3348 23.5423 32.3348 23.0491C32.3348 22.8378 32.4187 22.6351 32.5682 22.4857C32.7176 22.3362 32.9203 22.2523 33.1316 22.2523C33.343 22.2523 33.5457 22.3362 33.6951 22.4857C33.8445 22.6351 33.9285 22.8378 33.9285 23.0491ZM26.2255 5.25244C23.1973 5.25596 20.2942 6.46044 18.1529 8.60168C16.0117 10.7429 14.8072 13.646 14.8037 16.6742C14.8037 21.0038 16.4107 22.5577 17.7123 23.8061C18.7615 24.8155 19.5849 25.6257 19.5849 27.8303C19.5844 29.1986 20.0065 30.5336 20.7936 31.6528C21.5807 32.772 22.6943 33.6208 23.9822 34.083C25.27 34.5452 26.6692 34.5983 27.9883 34.2351C29.3075 33.8719 30.4823 33.11 31.352 32.0537C31.4858 31.8899 31.5491 31.6797 31.5279 31.4692C31.5068 31.2587 31.4029 31.0653 31.2391 30.9315C31.0753 30.7976 30.865 30.7343 30.6546 30.7555C30.4441 30.7766 30.2507 30.8806 30.1168 31.0443C29.4552 31.8456 28.5623 32.423 27.5602 32.6978C26.5581 32.9726 25.4956 32.9314 24.5178 32.5798C23.5399 32.2282 22.6945 31.5833 22.0969 30.7333C21.4992 29.8832 21.1786 28.8694 21.1786 27.8303C21.1786 26.5421 20.9263 25.4796 20.4216 24.5764C19.9169 23.6733 19.3857 23.2085 18.8146 22.664C17.5662 21.4687 16.3974 20.3265 16.3974 16.6742C16.3974 14.0676 17.4329 11.5678 19.276 9.72473C21.1191 7.88162 23.6189 6.84617 26.2255 6.84617C28.832 6.84617 31.3318 7.88162 33.1749 9.72473C35.018 11.5678 36.0535 14.0676 36.0535 16.6742C36.0535 16.8855 36.1374 17.0882 36.2869 17.2377C36.4363 17.3871 36.639 17.4711 36.8503 17.4711C37.0617 17.4711 37.2644 17.3871 37.4138 17.2377C37.5633 17.0882 37.6472 16.8855 37.6472 16.6742C37.6437 13.646 36.4392 10.7429 34.298 8.60168C32.1567 6.46044 29.2536 5.25596 26.2255 5.25244Z" fill="#4570EE"/>
    <path d="M9.64187 14.2441C9.85514 14.0308 10.2022 14.0298 10.4032 14.2546C11.2361 15.1858 11.8844 16.2689 12.3117 17.4464C12.8011 18.7953 12.9886 20.2351 12.8607 21.6644C12.7329 23.0936 12.2929 24.4773 11.5718 25.7179C10.9423 26.8008 10.112 27.7517 9.12709 28.5202C8.88931 28.7058 8.54796 28.6432 8.37593 28.3955C8.2039 28.1478 8.26649 27.8088 8.50297 27.6216C9.3572 26.9453 10.0783 26.1137 10.6275 25.169C11.2682 24.0666 11.6592 22.837 11.7728 21.567C11.8864 20.297 11.7199 19.0176 11.285 17.819C10.9122 16.7918 10.3502 15.8454 9.62952 15.0283C9.43003 14.802 9.4286 14.4574 9.64187 14.2441Z" fill="#4570EE"/>
    <path d="M7.76262 16.8773C7.95121 16.6887 8.25867 16.6876 8.43144 16.8907C8.89264 17.4331 9.25422 18.0544 9.49794 18.7261C9.79668 19.5494 9.91107 20.4282 9.83303 21.3005C9.755 22.1729 9.48644 23.0174 9.04632 23.7746C8.68725 24.3923 8.22113 24.9396 7.67099 25.3915C7.46489 25.5608 7.16253 25.5051 7.01041 25.286C6.85828 25.0669 6.91433 24.7677 7.11778 24.5952C7.55314 24.2262 7.92327 23.7847 8.21128 23.2892C8.58037 22.6543 8.80558 21.946 8.87102 21.2145C8.93646 20.4829 8.84054 19.746 8.59001 19.0556C8.39452 18.5168 8.10862 18.0167 7.74568 17.5762C7.57608 17.3703 7.57403 17.0659 7.76262 16.8773Z" fill="#4570EE"/>
    <path d="M5.47127 19.1569C5.64667 18.9815 5.93416 18.9798 6.08224 19.1788C6.26095 19.419 6.40421 19.6846 6.50688 19.9675C6.66077 20.3916 6.71969 20.8443 6.67949 21.2937C6.6393 21.7431 6.50095 22.1781 6.27423 22.5682C6.12298 22.8284 5.93485 23.0644 5.71635 23.269C5.5353 23.4386 5.25266 23.3859 5.11117 23.1822C4.96969 22.9784 5.02451 22.7012 5.19508 22.5211C5.31087 22.3988 5.41248 22.2632 5.4976 22.1168C5.65826 21.8404 5.75629 21.5321 5.78477 21.2137C5.81326 20.8953 5.7715 20.5745 5.66246 20.2739C5.60468 20.1147 5.52875 19.9632 5.4365 19.8223C5.3006 19.6148 5.29586 19.3323 5.47127 19.1569Z" fill="#4570EE"/>
</svg>
