<svg width="81" height="81" viewBox="0 0 81 81" fill="none" xmlns="http://www.w3.org/2000/svg">
    <path d="M68.3568 46.5982C68.3568 48.4299 67.6291 50.1865 66.334 51.4817C65.0388 52.7768 63.2822 53.5044 61.4506 53.5044C59.6189 53.5044 57.8623 52.7768 56.5672 51.4817C55.272 50.1865 54.5444 48.4299 54.5444 46.5982C54.5444 42.667 56.9084 40.6483 58.8209 39.0015C60.7334 37.3546 61.9818 36.2921 61.9818 33.8484C61.9818 31.4532 61.0303 29.1561 59.3367 27.4624C57.643 25.7687 55.3459 24.8172 52.9507 24.8172C50.5555 24.8172 48.2584 25.7687 46.5647 27.4624C44.871 29.1561 43.9195 31.4532 43.9195 33.8484C43.9195 34.2711 43.7516 34.6764 43.4527 34.9753C43.1538 35.2742 42.7485 35.4421 42.3258 35.4421C41.9031 35.4421 41.4977 35.2742 41.1989 34.9753C40.9 34.6764 40.7321 34.2711 40.7321 33.8484C40.7321 30.6078 42.0194 27.5 44.3108 25.2085C46.6022 22.9171 49.7101 21.6298 52.9507 21.6298C56.1913 21.6298 59.2991 22.9171 61.5905 25.2085C63.882 27.5 65.1693 30.6078 65.1693 33.8484C65.1693 37.7796 62.8053 39.7983 60.8928 41.4452C58.9803 43.092 57.7319 44.1545 57.7319 46.5982C57.7319 47.5845 58.1237 48.5304 58.8211 49.2278C59.5184 49.9252 60.4643 50.317 61.4506 50.317C62.4368 50.317 63.3827 49.9252 64.0801 49.2278C64.7775 48.5304 65.1693 47.5845 65.1693 46.5982C65.1693 46.1756 65.3372 45.7702 65.6361 45.4713C65.935 45.1724 66.3403 45.0045 66.763 45.0045C67.1857 45.0045 67.5911 45.1724 67.89 45.4713C68.1888 45.7702 68.3568 46.1756 68.3568 46.5982ZM52.9507 11.0049C46.8944 11.0119 41.0881 13.4209 36.8056 17.7034C32.5232 21.9858 30.1142 27.7921 30.1072 33.8484C30.1072 42.5077 33.3212 45.6154 35.9243 48.1123C38.0227 50.131 39.6696 51.7513 39.6696 56.1606C39.6685 58.8972 40.5128 61.5672 42.087 63.8056C43.6612 66.044 45.8884 67.7415 48.4641 68.666C51.0397 69.5904 53.8381 69.6967 56.4764 68.9702C59.1148 68.2437 61.4643 66.72 63.2037 64.6074C63.4714 64.2798 63.598 63.8593 63.5556 63.4384C63.5133 63.0175 63.3055 62.6306 62.9779 62.3629C62.6503 62.0952 62.2298 61.9686 61.8089 62.011C61.388 62.0533 61.0011 62.2611 60.7334 62.5887C59.4101 64.1911 57.6243 65.346 55.6201 65.8956C53.6159 66.4452 51.4909 66.3628 49.5353 65.6596C47.5796 64.9564 45.8887 63.6667 44.6935 61.9666C43.4982 60.2665 42.8569 58.2389 42.857 56.1606C42.857 53.5841 42.3524 51.4591 41.343 49.6529C40.3336 47.8467 39.2711 46.917 38.129 45.8279C35.6321 43.4373 33.2946 41.153 33.2946 33.8484C33.2946 28.6353 35.3655 23.6357 39.0518 19.9495C42.738 16.2632 47.7376 14.1923 52.9507 14.1923C58.1638 14.1923 63.1634 16.2632 66.8496 19.9495C70.5358 23.6357 72.6067 28.6353 72.6067 33.8484C72.6067 34.2711 72.7746 34.6764 73.0735 34.9753C73.3724 35.2742 73.7778 35.4421 74.2004 35.4421C74.6231 35.4421 75.0285 35.2742 75.3274 34.9753C75.6263 34.6764 75.7942 34.2711 75.7942 33.8484C75.7871 27.7921 73.3782 21.9858 69.0957 17.7034C64.8132 13.4209 59.007 11.0119 52.9507 11.0049Z" fill="#4570EE"/>
    <path d="M19.784 28.9882C20.2105 28.5616 20.9046 28.5597 21.3067 29.0093C22.9724 30.8716 24.2691 33.0378 25.1236 35.3928C26.1025 38.0906 26.4774 40.9703 26.2217 43.8287C25.966 46.6872 25.0859 49.4546 23.6438 51.9358C22.3848 54.1017 20.7242 56.0034 18.7544 57.5405C18.2789 57.9116 17.5962 57.7865 17.2521 57.291C16.908 56.7955 17.0332 56.1176 17.5062 55.7432C19.2146 54.3906 20.6569 52.7275 21.7552 50.838C23.0367 48.6333 23.8187 46.1741 24.0459 43.6341C24.2731 41.0941 23.94 38.5352 23.0702 36.138C22.3247 34.0835 21.2006 32.1908 19.7593 30.5565C19.3603 30.1041 19.3574 29.4147 19.784 28.9882Z" fill="#4570EE"/>
    <path d="M16.0247 34.2547C16.4019 33.8775 17.0168 33.8751 17.3624 34.2815C18.2848 35.3662 19.0079 36.6089 19.4954 37.9522C20.0929 39.5988 20.3216 41.3564 20.1656 43.1011C20.0095 44.8457 19.4724 46.5348 18.5921 48.0492C17.874 49.2847 16.9418 50.3793 15.8415 51.2831C15.4293 51.6216 14.8246 51.5102 14.5203 51.072C14.2161 50.6339 14.3282 50.0354 14.7351 49.6905C15.6058 48.9523 16.3461 48.0694 16.9221 47.0785C17.6603 45.8085 18.1107 44.392 18.2416 42.9289C18.3724 41.4659 18.1806 39.9919 17.6795 38.6111C17.2886 37.5336 16.7167 36.5334 15.9909 35.6524C15.6517 35.2407 15.6476 34.6319 16.0247 34.2547Z" fill="#4570EE"/>
    <path d="M11.4428 38.8137C11.7936 38.4629 12.3686 38.4596 12.6647 38.8577C13.0222 39.338 13.3087 39.8692 13.514 40.4351C13.8218 41.2833 13.9396 42.1887 13.8592 43.0874C13.7788 43.9862 13.5021 44.8563 13.0487 45.6364C12.7462 46.1568 12.37 46.6287 11.9329 47.038C11.5708 47.3771 11.0056 47.2719 10.7226 46.8644C10.4396 46.4569 10.5493 45.9024 10.8904 45.5422C11.122 45.2977 11.3252 45.0264 11.4955 44.7335C11.8168 44.1808 12.0128 43.5642 12.0698 42.9273C12.1268 42.2905 12.0433 41.6489 11.8252 41.0479C11.7096 40.7294 11.5577 40.4264 11.3732 40.1447C11.1014 39.7297 11.092 39.1645 11.4428 38.8137Z" fill="#4570EE"/>
</svg>
