<svg width="81" height="81" viewBox="0 0 81 81" fill="none" xmlns="http://www.w3.org/2000/svg">
    <path d="M27.3848 80.4979C26.5062 80.2851 25.6048 80.1391 24.7534 79.8491C20.5986 78.4369 17.6417 75.8251 16.5649 71.4214C16.375 70.6475 16.3374 69.836 16.2227 68.9911C14.1421 68.5572 12.1681 67.777 10.5049 66.3856C9.71402 65.7223 9.01078 64.9421 8.33675 64.1556C7.79628 63.5256 7.88392 62.7872 8.43483 62.3658C9.01495 61.9214 9.65977 62.0299 10.1898 62.7204C11.8342 64.8628 14.0295 66.0769 16.496 66.6026C17.2222 65.4928 17.8545 64.4289 18.5932 63.4464C18.8186 63.148 19.3403 62.9102 19.7201 62.9207C20.5923 62.9415 21.1224 64.068 20.5381 64.7189C18.7789 66.6777 18.2948 68.916 18.9897 71.388C19.7242 73.9977 21.5022 75.7667 23.8832 76.9599C28.6514 79.3485 34.8053 78.0217 37.7581 73.9748C38.2464 73.3072 38.741 72.6418 39.1708 71.9367C39.3148 71.6989 39.2981 71.3421 39.2981 71.0397C39.3044 54.5639 39.3023 38.0881 39.3044 21.6123C39.3044 21.3265 39.2856 21.0365 39.3274 20.7549C39.4254 20.0748 39.8303 19.6367 40.5189 19.643C41.2054 19.6493 41.6353 20.0915 41.6875 20.7736C41.7438 21.4975 41.7125 22.2297 41.7146 22.9578C41.7167 23.8902 41.7146 24.8227 41.7146 25.8407C43.7179 25.9555 45.6628 26.0869 47.5096 25.2963C49.252 24.5515 49.8342 23.012 50.0137 21.2827C50.0346 21.074 49.6965 20.7611 49.4544 20.6047C48.1335 19.7431 47.495 18.1786 47.8914 16.6683C48.265 15.2435 49.5922 14.1712 51.0717 14.1003C52.7015 14.021 54.0516 14.893 54.6067 16.3846C55.2014 17.9846 54.59 19.7807 53.0708 20.6151C52.5596 20.8967 52.4072 21.2117 52.3571 21.7583C52.0128 25.3818 49.5066 27.8475 45.8485 28.1583C44.5088 28.2731 43.1607 28.296 41.7647 28.3649V35.3303C43.0397 35.3303 44.3085 35.3678 45.5731 35.324C48.6114 35.2197 51.6727 35.2301 54.6296 34.4145C55.7127 34.1162 56.7894 33.6489 57.7473 33.0585C59.2956 32.1052 59.9321 30.5344 60.1074 28.7821C60.1262 28.5881 59.8236 28.3023 59.6045 28.1583C58.415 27.3782 57.789 26.2892 57.8808 24.877C57.9685 23.5294 58.6759 22.526 59.8987 21.9377C61.5953 21.1199 63.6445 21.8167 64.5209 23.4793C65.3807 25.1064 64.8277 27.1716 63.2188 28.1083C62.7472 28.3816 62.5364 28.6653 62.4613 29.216C61.8874 33.4987 59.1537 35.7433 55.1847 36.7446C52.0608 37.5332 48.8618 37.6458 45.6607 37.6959C44.3899 37.7146 43.1169 37.7 41.7814 37.7V45.0535C42.8665 45.0535 43.9266 45.0472 44.9867 45.0535C48.3964 45.0785 51.8021 45.1786 55.1367 46.0005C55.84 46.1737 56.5369 46.3969 57.2047 46.6764C60.2681 47.9614 62.0439 50.2624 62.4717 53.5605C62.5385 54.0757 62.7033 54.3552 63.177 54.616C64.7025 55.463 65.3201 57.3467 64.6795 58.9404C64.0493 60.5092 62.3298 61.4333 60.6813 61.0912C59.0098 60.7428 57.764 59.1532 57.8766 57.4552C57.9601 56.2035 58.5444 55.2147 59.6441 54.5993C60.0448 54.3761 60.1742 54.1863 60.1032 53.7044C59.7506 51.2449 58.3754 49.6574 56.0966 48.7729C53.9076 47.9239 51.5996 47.7069 49.2938 47.5693C47.0087 47.4316 44.7154 47.4399 42.4262 47.3878C42.2238 47.3836 42.0214 47.3878 41.7689 47.3878V54.7349C42.8394 54.7349 43.8744 54.7141 44.9074 54.7391C49.2833 54.8371 51.8563 57.1881 52.4156 61.5209C52.4531 61.8192 52.7954 62.153 53.0812 62.3345C54.2728 63.0875 55.0115 64.4873 54.8237 65.7619C54.5983 67.2972 53.6071 68.4258 52.1651 68.7909C50.4853 69.2164 48.7366 68.3549 48.0542 66.7653C47.3885 65.2133 47.929 63.3337 49.3939 62.4555C49.9657 62.1134 50.1076 61.7963 49.9657 61.16C49.4044 58.6275 48.2566 57.5052 45.644 57.2048C44.3878 57.0588 43.1107 57.0734 41.7626 57.0108C41.7438 57.3988 41.7188 57.6742 41.7188 57.9475C41.7167 62.3199 41.7209 66.6923 41.7104 71.0647C41.7104 71.5528 41.7376 71.9742 42.18 72.2996C42.3761 72.4436 42.4888 72.7127 42.6098 72.9422C44.705 76.8848 49.4169 78.4974 53.1313 78.0843C56.3324 77.7276 59.0181 76.428 60.9129 73.7474C62.0001 72.2079 62.4738 70.4848 62.2672 68.5885C62.1253 67.291 62.4529 66.9989 63.7551 66.734C64.9153 66.4983 66.0526 66.1082 67.1669 65.6951C68.0809 65.3572 68.7403 65.4448 69.0596 66.1103C69.381 66.7799 69.0847 67.462 68.2082 67.8292C67.1106 68.2881 65.9796 68.6657 64.7776 69.11C64.692 69.7692 64.6649 70.5786 64.475 71.3484C63.3356 76.0066 60.1804 78.6663 55.744 80.0098C55.0553 80.2184 54.3375 80.3373 53.6342 80.5H50.3538C50.2119 80.4478 50.0721 80.3727 49.926 80.3477C45.98 79.7135 42.8269 77.8549 40.7109 74.392C40.6566 74.3044 40.6504 74.1896 40.6024 74.0207C40.3937 74.3002 40.329 74.3753 40.2768 74.4608C38.5177 77.3625 35.9217 79.1232 32.6956 80.0223C32.0278 80.2079 31.3455 80.3435 30.6714 80.5H27.391L27.3848 80.4979ZM61.3928 26.2809C62.0022 26.2809 62.5322 25.7552 62.5426 25.1377C62.5531 24.491 61.9959 23.9341 61.3574 23.9591C60.748 23.982 60.2222 24.5307 60.2326 25.1335C60.243 25.7322 60.796 26.2809 61.3928 26.2809ZM62.5426 57.5991C62.5301 56.9816 61.9959 56.458 61.3866 56.4622C60.7877 56.4664 60.2389 57.015 60.2305 57.6158C60.2243 58.252 60.8065 58.8153 61.4388 58.7861C62.0502 58.7589 62.5531 58.2166 62.5406 57.5991H62.5426ZM51.3242 16.4534C50.6919 16.4409 50.1911 16.9186 50.1702 17.5528C50.1493 18.2245 50.6564 18.7543 51.3158 18.7439C51.9419 18.7356 52.4343 18.2307 52.4343 17.5986C52.4343 16.9541 51.9606 16.4638 51.3242 16.4534ZM51.3075 64.2432C50.6689 64.2391 50.1827 64.7147 50.1702 65.353C50.1577 66.008 50.6105 66.4941 51.2553 66.5171C51.9273 66.5421 52.4427 66.0414 52.4343 65.3655C52.4281 64.7189 51.9544 64.2453 51.3075 64.2432Z" fill="#4570EE"/>
    <path d="M80.4968 43.17C80.309 43.8104 80.1525 44.4612 79.925 45.0871C78.7794 48.2203 76.557 50.3356 73.5854 51.7312C73.3767 51.8292 73.1639 51.9169 72.9468 52.0128C73.36 52.9057 73.8337 53.7443 74.1467 54.6371C75.1922 57.6306 74.8938 60.5177 73.2933 63.2588C72.8216 64.0641 72.1935 64.3019 71.5633 63.9452C70.8914 63.5655 70.785 62.9042 71.2587 62.0552C73.0554 58.8364 72.6797 55.4215 70.257 52.5781C69.9565 52.2256 69.6539 51.7354 69.6477 51.3056C69.6372 50.6235 70.2194 50.3565 70.8476 50.1833C73.5332 49.4428 75.7264 48.0076 77.1287 45.5356C78.9004 42.4106 78.2201 38.1947 75.741 36.0335C74.5495 36.4194 73.4644 36.8262 72.35 37.112C71.6092 37.3018 71.0249 36.8575 70.8893 36.1816C70.7662 35.5641 71.1731 34.9988 71.8742 34.8131C74.8813 34.0163 76.5611 32.1325 76.6989 29.404C76.8241 26.9591 75.0378 24.4808 72.373 23.5171C71.603 23.2375 70.7683 23.0957 69.9482 22.9955C68.3747 22.8036 67.9845 22.1194 68.7462 20.7593C70.1673 18.2184 69.5371 15.2708 67.1561 13.3725C65.7204 12.2272 64.0509 11.7412 62.2396 11.6411C61.8139 11.6181 61.7075 11.8059 61.5614 12.1834C61.1149 13.3329 60.6453 14.4865 60.0423 15.5587C59.652 16.2534 58.9175 16.3034 58.3603 15.882C57.8053 15.4627 57.7406 14.8348 58.183 14.1589C60.1195 11.1988 59.7564 7.99043 57.2147 5.53929C52.6801 1.1648 45.1177 2.55204 42.4383 7.29368C41.9187 8.21364 41.6829 9.01469 41.7017 10.0035C41.733 11.7203 41.71 13.4392 41.71 15.1561C41.71 15.8507 41.4492 16.3848 40.7334 16.5704C39.9696 16.7665 39.3123 16.1261 39.306 15.154C39.2894 13.0971 39.2935 11.0423 39.306 8.98548C39.3102 8.5036 39.304 8.06761 38.8428 7.75261C38.6633 7.62954 38.5652 7.38129 38.4442 7.18312C35.1388 1.78227 26.7479 1.39844 22.9667 6.48011C22.1069 7.63371 21.5977 8.91247 21.581 10.3748C21.5685 11.3761 21.0301 11.8309 20.0285 11.7454C19.6925 11.7162 19.3565 11.6703 19.0206 11.6411C18.2526 11.5722 17.7894 11.1675 17.7539 10.525C17.7184 9.87832 18.1921 9.4027 18.9872 9.28796C19.0623 9.27753 19.1353 9.26084 19.2209 9.24416C20.3206 4.43784 23.4821 1.74264 28.1398 0.747582C31.9335 -0.0618141 37.2694 0.979136 40.5101 5.87723C43.3899 1.75724 47.3672 -0.0180065 52.2941 0.693344C57.271 1.41304 60.5535 4.21672 61.816 9.25876C64.8377 9.29005 67.5734 10.1996 69.6727 12.5068C71.82 14.864 72.4335 17.6177 71.3922 20.7342C74.4597 21.4665 76.9284 22.9747 78.2911 25.8681C79.6704 28.7969 79.2134 31.5776 77.3374 34.2144C79.0611 35.925 79.9751 38.0424 80.4968 40.3579V43.17Z" fill="#4570EE"/>
    <path d="M9.61777 20.7258C9.0773 19.0965 8.94375 17.4924 9.41953 15.8652C9.99756 13.8876 11.1682 12.3439 12.8397 11.1716C13.5033 10.7043 14.1398 10.7877 14.5655 11.3447C14.9995 11.9121 14.8869 12.6047 14.2087 13.1053C12.7145 14.2068 11.7004 15.5982 11.548 17.4882C11.5 18.0973 11.596 18.7294 11.7004 19.3385C11.8381 20.1521 12.2137 20.6402 13.1569 20.8593C14.1586 21.0908 15.1101 21.6603 15.9991 22.2173C16.6648 22.6345 16.7003 23.373 16.2662 23.9112C15.8343 24.4452 15.1811 24.5078 14.5384 24.0301C12.4015 22.4426 10.1749 22.7513 7.98592 23.8111C5.80107 24.8666 4.43424 26.6022 4.32573 29.1097C4.25478 30.7201 4.9142 32.0865 6.00558 33.2589C6.71299 34.0182 6.69838 34.6274 5.92628 35.3283C0.611279 40.1513 2.5791 47.4797 9.21294 49.8849C9.62612 50.0351 10.0623 50.1248 10.4775 50.2687C11.4353 50.6046 11.7358 51.4912 11.0618 52.2338C9.53013 53.9194 8.66203 55.8427 8.61195 58.1395C8.59734 58.7862 8.00261 59.2534 7.40371 59.2305C6.76516 59.2055 6.29564 58.6923 6.2852 57.9768C6.25807 55.9679 6.8695 54.1447 7.90871 52.4466C7.9734 52.3402 8.03183 52.2276 8.13199 52.0481C4.56571 50.5274 1.88629 48.1493 0.865865 44.3297C-0.167085 40.4558 1.0182 37.1077 3.64335 34.2081C-0.154565 29.0471 2.66257 22.3341 9.62195 20.7237L9.61777 20.7258Z" fill="#4570EE"/>
    <path d="M13.7597 40.5436C13.8265 36.3944 17.6119 31.924 21.7082 31.1521C22.5158 30.9998 23.1272 31.3419 23.2817 32.0324C23.4194 32.6541 23.0187 33.2465 22.2612 33.4572C18.5843 34.4836 16.6708 36.9994 16.1178 40.6771C16.0051 41.4281 15.4584 41.9183 14.8156 41.8516C14.1667 41.7848 13.7472 41.2654 13.7597 40.5415V40.5436Z" fill="#4570EE"/>
    <path d="M26.6897 54.8708C27.3992 54.8728 27.7769 55.3464 27.8625 56.1349C27.9856 57.2885 28.0565 58.4713 28.3904 59.5707C28.9225 61.3251 30.0974 62.633 31.7501 63.4758C32.3594 63.7866 32.7726 64.208 32.5765 64.9507C32.3594 65.7788 31.5811 66.0521 30.6984 65.5994C27.8604 64.1434 26.2598 61.7673 25.6943 58.6799C25.5357 57.8205 25.5295 56.9255 25.5253 56.0473C25.5211 55.3088 26.0073 54.8666 26.6897 54.8687V54.8708Z" fill="#4570EE"/>
    <path d="M32.9773 14.6908C32.8125 16.2866 32.2679 17.6655 31.3058 18.8755C30.2291 20.2272 28.8622 21.1889 27.2846 21.8544C26.5334 22.1714 25.8469 21.9044 25.5881 21.2515C25.3398 20.6278 25.6173 20.0186 26.3477 19.689C28.2633 18.8212 29.8138 17.605 30.419 15.4772C30.5171 15.131 30.5567 14.7659 30.6548 14.4175C30.8426 13.7604 31.3935 13.3891 31.9966 13.5226C32.6414 13.6644 32.9356 14.1171 32.9815 14.6908H32.9773Z" fill="#4570EE"/>
    <path d="M32.6515 40.3494C32.5179 42.7797 31.6582 44.7385 29.4838 45.938C28.7117 46.3636 27.9897 46.2217 27.6537 45.6042C27.3094 44.9701 27.5452 44.3297 28.3277 43.8749C29.5589 43.1615 30.1453 42.0746 30.2308 40.6853C30.2392 40.5559 30.2371 40.4266 30.2434 40.2973C30.2788 39.3794 30.7818 38.7911 31.4996 38.8329C32.2174 38.8746 32.6682 39.4921 32.6536 40.3494H32.6515Z" fill="#4570EE"/>
    <path d="M52.4947 9.20669C52.5155 9.84295 51.9709 10.3895 51.3115 10.3937C50.6583 10.3978 50.17 9.94308 50.1345 9.30057C50.0991 8.65597 50.6207 8.07813 51.2572 8.05101C51.877 8.02598 52.4759 8.58296 52.4947 9.20669Z" fill="#4570EE"/>
    <path d="M57.2252 40.3308C57.9054 40.3475 58.3875 40.8607 58.3583 41.5428C58.3332 42.1562 57.8032 42.6756 57.198 42.6777C56.572 42.6777 55.996 42.1019 56.0044 41.4782C56.0107 40.8398 56.5678 40.3162 57.2252 40.3308Z" fill="#4570EE"/>
    <path d="M65.1215 40.3285C65.8081 40.3118 66.3152 40.7958 66.3235 41.4759C66.3319 42.1267 65.7914 42.6837 65.1549 42.6774C64.5602 42.6733 64.0072 42.1455 63.9717 41.5468C63.9342 40.9189 64.4767 40.3452 65.1236 40.3285H65.1215Z" fill="#4570EE"/>
    <path d="M52.4949 73.7475C52.4907 74.3879 51.9377 74.9094 51.2762 74.8969C50.6251 74.8844 50.1493 74.4129 50.1347 73.7663C50.1201 73.1196 50.6606 72.5563 51.2971 72.5543C51.9252 72.5522 52.5011 73.1238 52.4949 73.7475Z" fill="#4570EE"/>
    <path d="M61.3928 26.2809C60.796 26.2809 60.243 25.7322 60.2326 25.1335C60.2222 24.5286 60.748 23.9799 61.3574 23.9591C61.9959 23.9361 62.5552 24.491 62.5426 25.1377C62.5322 25.7552 62.0022 26.2809 61.3928 26.2809Z" fill="white"/>
    <path d="M62.5426 57.5991C62.5552 58.2145 62.0522 58.7569 61.4408 58.7861C60.8064 58.8153 60.2242 58.2499 60.2325 57.6158C60.2388 57.015 60.7897 56.4664 61.3886 56.4622C61.9979 56.458 62.5301 56.9816 62.5447 57.5991H62.5426Z" fill="white"/>
    <path d="M51.3242 16.4534C51.9606 16.4659 52.4343 16.9541 52.4343 17.5986C52.4343 18.2328 51.9419 18.7356 51.3158 18.7439C50.6564 18.7522 50.1493 18.2245 50.1702 17.5528C50.1911 16.9186 50.6919 16.4409 51.3242 16.4534Z" fill="white"/>
    <path d="M51.307 64.2434C51.9519 64.2476 52.4256 64.719 52.4339 65.3657C52.4422 66.0395 51.9268 66.5423 51.2549 66.5172C50.6101 66.4922 50.1572 66.0061 50.1698 65.3532C50.1823 64.7149 50.6706 64.2392 51.307 64.2434Z" fill="white"/>
</svg>
