<svg width="81" height="81" viewBox="0 0 81 81" fill="none" xmlns="http://www.w3.org/2000/svg">
    <path d="M40.5156 0.5C41.0142 0.869231 41.1706 1.35528 41.1602 1.97484C41.1268 3.81473 41.1518 5.65463 41.1477 7.49661C41.1477 8.44994 40.8035 8.91096 40.1067 8.92556C39.3954 8.93808 38.9969 8.42491 38.9928 7.46115C38.9865 5.67341 38.9469 3.88149 39.0178 2.09583C39.0387 1.55763 39.3829 1.03194 39.579 0.5C39.8919 0.5 40.2027 0.5 40.5156 0.5Z" fill="#4570EE"/>
    <path d="M30.6965 68.6575C30.6965 68.2674 30.6736 67.8753 30.7007 67.4873C30.7842 66.2857 30.7404 65.2468 29.4908 64.4687C28.5166 63.8617 28.2079 62.6747 28.1995 61.5045C28.187 59.9691 28.1829 58.4338 28.2037 56.8985C28.21 56.4687 28.0911 56.1996 27.7114 55.9493C22.0582 52.209 18.5516 46.9939 17.4814 40.3123C15.5393 28.1715 23.3557 17.0904 34.8478 14.4348C47.4496 11.5248 59.678 19.3141 62.4838 31.8909C64.4781 40.8317 60.6543 50.3775 52.9401 55.6135C52.3623 56.0056 52.1808 56.4062 52.2016 57.0654C52.2475 58.4943 52.2142 59.9274 52.2162 61.3584C52.2183 63.1003 51.4736 64.4187 49.9383 65.2406C49.5482 65.4492 49.4501 65.6849 49.4522 66.0896C49.4585 67.9837 49.5503 69.8883 49.3959 71.772C49.0726 75.7209 46.9803 78.4954 43.2817 79.8596C39.5998 81.2177 36.2559 80.3832 33.446 77.6651C31.5393 75.821 30.7049 73.4826 30.684 70.8437C30.6778 70.1157 30.684 69.3877 30.684 68.6575C30.6882 68.6575 30.6924 68.6575 30.6965 68.6575ZM40.2215 63.5676C42.7456 63.5676 45.2697 63.5822 47.7938 63.5613C49.277 63.5488 50.0447 62.7519 50.0509 61.2813C50.0572 59.6938 50.1281 58.1021 50.028 56.5209C49.955 55.3569 50.4076 54.7144 51.3547 54.0614C58.4556 49.1613 61.7015 42.3483 60.598 33.7975C59.0648 21.905 47.5456 13.9571 35.7907 16.4187C23.4121 19.0095 16.1922 32.1746 20.6835 43.9921C22.3669 48.4187 25.2269 51.9024 29.2739 54.3681C30.0895 54.8646 30.4212 55.4341 30.3774 56.3832C30.3085 57.9415 30.3565 59.506 30.3586 61.0664C30.3586 62.8333 31.095 63.5634 32.8827 63.5655C35.3297 63.5697 37.7745 63.5655 40.2215 63.5655V63.5676ZM33.035 72.2038C33.1602 75.1723 36.3435 78.1303 39.5101 78.2721C43.4319 78.4474 46.6653 75.9045 47.1763 72.2038H33.035ZM32.8932 69.9384H47.2431V65.8017H32.8932V69.9384Z" fill="#4570EE"/>
    <path d="M15.1158 10.6173C15.5164 10.8343 15.8293 10.9282 16.0358 11.1284C17.4835 12.5428 18.9166 13.9738 20.3372 15.4153C20.84 15.9263 20.8608 16.5855 20.4499 17.0174C20.0014 17.4888 19.363 17.4742 18.8019 16.9235C17.3771 15.5217 15.9482 14.124 14.5818 12.6658C14.321 12.3884 14.2042 11.8147 14.2814 11.4309C14.344 11.1263 14.8029 10.901 15.1137 10.6153L15.1158 10.6173Z" fill="#4570EE"/>
    <path d="M60.3685 17.4909C60.1078 17.2844 59.6822 17.1133 59.5717 16.8233C59.4465 16.4938 59.4507 15.9138 59.6614 15.6906C61.1571 14.1073 62.7028 12.572 64.2695 11.0575C64.6971 10.6445 65.2478 10.7112 65.6692 11.1368C66.0885 11.5602 66.1511 12.1193 65.7443 12.5407C64.2319 14.1094 62.6799 15.6385 61.1258 17.1655C60.9756 17.3136 60.7127 17.3469 60.3665 17.4909H60.3685Z" fill="#4570EE"/>
    <path d="M72.0442 37.8153C71.0575 37.8153 70.0708 37.8215 69.0861 37.8132C68.2747 37.8048 67.8449 37.4273 67.8449 36.7493C67.8449 36.1172 68.2809 35.6729 69.011 35.6666C71.0345 35.6479 73.0601 35.6479 75.0835 35.6666C75.7949 35.6729 76.2642 36.1423 76.2642 36.7493C76.2642 37.396 75.7886 37.8069 75.0043 37.8132C74.0176 37.8215 73.0329 37.8153 72.0462 37.8153H72.0442Z" fill="#4570EE"/>
    <path d="M8.03578 37.7506C7.07619 37.7506 6.11661 37.7652 5.15703 37.7464C4.30174 37.7297 3.82404 37.3188 3.83238 36.6513C3.84073 35.9775 4.29966 35.6103 5.18414 35.6082C7.10331 35.5999 9.02248 35.5999 10.9416 35.6082C11.8386 35.6124 12.2579 35.9712 12.2517 36.6805C12.2433 37.3626 11.7969 37.7339 10.9145 37.7485C9.95494 37.7631 8.99536 37.7527 8.03578 37.7527V37.7506Z" fill="#4570EE"/>
    <path d="M57.9383 35.602C57.9383 36.0088 57.9612 36.3488 57.9341 36.6826C57.882 37.3417 57.5252 37.7882 56.8535 37.7798C56.1923 37.7715 55.8189 37.3584 55.7959 36.6742C55.725 34.634 55.4329 32.6335 54.5881 30.7603C51.9325 24.8651 47.4016 21.5921 40.9265 21.0726C40.6408 21.0497 40.3529 21.0539 40.0713 21.0205C39.4058 20.9433 38.9886 20.5574 39.0282 19.8919C39.0679 19.2348 39.5059 18.8906 40.1902 18.8885C42.6684 18.8802 45.0569 19.3475 47.2932 20.403C53.7432 23.4507 57.2082 28.6012 57.9404 35.5978L57.9383 35.602Z" fill="#4570EE"/>
</svg>
