<svg width="81" height="81" viewBox="0 0 81 81" fill="none" xmlns="http://www.w3.org/2000/svg">
    <path d="M13.7283 68.6619C13.1472 68.61 12.7046 68.6273 12.2941 68.5234C10.7981 68.1451 9.74719 67.2376 9.43562 65.6995C9.12157 64.1417 9.673 62.8089 10.9465 61.8766C13.7333 59.8366 16.5473 57.8337 19.3762 55.853C20.0117 55.4079 20.4147 54.8812 20.7065 54.1641C21.9553 51.083 23.2411 48.0192 24.5393 44.9579C26.2999 40.8037 29.4527 38.2642 33.7776 37.1489C35.8102 36.6247 36.7276 35.1361 36.1415 33.1183C36.0797 32.9032 35.877 32.7153 35.7113 32.5422C34.4329 31.2143 33.7479 29.6416 33.8023 27.787C33.8394 26.4987 33.743 25.1708 34.0224 23.932C34.7692 20.6432 38.006 18.576 41.4654 19.0136C44.5712 19.4043 47.1132 22.3543 47.1182 25.5739C47.1182 26.6842 47.2022 27.8068 47.0761 28.9047C46.9154 30.3117 46.2304 31.5209 45.2586 32.5595C44.0247 33.8824 44.7616 36.5579 46.5173 36.9684C49.0618 37.5644 51.3392 38.6326 53.2605 40.4229C54.6354 41.7038 55.6665 43.2146 56.3836 44.9555C57.6992 48.1429 59.0221 51.3253 60.3796 54.4929C60.5602 54.9158 60.889 55.3411 61.2599 55.6106C63.9998 57.6086 66.7792 59.5522 69.5215 61.5478C70.0605 61.9385 70.5971 62.4132 70.9483 62.9647C72.5308 65.4473 70.8419 68.5136 67.8845 68.6075C67.7015 68.6125 67.5185 68.6075 67.2119 68.6075C67.3924 68.9413 67.5235 69.196 67.6619 69.4433C70.4191 74.327 66.9127 80.4249 61.3094 80.4595C57.4519 80.4818 53.5919 80.5535 49.7393 80.4274C47.316 80.3482 44.905 79.913 42.4817 79.7103C41.4877 79.6262 40.4714 79.6855 39.4748 79.7696C37.0837 79.9724 34.6999 80.3705 32.3063 80.4323C27.9888 80.5436 23.6689 80.4719 19.349 80.4645C15.6497 80.457 12.3757 77.1262 12.3016 73.4171C12.2669 71.6886 12.7318 70.1555 13.7308 68.6644L13.7283 68.6619ZM45.0954 78.4763C45.2092 78.5505 45.2512 78.6025 45.2957 78.6049C50.6889 78.731 56.082 78.9536 61.4751 78.9412C64.6303 78.9363 67.0734 76.3399 67.0784 73.1945C67.0833 70.6179 65.5799 68.0882 62.1971 67.3093C58.6462 66.4908 55.1027 65.6353 51.5741 64.7228C49.5291 64.1936 48.6068 62.9004 48.6043 60.8232C48.5994 56.1942 48.6043 51.5652 48.6043 46.9362C48.6043 46.4144 48.5153 45.7319 49.225 45.727C49.5637 45.727 50.0533 46.1968 50.224 46.5702C51.6878 49.7601 53.1814 52.9425 54.4821 56.1992C55.2585 58.1403 56.4059 59.5918 58.1591 60.7441C60.9929 62.6061 63.6882 64.6709 66.4676 66.6169C67.8795 67.606 69.744 66.9087 70.0111 65.3088C70.1891 64.248 69.6426 63.4815 68.8093 62.8855C65.9483 60.843 63.0725 58.8203 60.2412 56.7382C59.7516 56.3797 59.3065 55.8357 59.0666 55.2793C57.7906 52.3441 56.5073 49.4089 55.3723 46.4169C53.7254 42.0722 50.6592 39.4659 46.1637 38.4496C44.502 38.0737 43.6019 36.9462 43.2829 35.3265C43.2013 34.916 43.231 34.4858 43.2112 34.1049C42.2864 34.278 41.4085 34.4437 40.501 34.6143V33.1109C40.6865 33.0837 40.8349 33.0639 40.9832 33.0367C43.6266 32.5372 45.1523 31.0906 45.5282 28.4151C45.7013 27.1861 45.6172 25.8855 45.4342 24.6516C45.0954 22.3741 42.8897 20.574 40.5455 20.4899C38.325 20.4107 35.8893 22.1466 35.5233 24.3499C35.2761 25.8434 35.3057 27.4211 35.4764 28.9319C35.5703 29.7553 36.0327 30.7271 36.6509 31.2538C37.6277 32.0872 37.692 33.0243 37.6771 34.1272C37.6425 36.8151 36.7103 37.9625 34.1262 38.6227C30.3157 39.5945 27.5116 41.82 25.9587 45.4921C24.5912 48.724 23.2831 51.9806 21.8811 55.1977C21.6165 55.806 21.1219 56.3871 20.5903 56.7926C18.8247 58.1353 16.9899 59.389 15.1848 60.6823C14.0572 61.4884 12.9074 62.2698 11.8144 63.1229C11.0652 63.7065 10.6819 64.5003 10.9465 65.4869C11.2012 66.434 11.8787 67.0076 12.8035 67.0225C13.4267 67.0324 14.1512 66.8024 14.6655 66.4438C17.9321 64.1763 21.1689 61.8618 24.3786 59.5127C24.8731 59.1516 25.3083 58.5977 25.563 58.0364C27.294 54.2259 28.9557 50.3807 30.6841 46.5702C30.8523 46.1968 31.3444 45.7245 31.6831 45.727C32.3928 45.7319 32.3038 46.4144 32.3038 46.9362C32.3038 51.5652 32.3063 56.1942 32.3038 60.8232C32.3038 62.9004 31.3815 64.1961 29.3389 64.7228C25.8128 65.6353 22.2668 66.476 18.7209 67.3143C15.2738 68.1303 13.6665 70.8182 13.847 73.3849C14.077 76.6539 16.4608 78.961 19.7421 78.9561C25.4765 78.9486 31.2207 78.9462 36.9378 78.5654C41.8536 78.239 46.5148 76.6391 50.9559 74.4853C51.7521 74.0995 52.2591 73.469 52.3407 72.5491C52.5088 70.6624 51.0721 69.562 48.9703 69.9329C47.1231 70.2593 45.271 70.5882 43.4115 70.8231C39.7839 71.2781 36.149 71.1743 32.5165 70.8182C30.966 70.6649 29.4205 70.4918 27.8231 70.3212C27.8627 69.7524 27.8924 69.3123 27.9245 68.8301C28.3004 68.8672 28.5427 68.8919 28.785 68.9141C31.1169 69.1268 33.4462 69.4062 35.783 69.5373C40.2711 69.7895 44.7072 69.3123 49.1063 68.4072C51.1191 67.9918 53.0256 69.0922 53.6784 70.9591C54.3387 72.8533 53.54 74.8587 51.6878 75.7983C50.7012 76.3003 49.675 76.7281 48.6488 77.1411C47.4916 77.6084 46.312 78.0214 45.0905 78.4763H45.0954ZM18.434 65.6995C18.9039 65.6303 19.1066 65.6155 19.3044 65.5685C22.4597 64.8118 25.615 64.0453 28.7727 63.2911C30.2217 62.9449 30.8226 62.2476 30.8276 60.7787C30.8399 57.4454 30.8325 54.1146 30.8276 50.7813C30.8276 50.6329 30.783 50.4846 30.7286 50.1557C29.4082 53.128 28.2114 55.9321 26.9082 58.6868C26.5546 59.4335 25.9883 60.163 25.338 60.665C23.4117 62.1536 21.3939 63.521 19.4132 64.9404C19.1487 65.1308 18.8964 65.3385 18.4316 65.6995H18.434ZM50.2215 50.2571C50.1399 50.3931 50.088 50.4376 50.088 50.4821C50.083 53.9935 50.0657 57.5048 50.0904 61.0161C50.1003 62.25 50.7828 62.982 51.9969 63.2738C53.9603 63.7411 55.9163 64.2282 57.8797 64.6931C59.3163 65.0344 60.7555 65.3558 62.1947 65.6872C60.8569 64.4904 59.5068 63.3652 58.0083 62.4899C55.444 60.9914 53.7699 58.8945 52.7932 56.0928C52.1008 54.1121 51.1067 52.2378 50.2215 50.2571Z" fill="#4570EE"/>
    <path d="M80.4017 40.3413V41.9016H79.0095V40.3413H80.4017Z" fill="#4570EE"/>
    <path d="M0.560843 41.2958H1.91592C1.94807 41.7186 1.98269 42.1588 2.02472 42.7052C1.5277 42.7671 1.09002 42.8215 0.560843 42.8882V41.2958Z" fill="#4570EE"/>
    <path d="M10.9218 13.482C11.3075 13.079 11.5993 12.7748 11.9677 12.3891C12.3238 12.7204 12.6477 13.0221 13.0508 13.3955C12.7071 13.7738 12.3931 14.12 12.0394 14.5082C11.6537 14.1546 11.3223 13.848 10.9242 13.482H10.9218Z" fill="#4570EE"/>
    <path d="M68.2257 11.6868C68.5769 12.1047 68.8687 12.4534 69.2322 12.8861C68.9725 13.1087 68.6337 13.4004 68.206 13.7664C67.9241 13.4474 67.6125 13.0988 67.2589 12.6982C67.5457 12.3965 67.84 12.0899 68.2257 11.6868Z" fill="#4570EE"/>
    <path d="M2.00989 38.3927C1.43373 38.3359 1.01583 38.2938 0.499023 38.2419C0.553424 37.735 0.600407 37.2924 0.654808 36.7706C1.14936 36.8027 1.59446 36.8324 2.12611 36.867C2.08654 37.3913 2.05192 37.8364 2.00989 38.3927Z" fill="#4570EE"/>
    <path d="M79.7216 32.7548C79.1752 32.8587 78.7622 32.9353 78.2652 33.0293C78.1564 32.5694 78.0525 32.1391 77.9314 31.6272C78.4111 31.4962 78.8364 31.3775 79.3582 31.2341C79.4793 31.7435 79.5881 32.1984 79.7216 32.7523V32.7548Z" fill="#4570EE"/>
    <path d="M65.9829 9.66409C65.6269 10.0919 65.3351 10.4381 65.021 10.8139C64.6229 10.4949 64.2718 10.213 63.8613 9.88416C64.1852 9.46874 64.4597 9.11761 64.7787 8.70713C65.1842 9.03106 65.5378 9.31295 65.9805 9.66409H65.9829Z" fill="#4570EE"/>
    <path d="M15.1774 11.4346C14.8089 11.0192 14.5271 10.7002 14.1908 10.3169C14.5889 9.97318 14.9524 9.66162 15.3604 9.31295C15.6843 9.7086 15.9711 10.0548 16.3124 10.4702C15.9143 10.809 15.573 11.0983 15.1799 11.4321L15.1774 11.4346Z" fill="#4570EE"/>
    <path d="M72.291 16.2367C71.8483 16.5755 71.5096 16.8351 71.1016 17.1467C70.8024 16.7758 70.5254 16.4296 70.1842 16.0043C70.5551 15.6878 70.8939 15.3984 71.3241 15.0325C71.6431 15.4306 71.9374 15.7966 72.291 16.2367Z" fill="#4570EE"/>
    <path d="M3.59988 24.9112C3.77544 24.5081 3.95596 24.0977 4.1884 23.566C4.64339 23.7861 5.05881 23.9864 5.46187 24.1817C5.03656 25.7173 5.01183 25.7272 3.5974 24.9112H3.59988Z" fill="#4570EE"/>
    <path d="M0.785865 45.8927C1.3274 45.7962 1.7453 45.7245 2.26705 45.6305C2.36102 46.1078 2.44757 46.543 2.55637 47.0796C2.05934 47.1834 1.62413 47.2749 1.09002 47.3862C0.988632 46.8842 0.899612 46.4466 0.788338 45.8902L0.785865 45.8927Z" fill="#4570EE"/>
    <path d="M30.5531 3.27198C30.427 2.76011 30.3206 2.32985 30.197 1.82788C30.6841 1.69435 31.1119 1.57565 31.6485 1.42729C31.7623 1.89711 31.8636 2.32243 31.9922 2.85655C31.51 2.99503 31.0674 3.12361 30.5531 3.27198Z" fill="#4570EE"/>
    <path d="M48.273 1.22452C48.8021 1.34569 49.2373 1.44707 49.7517 1.56576C49.6354 2.07021 49.5365 2.50294 49.4203 3.00244C48.9357 2.89859 48.5227 2.80957 48.0059 2.70077C48.0974 2.19385 48.1815 1.73144 48.273 1.22452Z" fill="#4570EE"/>
    <path d="M77.6025 55.3386C77.103 55.1408 76.7098 54.985 76.2103 54.7872C76.3809 54.3248 76.5417 53.8921 76.7321 53.3827C77.2266 53.5681 77.6421 53.7239 78.1218 53.902C77.9437 54.394 77.7904 54.8144 77.6 55.3411L77.6025 55.3386Z" fill="#4570EE"/>
    <path d="M4.92528 58.8623C5.37285 58.6249 5.77097 58.4148 6.25069 58.1625C6.49796 58.6126 6.7131 59.0058 6.96037 59.4583C6.54 59.7031 6.15178 59.9281 5.66711 60.2125C5.41242 59.7476 5.18492 59.3346 4.92776 58.8648L4.92528 58.8623Z" fill="#4570EE"/>
    <path d="M45.088 2.23341C44.5366 2.17407 44.1187 2.12708 43.6143 2.07268C43.6637 1.5806 43.7082 1.14045 43.7577 0.638475C44.2868 0.670621 44.7344 0.697822 45.276 0.729968C45.2117 1.2542 45.1548 1.69682 45.088 2.23588V2.23341Z" fill="#4570EE"/>
    <path d="M78.0946 26.882C78.28 27.4483 78.4111 27.8464 78.5669 28.3261C78.0995 28.4769 77.6742 28.6129 77.1747 28.7737C77.014 28.336 76.8582 27.9181 76.6678 27.4013C77.1549 27.2232 77.5926 27.065 78.0946 26.882Z" fill="#4570EE"/>
    <path d="M60.2189 7.43612C60.4959 6.97124 60.7159 6.60527 60.9954 6.13544C61.4281 6.40498 61.8287 6.65473 62.2936 6.94157C62.0413 7.34463 61.8188 7.70071 61.5122 8.19032C61.1017 7.95046 60.706 7.72049 60.2189 7.43612Z" fill="#4570EE"/>
    <path d="M9.25758 17.9132C8.80753 17.5868 8.44651 17.3247 8.04097 17.0329C8.3476 16.62 8.6196 16.259 8.96332 15.7966C9.35154 16.1007 9.71999 16.3876 10.1428 16.7189C9.8461 17.122 9.57904 17.4805 9.25758 17.9132Z" fill="#4570EE"/>
    <path d="M72.7633 19.5379C73.2133 19.2485 73.5867 19.0087 74.0293 18.7218C74.3088 19.1793 74.5536 19.5799 74.828 20.0275C74.3829 20.2921 73.9997 20.5171 73.5595 20.7792C73.29 20.3588 73.0649 20.0077 72.7657 19.5379H72.7633Z" fill="#4570EE"/>
    <path d="M7.64533 20.3291C7.36096 20.8064 7.14089 21.1724 6.87877 21.6125C6.44851 21.3702 6.06028 21.1501 5.58057 20.8806C5.84021 20.438 6.08007 20.0275 6.35454 19.5576C6.7947 19.8222 7.18045 20.0497 7.64533 20.3291Z" fill="#4570EE"/>
    <path d="M2.05192 29.2732C2.21018 28.7489 2.33382 28.3483 2.48713 27.8365C2.94707 27.975 3.36496 28.1035 3.88672 28.2593C3.75319 28.7514 3.63202 29.1965 3.49108 29.7158C2.9891 29.56 2.56626 29.4289 2.05192 29.2707V29.2732Z" fill="#4570EE"/>
    <path d="M1.01336 33.7217C1.12711 33.1876 1.21365 32.7746 1.31751 32.2726C1.79723 32.3567 2.23244 32.4334 2.75172 32.5249C2.6627 33.0491 2.58604 33.4843 2.49702 34.0036C1.97527 33.9047 1.53759 33.8206 1.01336 33.7217Z" fill="#4570EE"/>
    <path d="M80.011 46.5331C79.5115 46.4614 79.096 46.3996 78.5792 46.3254C78.6089 45.8679 78.6361 45.4278 78.6732 44.8912C79.1653 44.9184 79.5856 44.9406 80.142 44.9703C80.0975 45.497 80.0555 45.9817 80.011 46.5331Z" fill="#4570EE"/>
    <path d="M79.0565 51.0286C78.5125 50.8629 78.1119 50.7418 77.6346 50.5959C77.7434 50.126 77.8423 49.6958 77.9586 49.1889C78.4408 49.2952 78.871 49.3891 79.3928 49.5029C79.2766 50.0271 79.1752 50.4871 79.0565 51.0261V51.0286Z" fill="#4570EE"/>
    <path d="M3.52817 51.4143C2.99652 51.5652 2.59099 51.6789 2.09149 51.8199C1.95548 51.3204 1.84174 50.8901 1.69584 50.3535C2.17309 50.2274 2.60088 50.1161 3.13747 49.9752C3.26605 50.45 3.38227 50.8753 3.52817 51.4168V51.4143Z" fill="#4570EE"/>
    <path d="M76.3562 58.1106C76.1213 58.573 75.9185 58.9761 75.6712 59.4632C75.2212 59.2333 74.8231 59.0305 74.3533 58.7882C74.5709 58.3431 74.7662 57.9474 75.0184 57.4331C75.4784 57.6655 75.8963 57.8757 76.3562 58.1081V58.1106Z" fill="#4570EE"/>
    <path d="M76.2845 22.6783C76.5194 23.1704 76.7148 23.5759 76.9472 24.0606C76.5046 24.2609 76.104 24.4438 75.6045 24.6738C75.3894 24.2361 75.194 23.843 74.9566 23.3608C75.4042 23.1308 75.7974 22.9305 76.2845 22.6808V22.6783Z" fill="#4570EE"/>
    <path d="M39.2498 0.5H40.6642V1.90453H39.2498V0.5Z" fill="#4570EE"/>
    <path d="M22.4078 6.46185C22.1531 5.99697 21.9404 5.60627 21.6882 5.14386C22.1457 4.90648 22.5413 4.69876 23.0433 4.43912C23.2609 4.86691 23.4587 5.25761 23.7109 5.75464C23.2683 5.9945 22.8652 6.21457 22.4102 6.46432L22.4078 6.46185Z" fill="#4570EE"/>
    <path d="M56.9425 4.00639C57.4395 4.24625 57.845 4.4416 58.3272 4.67404C58.1047 5.13644 57.9118 5.53951 57.6843 6.01181C57.2219 5.7942 56.8188 5.60627 56.3317 5.3763C56.5295 4.92873 56.7125 4.5232 56.9425 4.00639Z" fill="#4570EE"/>
    <path d="M25.8202 3.22994C26.3147 3.04695 26.7351 2.89117 27.247 2.70077C27.4151 3.15823 27.5759 3.59591 27.7564 4.08799C27.2915 4.27345 26.9033 4.42676 26.4087 4.62458C26.2109 4.15475 26.0304 3.72697 25.8202 3.22994Z" fill="#4570EE"/>
    <path d="M53.6463 4.25861C53.1567 4.09294 52.7388 3.95446 52.2442 3.78631C52.3975 3.2967 52.5286 2.87633 52.6819 2.38425C53.1913 2.54498 53.6364 2.68593 54.1483 2.84666C53.9677 3.35358 53.8218 3.76653 53.6463 4.25614V4.25861Z" fill="#4570EE"/>
    <path d="M3.05587 54.6957C3.56773 54.5028 3.98563 54.3446 4.45546 54.1665C4.64091 54.6289 4.80659 55.0444 5.00194 55.534C4.52717 55.7318 4.12411 55.9024 3.6345 56.1077C3.43668 55.623 3.26605 55.2125 3.0534 54.6957H3.05587Z" fill="#4570EE"/>
    <path d="M34.8384 2.35705C34.779 1.83777 34.7296 1.4174 34.6727 0.920371C35.1524 0.836297 35.5951 0.757168 36.1218 0.665676C36.1959 1.15281 36.2652 1.59296 36.3517 2.16417C35.8374 2.23094 35.3725 2.29029 34.8384 2.35705Z" fill="#4570EE"/>
    <path d="M17.7886 7.50536C18.2263 7.21852 18.6022 6.97124 19.0596 6.66709C19.3292 7.08499 19.569 7.4559 19.8608 7.90595C19.4454 8.19279 19.0794 8.44254 18.6442 8.74174C18.345 8.31148 18.0928 7.94304 17.7886 7.50289V7.50536Z" fill="#4570EE"/>
    <path d="M78.829 37.3542C78.7894 36.872 78.7573 36.4541 78.7128 35.9125C79.1999 35.8631 79.6376 35.8211 80.2014 35.7642C80.231 36.281 80.2582 36.7261 80.2904 37.28C79.7983 37.3047 79.3557 37.327 78.829 37.3517V37.3542Z" fill="#4570EE"/>
</svg>
