<svg width="40" height="40" viewBox="0 0 40 40" fill="none" xmlns="http://www.w3.org/2000/svg">
    <path d="M6.61417 34.081C6.32362 34.055 6.10231 34.0637 5.89707 34.0117C5.14906 33.8226 4.62359 33.3688 4.46781 32.5998C4.31079 31.8208 4.5865 31.1544 5.22324 30.6883C6.61665 29.6683 8.02365 28.6668 9.43808 27.6765C9.75583 27.4539 9.95736 27.1906 10.1033 26.832C10.7276 25.2915 11.3705 23.7596 12.0197 22.229C12.9 20.1518 14.4763 18.8821 16.6388 18.3245C17.6551 18.0624 18.1138 17.3181 17.8208 16.3092C17.7899 16.2016 17.6885 16.1076 17.6056 16.0211C16.9664 15.3571 16.6239 14.5708 16.6511 13.6435C16.6697 12.9994 16.6215 12.3354 16.7612 11.716C17.1346 10.0716 18.753 9.03798 20.4827 9.25682C22.0356 9.45217 23.3066 10.9272 23.3091 12.5369C23.3091 13.0921 23.3511 13.6534 23.2881 14.2024C23.2077 14.9059 22.8652 15.5105 22.3793 16.0297C21.7624 16.6912 22.1308 18.029 23.0086 18.2342C24.2809 18.5322 25.4196 19.0663 26.3803 19.9614C27.0677 20.6019 27.5833 21.3573 27.9418 22.2277C28.5996 23.8214 29.261 25.4127 29.9398 26.9965C30.0301 27.2079 30.1945 27.4206 30.38 27.5553C31.7499 28.5543 33.1396 29.5261 34.5107 30.5239C34.7803 30.7192 35.0486 30.9566 35.2241 31.2323C36.0154 32.4737 35.171 34.0068 33.6922 34.0538C33.6008 34.0562 33.5093 34.0538 33.356 34.0538C33.4462 34.2207 33.5117 34.348 33.581 34.4717C34.9595 36.9135 33.2064 39.9624 30.4047 39.9798C28.4759 39.9909 26.5459 40.0267 24.6197 39.9637C23.408 39.9241 22.2025 39.7065 20.9909 39.6051C20.4938 39.5631 19.9857 39.5928 19.4874 39.6348C18.2918 39.7362 17.1 39.9352 15.9031 39.9662C13.7444 40.0218 11.5844 39.9859 9.42448 39.9822C7.57484 39.9785 5.93787 38.3131 5.90078 36.4585C5.88347 35.5943 6.11591 34.8277 6.61541 34.0822L6.61417 34.081ZM22.2977 38.9882C22.3546 39.0253 22.3756 39.0512 22.3979 39.0525C25.0944 39.1155 27.791 39.2268 30.4875 39.2206C32.0652 39.2181 33.2867 37.9199 33.2892 36.3473C33.2917 35.0589 32.5399 33.7941 30.8486 33.4047C29.0731 32.9954 27.3014 32.5676 25.5371 32.1114C24.5146 31.8468 24.0534 31.2002 24.0522 30.1616C24.0497 27.8471 24.0522 25.5326 24.0522 23.2181C24.0522 22.9572 24.0076 22.616 24.3625 22.6135C24.5319 22.6135 24.7767 22.8484 24.862 23.0351C25.5939 24.63 26.3407 26.2213 26.991 27.8496C27.3793 28.8201 27.9529 29.5459 28.8295 30.1221C30.2464 31.0531 31.5941 32.0854 32.9838 33.0585C33.6898 33.553 34.622 33.2044 34.7555 32.4044C34.8446 31.874 34.5713 31.4907 34.1547 31.1928C32.7242 30.1715 31.2862 29.1601 29.8706 28.1191C29.6258 27.9398 29.4032 27.6678 29.2833 27.3896C28.6453 25.9221 28.0036 24.4545 27.4361 22.9584C26.6127 20.7861 25.0796 19.483 22.8318 18.9748C22.001 18.7869 21.5509 18.2231 21.3915 17.4132C21.3507 17.208 21.3655 16.9929 21.3556 16.8025C20.8932 16.889 20.4543 16.9719 20.0005 17.0572V16.3055C20.0932 16.2919 20.1674 16.282 20.2416 16.2684C21.5633 16.0186 22.3262 15.2953 22.5141 13.9576C22.6006 13.3431 22.5586 12.6927 22.4671 12.0758C22.2977 10.9371 21.1949 10.037 20.0228 9.99494C18.9125 9.95537 17.6947 10.8233 17.5117 11.9249C17.388 12.6717 17.4029 13.4605 17.4882 14.216C17.5352 14.6277 17.7664 15.1136 18.0755 15.3769C18.5638 15.7936 18.596 16.2622 18.5886 16.8136C18.5713 18.1576 18.1051 18.7312 16.8131 19.0614C14.9078 19.5473 13.5058 20.66 12.7293 22.496C12.0456 24.112 11.3916 25.7403 10.6905 27.3488C10.5582 27.653 10.311 27.9435 10.0451 28.1463C9.16236 28.8177 8.24497 29.4445 7.3424 30.0911C6.77861 30.4942 6.20369 30.8849 5.65721 31.3115C5.28259 31.6032 5.09095 32.0001 5.22324 32.4934C5.35059 32.967 5.68936 33.2538 6.15177 33.2612C6.46333 33.2662 6.8256 33.1512 7.08276 32.9719C8.71603 31.8382 10.3345 30.6809 11.9393 29.5063C12.1866 29.3258 12.4042 29.0489 12.5315 28.7682C13.397 26.8629 14.2278 24.9404 15.0921 23.0351C15.1761 22.8484 15.4222 22.6123 15.5916 22.6135C15.9464 22.616 15.9019 22.9572 15.9019 23.2181C15.9019 25.5326 15.9031 27.8471 15.9019 30.1616C15.9019 31.2002 15.4407 31.848 14.4195 32.1114C12.6564 32.5676 10.8834 32.988 9.11044 33.4071C7.38691 33.8151 6.58326 35.1591 6.67352 36.4425C6.7885 38.077 7.98038 39.2305 9.62106 39.228C12.4882 39.2243 15.3604 39.2231 18.2189 39.0327C20.6768 38.8695 23.0074 38.0695 25.228 36.9926C25.6261 36.7998 25.8795 36.4845 25.9203 36.0246C26.0044 35.0812 25.2861 34.531 24.2351 34.7165C23.3116 34.8797 22.3855 35.0441 21.4557 35.1616C19.642 35.3891 17.8245 35.3371 16.0082 35.1591C15.233 35.0824 14.4603 34.9959 13.6616 34.9106C13.6814 34.6262 13.6962 34.4061 13.7123 34.165C13.9002 34.1836 14.0214 34.1959 14.1425 34.2071C15.3084 34.3134 16.4731 34.4531 17.6415 34.5186C19.8855 34.6448 22.1036 34.4061 24.3031 33.9536C25.3096 33.7459 26.2628 34.2961 26.5892 35.2296C26.9193 36.1766 26.52 37.1793 25.5939 37.6492C25.1006 37.9002 24.5875 38.1141 24.0744 38.3205C23.4958 38.5542 22.906 38.7607 22.2952 38.9882H22.2977ZM8.96701 32.5998C9.20193 32.5652 9.30331 32.5577 9.40222 32.5342C10.9798 32.1559 12.5575 31.7726 14.1363 31.3955C14.8609 31.2224 15.1613 30.8738 15.1638 30.1394C15.17 28.4727 15.1663 26.8073 15.1638 25.1407C15.1638 25.0665 15.1415 24.9923 15.1143 24.8279C14.4541 26.314 13.8557 27.716 13.2041 29.0934C13.0273 29.4668 12.7442 29.8315 12.419 30.0825C11.4559 30.8268 10.447 31.5105 9.45662 32.2202C9.32433 32.3154 9.19822 32.4193 8.96578 32.5998H8.96701ZM24.8607 24.8785C24.8199 24.9465 24.794 24.9688 24.794 24.9911C24.7915 26.7467 24.7829 28.5024 24.7952 30.2581C24.8002 30.875 25.1414 31.241 25.7485 31.3869C26.7302 31.6206 27.7081 31.8641 28.6898 32.0966C29.4082 32.2672 30.1277 32.4279 30.8473 32.5936C30.1784 31.9952 29.5034 31.4326 28.7541 30.9949C27.472 30.2457 26.635 29.1972 26.1466 27.7964C25.8004 26.8061 25.3034 25.8689 24.8607 24.8785Z" fill="#4570EE"/>
    <path d="M39.9508 19.9206V20.7008H39.2547V19.9206H39.9508Z" fill="#4570EE"/>
    <path d="M0.0304214 20.3979H0.70796C0.724033 20.6093 0.741343 20.8294 0.762361 21.1026C0.513848 21.1335 0.295008 21.1607 0.0304214 21.1941V20.3979Z" fill="#4570EE"/>
    <path d="M5.21088 6.49102C5.40375 6.28949 5.54964 6.13742 5.73387 5.94454C5.91191 6.11022 6.07387 6.26105 6.2754 6.44775C6.10355 6.63692 5.94653 6.81001 5.76972 7.00412C5.57685 6.82732 5.41117 6.67401 5.21211 6.49102H5.21088Z" fill="#4570EE"/>
    <path d="M33.8629 5.59341C34.0384 5.80236 34.1843 5.97669 34.3661 6.19305C34.2363 6.30433 34.0669 6.45022 33.853 6.63321C33.712 6.47371 33.5562 6.29938 33.3794 6.09909C33.5229 5.94825 33.67 5.79494 33.8629 5.59341Z" fill="#4570EE"/>
    <path d="M0.754943 18.9464C0.466865 18.9179 0.257916 18.8969 -0.000488281 18.871C0.0267122 18.6175 0.0502034 18.3962 0.0774039 18.1353C0.324681 18.1514 0.547231 18.1662 0.813053 18.1835C0.793271 18.4456 0.775962 18.6682 0.754943 18.9464Z" fill="#4570EE"/>
    <path d="M39.6108 16.1274C39.3376 16.1793 39.1311 16.2177 38.8826 16.2647C38.8282 16.0347 38.7763 15.8196 38.7157 15.5636C38.9555 15.4981 39.1682 15.4387 39.4291 15.367C39.4897 15.6217 39.5441 15.8492 39.6108 16.1262V16.1274Z" fill="#4570EE"/>
    <path d="M32.7415 4.58204C32.5634 4.79594 32.4175 4.96903 32.2605 5.15696C32.0615 4.99747 31.8859 4.85652 31.6806 4.69208C31.8426 4.48437 31.9799 4.3088 32.1394 4.10356C32.3421 4.26553 32.5189 4.40648 32.7402 4.58204H32.7415Z" fill="#4570EE"/>
    <path d="M7.3387 5.4673C7.15447 5.25958 7.01353 5.10009 6.84538 4.90845C7.04444 4.73659 7.22618 4.58081 7.43019 4.40648C7.59215 4.6043 7.73557 4.77739 7.9062 4.98511C7.70714 5.15449 7.53652 5.29915 7.33993 5.46606L7.3387 5.4673Z" fill="#4570EE"/>
    <path d="M35.8955 7.86836C35.6742 8.03774 35.5048 8.16756 35.3008 8.32335C35.1512 8.13789 35.0127 7.96479 34.8421 7.75214C35.0275 7.59388 35.1969 7.44922 35.4121 7.26624C35.5716 7.46529 35.7187 7.64828 35.8955 7.86836Z" fill="#4570EE"/>
    <path d="M1.54994 12.2056C1.63772 12.0041 1.72798 11.7988 1.8442 11.533C2.07169 11.643 2.27941 11.7432 2.48094 11.8409C2.26828 12.6087 2.25591 12.6136 1.5487 12.2056H1.54994Z" fill="#4570EE"/>
    <path d="M0.142932 22.6963C0.413701 22.6481 0.62265 22.6123 0.883527 22.5653C0.93051 22.8039 0.973783 23.0215 1.02818 23.2898C0.779671 23.3417 0.562067 23.3875 0.295008 23.4431C0.244316 23.1921 0.199806 22.9733 0.144169 22.6951L0.142932 22.6963Z" fill="#4570EE"/>
    <path d="M15.0265 1.38599C14.9635 1.13006 14.9103 0.914925 14.8485 0.663939C15.0921 0.597174 15.306 0.537827 15.5743 0.463644C15.6311 0.698557 15.6818 0.911216 15.7461 1.17828C15.505 1.24751 15.2837 1.31181 15.0265 1.38599Z" fill="#4570EE"/>
    <path d="M23.8865 0.362261C24.1511 0.422844 24.3687 0.473536 24.6258 0.532882C24.5677 0.785105 24.5183 1.00147 24.4602 1.25122C24.2178 1.19929 24.0114 1.15478 23.7529 1.10038C23.7987 0.846924 23.8407 0.61572 23.8865 0.362261Z" fill="#4570EE"/>
    <path d="M38.5512 27.4193C38.3015 27.3204 38.1049 27.2425 37.8552 27.1436C37.9405 26.9124 38.0208 26.696 38.116 26.4413C38.3633 26.5341 38.571 26.612 38.8109 26.701C38.7219 26.947 38.6452 27.1572 38.55 27.4206L38.5512 27.4193Z" fill="#4570EE"/>
    <path d="M2.21264 29.1812C2.43643 29.0625 2.63548 28.9574 2.87534 28.8313C2.99898 29.0563 3.10655 29.2529 3.23019 29.4791C3.02 29.6015 2.82589 29.7141 2.58356 29.8562C2.45621 29.6238 2.34246 29.4173 2.21388 29.1824L2.21264 29.1812Z" fill="#4570EE"/>
    <path d="M22.294 0.866706C22.0183 0.837033 21.8093 0.813541 21.5571 0.786341C21.5819 0.5403 21.6041 0.320224 21.6288 0.0692375C21.8934 0.0853105 22.1172 0.0989109 22.388 0.114984C22.3558 0.377098 22.3274 0.59841 22.294 0.867942V0.866706Z" fill="#4570EE"/>
    <path d="M38.7973 13.191C38.89 13.4741 38.9555 13.6732 39.0334 13.913C38.7998 13.9885 38.5871 14.0565 38.3373 14.1368C38.257 13.918 38.1791 13.709 38.0839 13.4506C38.3275 13.3616 38.5463 13.2825 38.7973 13.191Z" fill="#4570EE"/>
    <path d="M29.8595 3.46806C29.9979 3.23562 30.108 3.05264 30.2477 2.81772C30.464 2.95249 30.6643 3.07736 30.8968 3.22078C30.7707 3.42231 30.6594 3.60035 30.5061 3.84516C30.3008 3.72523 30.103 3.61025 29.8595 3.46806Z" fill="#4570EE"/>
    <path d="M4.37879 8.70662C4.15377 8.54342 3.97325 8.41237 3.77049 8.26647C3.9238 8.06 4.0598 7.87948 4.23166 7.64828C4.42577 7.80035 4.60999 7.94378 4.82141 8.10945C4.67305 8.31098 4.53952 8.49026 4.37879 8.70662Z" fill="#4570EE"/>
    <path d="M36.1316 9.51893C36.3567 9.37427 36.5434 9.25434 36.7647 9.11092C36.9044 9.33965 37.0268 9.53995 37.164 9.76373C36.9415 9.89603 36.7498 10.0085 36.5298 10.1396C36.395 9.92941 36.2825 9.75384 36.1329 9.51893H36.1316Z" fill="#4570EE"/>
    <path d="M3.57267 9.91457C3.43048 10.1532 3.32044 10.3362 3.18939 10.5563C2.97425 10.4351 2.78014 10.3251 2.54028 10.1903C2.6701 9.96898 2.79003 9.76373 2.92727 9.52882C3.14735 9.66111 3.34022 9.77486 3.57267 9.91457Z" fill="#4570EE"/>
    <path d="M0.775962 14.3866C0.85509 14.1245 0.91691 13.9242 0.993566 13.6682C1.22353 13.7375 1.43248 13.8018 1.69336 13.8797C1.62659 14.1257 1.56601 14.3483 1.49554 14.6079C1.24455 14.53 1.03313 14.4645 0.775962 14.3853V14.3866Z" fill="#4570EE"/>
    <path d="M0.25668 16.6108C0.313554 16.3438 0.356827 16.1373 0.408755 15.8863C0.648614 15.9284 0.866218 15.9667 1.12586 16.0124C1.08135 16.2745 1.04302 16.4921 0.998511 16.7518C0.737634 16.7023 0.518794 16.6603 0.25668 16.6108Z" fill="#4570EE"/>
    <path d="M39.7555 23.0166C39.5057 22.9807 39.298 22.9498 39.0396 22.9127C39.0545 22.684 39.0681 22.4639 39.0866 22.1956C39.3326 22.2092 39.5428 22.2203 39.821 22.2352C39.7988 22.4985 39.7777 22.7408 39.7555 23.0166Z" fill="#4570EE"/>
    <path d="M39.2782 25.2643C39.0062 25.1815 38.8059 25.1209 38.5673 25.0479C38.6217 24.813 38.6712 24.5979 38.7293 24.3444C38.9704 24.3976 39.1855 24.4446 39.4464 24.5014C39.3883 24.7636 39.3376 24.9935 39.2782 25.2631V25.2643Z" fill="#4570EE"/>
    <path d="M1.51408 25.4572C1.24826 25.5326 1.04549 25.5895 0.795744 25.6599C0.727742 25.4102 0.670869 25.1951 0.597922 24.9268C0.836545 24.8637 1.05044 24.8081 1.31873 24.7376C1.38303 24.975 1.44114 25.1876 1.51408 25.4584V25.4572Z" fill="#4570EE"/>
    <path d="M37.9281 28.8053C37.8106 29.0365 37.7093 29.238 37.5856 29.4816C37.3606 29.3666 37.1615 29.2652 36.9266 29.1441C37.0354 28.9215 37.1331 28.7237 37.2592 28.4665C37.4892 28.5828 37.6981 28.6878 37.9281 28.8041V28.8053Z" fill="#4570EE"/>
    <path d="M37.8923 11.0891C38.0097 11.3352 38.1074 11.5379 38.2236 11.7803C38.0023 11.8804 37.802 11.9719 37.5522 12.0869C37.4447 11.8681 37.347 11.6715 37.2283 11.4304C37.4521 11.3154 37.6487 11.2153 37.8923 11.0904V11.0891Z" fill="#4570EE"/>
    <path d="M19.3749 0H20.0821V0.702267H19.3749V0Z" fill="#4570EE"/>
    <path d="M10.9539 2.98092C10.8265 2.74848 10.7202 2.55314 10.5941 2.32193C10.8228 2.20324 11.0206 2.09938 11.2716 1.96956C11.3804 2.18346 11.4794 2.37881 11.6055 2.62732C11.3841 2.74725 11.1826 2.85729 10.9551 2.98216L10.9539 2.98092Z" fill="#4570EE"/>
    <path d="M28.2212 1.75319C28.4698 1.87312 28.6725 1.9708 28.9136 2.08702C28.8023 2.31822 28.7059 2.51975 28.5922 2.7559C28.361 2.6471 28.1594 2.55314 27.9159 2.43815C28.0148 2.21437 28.1063 2.0116 28.2212 1.75319Z" fill="#4570EE"/>
    <path d="M12.6601 1.36497C12.9074 1.27348 13.1176 1.19558 13.3735 1.10038C13.4576 1.32911 13.5379 1.54795 13.6282 1.794C13.3957 1.88672 13.2016 1.96338 12.9544 2.06229C12.8554 1.82738 12.7652 1.61348 12.6601 1.36497Z" fill="#4570EE"/>
    <path d="M26.5731 1.87931C26.3283 1.79647 26.1194 1.72723 25.8721 1.64316C25.9488 1.39835 26.0143 1.18817 26.091 0.942126C26.3456 1.02249 26.5682 1.09296 26.8241 1.17333C26.7339 1.42679 26.6609 1.63327 26.5731 1.87807V1.87931Z" fill="#4570EE"/>
    <path d="M1.27793 27.0979C1.53387 27.0014 1.74282 26.9223 1.97773 26.8333C2.07046 27.0645 2.15329 27.2722 2.25097 27.517C2.01358 27.6159 1.81205 27.7012 1.56725 27.8038C1.46834 27.5615 1.38303 27.3563 1.2767 27.0979H1.27793Z" fill="#4570EE"/>
    <path d="M17.1692 0.928525C17.1395 0.668885 17.1148 0.458699 17.0864 0.210185C17.3262 0.168148 17.5475 0.128584 17.8109 0.0828378C17.848 0.326406 17.8826 0.546482 17.9259 0.832087C17.6687 0.865469 17.4363 0.895143 17.1692 0.928525Z" fill="#4570EE"/>
    <path d="M8.64432 3.50268C8.86316 3.35926 9.05109 3.23562 9.27982 3.08354C9.41459 3.29249 9.53452 3.47795 9.68041 3.70297C9.4727 3.84639 9.28971 3.97127 9.07211 4.12087C8.9225 3.90574 8.79639 3.72152 8.64432 3.50144V3.50268Z" fill="#4570EE"/>
    <path d="M39.1645 18.4271C39.1447 18.186 39.1286 17.977 39.1064 17.7063C39.3499 17.6815 39.5688 17.6605 39.8507 17.6321C39.8655 17.8905 39.8791 18.113 39.8952 18.39C39.6492 18.4024 39.4278 18.4135 39.1645 18.4258V18.4271Z" fill="#4570EE"/>
</svg>
