<svg width="24" height="25" viewBox="0 0 24 25" fill="none" xmlns="http://www.w3.org/2000/svg">
    <path d="M12 0.687988C18.6289 0.687988 24 6.06057 24 12.688L23.9962 12.993C23.8344 19.4809 18.5255 24.688 12 24.688L11.695 24.6842C5.20713 24.5224 0 19.2134 0 12.688L0.00379986 12.3829C0.165607 5.89512 5.47454 0.687988 12 0.687988ZM18.2918 8.35318C17.9107 7.98674 17.292 7.98411 16.9121 8.34939L10 14.9957L7.09412 12.2016C6.70693 11.8293 6.09027 11.832 5.7082 12.1993L5.6918 12.2151C5.31071 12.5815 5.31126 13.1796 5.69523 13.5488L9.30477 17.0195C9.68723 17.3872 10.3095 17.3904 10.6913 17.0233L18.3087 9.69883C18.6902 9.33203 18.6903 8.73633 18.3082 8.36895L18.2918 8.35318Z" fill="#5E7FE2"/>
</svg>
