<svg width="41" height="40" viewBox="0 0 41 40" fill="none" xmlns="http://www.w3.org/2000/svg">
    <path d="M20.5 0C31.5481 0 40.5 8.9543 40.5 20L40.4937 20.5084C40.224 31.3214 31.3758 40 20.5 40L19.9916 39.9937C9.17855 39.724 0.5 30.8758 0.5 20L0.506333 19.4916C0.776012 8.67855 9.62424 0 20.5 0ZM30.9863 12.7753C30.3512 12.1646 29.3201 12.1602 28.6869 12.769L17.1667 23.8462L12.3235 19.1893C11.6782 18.5688 10.6505 18.5733 10.0137 19.1856L9.98633 19.2119C9.35118 19.8226 9.35211 20.8193 9.99205 21.4347L16.008 27.2192C16.6454 27.8321 17.6825 27.8373 18.3188 27.2255L31.0145 15.0181C31.6503 14.4067 31.6505 13.4139 31.0137 12.8016L30.9863 12.7753Z" fill="#5E7FE2"/>
</svg>
