<svg width="32" height="32" viewBox="0 0 32 32" fill="none" xmlns="http://www.w3.org/2000/svg">
    <path d="M16 0C24.8385 0 32 7.16344 32 16L31.9949 16.4067C31.7792 25.0572 24.7006 32 16 32L15.5933 31.9949C6.94284 31.7792 0 24.7006 0 16L0.00506648 15.5933C0.22081 6.94284 7.29939 0 16 0ZM24.3891 10.2203C23.8809 9.73167 23.056 9.72816 22.5495 10.2152L13.3333 19.0769L9.45882 15.3514C8.94258 14.855 8.12036 14.8586 7.61094 15.3485L7.58906 15.3695C7.08094 15.8581 7.08169 16.6555 7.59364 17.1477L12.4064 21.7753C12.9163 22.2657 13.746 22.2699 14.255 21.7804L24.4116 12.0145C24.9203 11.5254 24.9204 10.7311 24.4109 10.2413L24.3891 10.2203Z" fill="#5E7FE2"/>
</svg>
