<svg width="52" height="59" viewBox="0 0 52 62" fill="none" xmlns="http://www.w3.org/2000/svg">
<g clip-path="url(#clip0_314_30)">
<path d="M51.6684 34.8379C49.2989 41.1418 44.1364 52.1886 27.1723 58.8579C26.5239 59.1128 25.7878 59.1026 25.1448 58.8344C7.03718 51.2826 1.3684 41.1514 0.0492069 34.625C0.014882 34.4552 0 34.2854 0 34.1122V11.1658C0 9.71134 1.11284 8.50075 2.55951 8.34997C6.51523 7.93768 12.0801 7.20267 14.4783 6.3318C17.0027 5.41509 21.7034 2.71342 24.6982 0.896652C25.5958 0.352097 26.7205 0.338202 27.6265 0.868673C30.0887 2.31025 34.0413 4.5771 37.3633 6.3318C40.4638 7.96951 45.3541 8.50902 48.906 8.61052C50.504 8.65618 51.8416 9.92738 51.8416 11.526V33.8727C51.8416 34.2032 51.7847 34.5286 51.6684 34.8379Z" fill="#4EAF51"/>
<path d="M51.6684 34.8379C49.2989 41.1418 44.1364 52.1886 27.1723 58.8579C26.5239 59.1128 25.7878 59.1026 25.1448 58.8344C7.03718 51.2826 1.3684 41.1514 0.0492069 34.625C0.014882 34.4552 0 34.2854 0 34.1122V11.1658C0 9.71134 1.11284 8.50075 2.55951 8.34997C6.51523 7.93768 12.0801 7.20267 14.4783 6.3318C17.0027 5.41509 21.7034 2.71342 24.6982 0.896652C25.5958 0.352097 26.7205 0.338202 27.6265 0.868673C30.0887 2.31025 34.0413 4.5771 37.3633 6.3318C40.4638 7.96951 45.3541 8.50902 48.906 8.61052C50.504 8.65618 51.8416 9.92738 51.8416 11.526V33.8727C51.8416 34.2032 51.7847 34.5286 51.6684 34.8379Z" fill="black" fill-opacity="0.2"/>
<circle cx="25.6509" cy="30.7826" r="14.4585" fill="#FDFDFD"/>
<path d="M18.1895 30.3163L22.1802 34.614C23.2953 35.815 25.1991 35.8049 26.3015 34.5923L33.5808 26.5851" stroke="#4EAF51" stroke-width="2.79843" stroke-linecap="round"/>
<path d="M18.1895 30.3163L22.1802 34.614C23.2953 35.815 25.1991 35.8049 26.3015 34.5923L33.5808 26.5851" stroke="black" stroke-opacity="0.2" stroke-width="2.79843" stroke-linecap="round"/>
</g>
<defs>
<clipPath id="clip0_314_30">
<rect width="51.7709" height="61.099" fill="white"/>
</clipPath>
</defs>
</svg>
