<svg width="28" height="33" viewBox="0 0 28 33" fill="none" xmlns="http://www.w3.org/2000/svg">
    <g clip-path="url(#clip0_313_191)">
        <path d="M27.9255 18.8162C26.6457 22.221 23.8574 28.1874 14.695 31.7896C14.3448 31.9273 13.9472 31.9217 13.5999 31.7769C3.81987 27.6981 0.758127 22.2262 0.04562 18.7012C0.0270808 18.6095 0.019043 18.5178 0.019043 18.4242V6.03075C0.019043 5.24516 0.620098 4.59131 1.40145 4.50988C3.53797 4.2872 6.5436 3.89021 7.83886 3.41985C9.2023 2.92473 11.7412 1.46554 13.3587 0.484288C13.8435 0.19017 14.451 0.182665 14.9403 0.469176C16.2702 1.24778 18.405 2.47213 20.1992 3.41985C21.8738 4.30439 24.5151 4.59578 26.4335 4.6506C27.2966 4.67526 28.019 5.36185 28.019 6.2253V18.2949C28.019 18.4734 27.9883 18.6491 27.9255 18.8162Z" fill="#4EAF51"/>
        <path d="M27.9255 18.8162C26.6457 22.221 23.8574 28.1874 14.695 31.7896C14.3448 31.9273 13.9472 31.9217 13.5999 31.7769C3.81987 27.6981 0.758127 22.2262 0.04562 18.7012C0.0270808 18.6095 0.019043 18.5178 0.019043 18.4242V6.03075C0.019043 5.24516 0.620098 4.59131 1.40145 4.50988C3.53797 4.2872 6.5436 3.89021 7.83886 3.41985C9.2023 2.92473 11.7412 1.46554 13.3587 0.484288C13.8435 0.19017 14.451 0.182665 14.9403 0.469176C16.2702 1.24778 18.405 2.47213 20.1992 3.41985C21.8738 4.30439 24.5151 4.59578 26.4335 4.6506C27.2966 4.67526 28.019 5.36185 28.019 6.2253V18.2949C28.019 18.4734 27.9883 18.6491 27.9255 18.8162Z" fill="black" fill-opacity="0.2"/>
        <circle cx="13.8741" cy="16.6261" r="7.80916" fill="#FAF7FF"/>
        <path d="M9.84351 16.3742L11.9989 18.6954C12.6012 19.344 13.6295 19.3386 14.2249 18.6836L18.1565 14.3589" stroke="#4EAF51" stroke-width="1.51145" stroke-linecap="round"/>
        <path d="M9.84351 16.3742L11.9989 18.6954C12.6012 19.344 13.6295 19.3386 14.2249 18.6836L18.1565 14.3589" stroke="black" stroke-opacity="0.2" stroke-width="1.51145" stroke-linecap="round"/>
    </g>
    <defs>
        <clipPath id="clip0_313_191">
            <rect width="27.9618" height="33" fill="white" transform="translate(0.019043)"/>
        </clipPath>
    </defs>
</svg>
