<svg width="193" height="33" viewBox="0 0 193 33" fill="none" xmlns="http://www.w3.org/2000/svg">
<g clip-path="url(#clip0_207_642)">
<path d="M28.426 18.8162C27.1462 22.221 24.3579 28.1874 15.1955 31.7896C14.8453 31.9273 14.4477 31.9217 14.1004 31.7769C4.32036 27.6981 1.25862 22.2262 0.546108 18.7012C0.527569 18.6095 0.519531 18.5178 0.519531 18.4242V6.03075C0.519531 5.24516 1.12059 4.59131 1.90194 4.50988C4.03845 4.2872 7.04409 3.89021 8.33935 3.41985C9.70279 2.92473 12.2417 1.46554 13.8592 0.484288C14.344 0.19017 14.9515 0.182665 15.4408 0.469176C16.7707 1.24778 18.9055 2.47213 20.6997 3.41985C22.3743 4.30439 25.0156 4.59578 26.934 4.6506C27.7971 4.67526 28.5195 5.36185 28.5195 6.2253V18.2949C28.5195 18.4734 28.4888 18.6491 28.426 18.8162Z" fill="#4EAF51"/>
<path d="M28.426 18.8162C27.1462 22.221 24.3579 28.1874 15.1955 31.7896C14.8453 31.9273 14.4477 31.9217 14.1004 31.7769C4.32036 27.6981 1.25862 22.2262 0.546108 18.7012C0.527569 18.6095 0.519531 18.5178 0.519531 18.4242V6.03075C0.519531 5.24516 1.12059 4.59131 1.90194 4.50988C4.03845 4.2872 7.04409 3.89021 8.33935 3.41985C9.70279 2.92473 12.2417 1.46554 13.8592 0.484288C14.344 0.19017 14.9515 0.182665 15.4408 0.469176C16.7707 1.24778 18.9055 2.47213 20.6997 3.41985C22.3743 4.30439 25.0156 4.59578 26.934 4.6506C27.7971 4.67526 28.5195 5.36185 28.5195 6.2253V18.2949C28.5195 18.4734 28.4888 18.6491 28.426 18.8162Z" fill="black" fill-opacity="0.2"/>
<circle cx="14.3746" cy="16.6259" r="7.80916" fill="#FAF7FF"/>
<path d="M10.3438 16.374L12.4992 18.6953C13.1015 19.3439 14.1297 19.3385 14.7251 18.6835L18.6567 14.3588" stroke="#4EAF51" stroke-width="1.51145" stroke-linecap="round"/>
<path d="M10.3438 16.374L12.4992 18.6953C13.1015 19.3439 14.1297 19.3385 14.7251 18.6835L18.6567 14.3588" stroke="black" stroke-opacity="0.2" stroke-width="1.51145" stroke-linecap="round"/>
</g>
<path d="M37.5752 22.5H38.8877V13.7891H38.9346L42.5361 22.5H43.7236L47.3252 13.7891H47.3721V22.5H48.6846V11.2266H47.0596L43.1533 20.7266H43.1064L39.2002 11.2266H37.5752V22.5ZM54.0283 22.6562C56.2705 22.6562 57.7861 21.0312 57.7861 18.4375V18.4219C57.7861 15.8281 56.2627 14.2188 54.0205 14.2188C51.7783 14.2188 50.2627 15.8359 50.2627 18.4219V18.4375C50.2627 21.0234 51.7705 22.6562 54.0283 22.6562ZM54.0361 21.4531C52.5986 21.4531 51.6533 20.3516 51.6533 18.4375V18.4219C51.6533 16.5234 52.6064 15.4219 54.0205 15.4219C55.458 15.4219 56.3955 16.5156 56.3955 18.4219V18.4375C56.3955 20.3438 55.4658 21.4531 54.0361 21.4531ZM59.1611 22.5H60.5205V17.7188C60.5205 16.3359 61.3564 15.4219 62.6377 15.4219C63.8877 15.4219 64.5049 16.1484 64.5049 17.4688V22.5H65.8643V17.2266C65.8643 15.375 64.833 14.2188 63.0518 14.2188C61.8174 14.2188 60.9893 14.7734 60.5518 15.5312H60.5205V14.375H59.1611V22.5ZM70.9424 22.6562C72.7158 22.6562 74.0439 21.5938 74.3096 20.25L74.3252 20.1719H72.9893L72.9658 20.2422C72.7314 20.9375 72.0049 21.4531 70.9736 21.4531C69.5283 21.4531 68.6064 20.4766 68.5752 18.8047H74.4268V18.3047C74.4268 15.8672 73.0752 14.2188 70.8564 14.2188C68.6377 14.2188 67.2002 15.9453 67.2002 18.4609V18.4688C67.2002 21.0234 68.6064 22.6562 70.9424 22.6562ZM70.8486 15.4219C72.0361 15.4219 72.9111 16.1641 73.0439 17.7422H68.5986C68.7471 16.2266 69.6689 15.4219 70.8486 15.4219ZM76.2705 25.2344C77.7393 25.2344 78.4502 24.5625 79.0283 23.0078L82.2002 14.375H80.7705L78.5205 21.1406H78.4893L76.2471 14.375H74.7939L77.8096 22.5078L77.6455 22.9688C77.3174 23.8906 76.8408 24.1094 75.9814 24.1094C75.8174 24.1094 75.6611 24.0859 75.5439 24.0625V25.1719C75.7158 25.2031 76.0049 25.2344 76.2705 25.2344ZM86.7627 22.5H91.0205C93.4189 22.5 94.8408 21.3203 94.8408 19.3359V19.3203C94.8408 17.8281 93.8564 16.7344 92.2314 16.5469V16.5156C93.3955 16.3516 94.2705 15.2188 94.2705 14.0547V14.0391C94.2705 12.3516 92.9658 11.2266 91.0361 11.2266H86.7627V22.5ZM90.7158 12.4688C92.0752 12.4688 92.8486 13.0781 92.8486 14.1875V14.2031C92.8486 15.4219 91.9424 16.0859 90.2783 16.0859H88.1689V12.4688H90.7158ZM90.6768 17.2969C92.4736 17.2969 93.3955 17.9609 93.3955 19.2656V19.2812C93.3955 20.5781 92.4971 21.2578 90.8096 21.2578H88.1689V17.2969H90.6768ZM98.5986 22.6562C99.6846 22.6562 100.661 22.0703 101.138 21.1797H101.169V22.5H102.528V16.8828C102.528 15.2578 101.325 14.2188 99.4033 14.2188C97.4893 14.2188 96.3252 15.2969 96.208 16.6328L96.2002 16.7188H97.5127L97.5283 16.6484C97.6846 15.9219 98.3408 15.4219 99.3877 15.4219C100.521 15.4219 101.169 16.0234 101.169 17.0156V17.6953L98.8408 17.8281C96.9736 17.9375 95.8955 18.8047 95.8955 20.1875V20.2031C95.8955 21.6797 96.9814 22.6562 98.5986 22.6562ZM97.2861 20.2031V20.1875C97.2861 19.4297 97.9111 18.9453 98.9971 18.8828L101.169 18.75V19.4141C101.169 20.5938 100.185 21.4766 98.9033 21.4766C97.9268 21.4766 97.2861 20.9844 97.2861 20.2031ZM107.622 22.6562C109.458 22.6562 110.794 21.4609 111.013 19.9141L111.021 19.8594H109.685L109.669 19.9219C109.442 20.8281 108.731 21.4531 107.622 21.4531C106.216 21.4531 105.247 20.3359 105.247 18.4453V18.4375C105.247 16.5938 106.192 15.4219 107.606 15.4219C108.802 15.4219 109.458 16.1406 109.661 16.9531L109.677 17.0156H111.005L110.997 16.9531C110.825 15.5625 109.63 14.2188 107.606 14.2188C105.349 14.2188 103.856 15.8594 103.856 18.4219V18.4297C103.856 21.0156 105.317 22.6562 107.622 22.6562ZM112.38 22.5H113.739V19.4375L114.497 18.7109L117.513 22.5H119.091L115.458 17.8828L118.981 14.375H117.333L113.771 17.9609H113.739V11.2266H112.38V22.5ZM128.255 22.6875C131.263 22.6875 133.036 20.8828 133.036 17.8359V16.7656H128.45V18H131.63V18.2031C131.63 20.0938 130.255 21.3906 128.255 21.3906C125.958 21.3906 124.528 19.6406 124.528 16.8047V16.7969C124.528 14.0156 125.935 12.3359 128.255 12.3359C129.841 12.3359 130.935 13.1562 131.458 14.5859L131.489 14.6719H132.966L132.927 14.5234C132.403 12.5312 130.849 11.0391 128.255 11.0391C125.106 11.0391 123.091 13.2734 123.091 16.7969V16.8047C123.091 20.3984 125.106 22.6875 128.255 22.6875ZM137.403 22.6562C138.638 22.6562 139.466 22.1016 139.903 21.3438H139.935V22.5H141.294V14.375H139.935V19.1562C139.935 20.5391 139.099 21.4531 137.817 21.4531C136.567 21.4531 135.95 20.7266 135.95 19.4062V14.375H134.591V19.6484C134.591 21.5 135.622 22.6562 137.403 22.6562ZM145.442 22.6562C146.528 22.6562 147.505 22.0703 147.981 21.1797H148.013V22.5H149.372V16.8828C149.372 15.2578 148.169 14.2188 146.247 14.2188C144.333 14.2188 143.169 15.2969 143.052 16.6328L143.044 16.7188H144.356L144.372 16.6484C144.528 15.9219 145.185 15.4219 146.231 15.4219C147.364 15.4219 148.013 16.0234 148.013 17.0156V17.6953L145.685 17.8281C143.817 17.9375 142.739 18.8047 142.739 20.1875V20.2031C142.739 21.6797 143.825 22.6562 145.442 22.6562ZM144.13 20.2031V20.1875C144.13 19.4297 144.755 18.9453 145.841 18.8828L148.013 18.75V19.4141C148.013 20.5938 147.028 21.4766 145.747 21.4766C144.771 21.4766 144.13 20.9844 144.13 20.2031ZM151.099 22.5H152.458V17.4844C152.458 16.25 153.146 15.5156 154.2 15.5156C154.528 15.5156 154.817 15.5547 154.927 15.5938V14.2734C154.817 14.2578 154.614 14.2188 154.38 14.2188C153.466 14.2188 152.763 14.8125 152.489 15.75H152.458V14.375H151.099V22.5ZM158.255 22.6562C159.341 22.6562 160.317 22.0703 160.794 21.1797H160.825V22.5H162.185V16.8828C162.185 15.2578 160.981 14.2188 159.06 14.2188C157.146 14.2188 155.981 15.2969 155.864 16.6328L155.856 16.7188H157.169L157.185 16.6484C157.341 15.9219 157.997 15.4219 159.044 15.4219C160.177 15.4219 160.825 16.0234 160.825 17.0156V17.6953L158.497 17.8281C156.63 17.9375 155.552 18.8047 155.552 20.1875V20.2031C155.552 21.6797 156.638 22.6562 158.255 22.6562ZM156.942 20.2031V20.1875C156.942 19.4297 157.567 18.9453 158.653 18.8828L160.825 18.75V19.4141C160.825 20.5938 159.841 21.4766 158.56 21.4766C157.583 21.4766 156.942 20.9844 156.942 20.2031ZM163.911 22.5H165.271V17.7188C165.271 16.3359 166.106 15.4219 167.388 15.4219C168.638 15.4219 169.255 16.1484 169.255 17.4688V22.5H170.614V17.2266C170.614 15.375 169.583 14.2188 167.802 14.2188C166.567 14.2188 165.739 14.7734 165.302 15.5312H165.271V14.375H163.911V22.5ZM174.989 22.6562C175.255 22.6562 175.544 22.625 175.716 22.6016V21.5C175.599 21.5078 175.442 21.5312 175.278 21.5312C174.552 21.5312 174.169 21.2891 174.169 20.4219V15.5H175.716V14.375H174.169V12.1797H172.763V14.375H171.575V15.5H172.763V20.4297C172.763 21.9844 173.497 22.6562 174.989 22.6562ZM180.286 22.6562C182.06 22.6562 183.388 21.5938 183.653 20.25L183.669 20.1719H182.333L182.31 20.2422C182.075 20.9375 181.349 21.4531 180.317 21.4531C178.872 21.4531 177.95 20.4766 177.919 18.8047H183.771V18.3047C183.771 15.8672 182.419 14.2188 180.2 14.2188C177.981 14.2188 176.544 15.9453 176.544 18.4609V18.4688C176.544 21.0234 177.95 22.6562 180.286 22.6562ZM180.192 15.4219C181.38 15.4219 182.255 16.1641 182.388 17.7422H177.942C178.091 16.2266 179.013 15.4219 180.192 15.4219ZM188.489 22.6562C190.263 22.6562 191.591 21.5938 191.856 20.25L191.872 20.1719H190.536L190.513 20.2422C190.278 20.9375 189.552 21.4531 188.521 21.4531C187.075 21.4531 186.153 20.4766 186.122 18.8047H191.974V18.3047C191.974 15.8672 190.622 14.2188 188.403 14.2188C186.185 14.2188 184.747 15.9453 184.747 18.4609V18.4688C184.747 21.0234 186.153 22.6562 188.489 22.6562ZM188.396 15.4219C189.583 15.4219 190.458 16.1641 190.591 17.7422H186.146C186.294 16.2266 187.216 15.4219 188.396 15.4219Z" fill="#4EAF51"/>
<path d="M37.5752 22.5H38.8877V13.7891H38.9346L42.5361 22.5H43.7236L47.3252 13.7891H47.3721V22.5H48.6846V11.2266H47.0596L43.1533 20.7266H43.1064L39.2002 11.2266H37.5752V22.5ZM54.0283 22.6562C56.2705 22.6562 57.7861 21.0312 57.7861 18.4375V18.4219C57.7861 15.8281 56.2627 14.2188 54.0205 14.2188C51.7783 14.2188 50.2627 15.8359 50.2627 18.4219V18.4375C50.2627 21.0234 51.7705 22.6562 54.0283 22.6562ZM54.0361 21.4531C52.5986 21.4531 51.6533 20.3516 51.6533 18.4375V18.4219C51.6533 16.5234 52.6064 15.4219 54.0205 15.4219C55.458 15.4219 56.3955 16.5156 56.3955 18.4219V18.4375C56.3955 20.3438 55.4658 21.4531 54.0361 21.4531ZM59.1611 22.5H60.5205V17.7188C60.5205 16.3359 61.3564 15.4219 62.6377 15.4219C63.8877 15.4219 64.5049 16.1484 64.5049 17.4688V22.5H65.8643V17.2266C65.8643 15.375 64.833 14.2188 63.0518 14.2188C61.8174 14.2188 60.9893 14.7734 60.5518 15.5312H60.5205V14.375H59.1611V22.5ZM70.9424 22.6562C72.7158 22.6562 74.0439 21.5938 74.3096 20.25L74.3252 20.1719H72.9893L72.9658 20.2422C72.7314 20.9375 72.0049 21.4531 70.9736 21.4531C69.5283 21.4531 68.6064 20.4766 68.5752 18.8047H74.4268V18.3047C74.4268 15.8672 73.0752 14.2188 70.8564 14.2188C68.6377 14.2188 67.2002 15.9453 67.2002 18.4609V18.4688C67.2002 21.0234 68.6064 22.6562 70.9424 22.6562ZM70.8486 15.4219C72.0361 15.4219 72.9111 16.1641 73.0439 17.7422H68.5986C68.7471 16.2266 69.6689 15.4219 70.8486 15.4219ZM76.2705 25.2344C77.7393 25.2344 78.4502 24.5625 79.0283 23.0078L82.2002 14.375H80.7705L78.5205 21.1406H78.4893L76.2471 14.375H74.7939L77.8096 22.5078L77.6455 22.9688C77.3174 23.8906 76.8408 24.1094 75.9814 24.1094C75.8174 24.1094 75.6611 24.0859 75.5439 24.0625V25.1719C75.7158 25.2031 76.0049 25.2344 76.2705 25.2344ZM86.7627 22.5H91.0205C93.4189 22.5 94.8408 21.3203 94.8408 19.3359V19.3203C94.8408 17.8281 93.8564 16.7344 92.2314 16.5469V16.5156C93.3955 16.3516 94.2705 15.2188 94.2705 14.0547V14.0391C94.2705 12.3516 92.9658 11.2266 91.0361 11.2266H86.7627V22.5ZM90.7158 12.4688C92.0752 12.4688 92.8486 13.0781 92.8486 14.1875V14.2031C92.8486 15.4219 91.9424 16.0859 90.2783 16.0859H88.1689V12.4688H90.7158ZM90.6768 17.2969C92.4736 17.2969 93.3955 17.9609 93.3955 19.2656V19.2812C93.3955 20.5781 92.4971 21.2578 90.8096 21.2578H88.1689V17.2969H90.6768ZM98.5986 22.6562C99.6846 22.6562 100.661 22.0703 101.138 21.1797H101.169V22.5H102.528V16.8828C102.528 15.2578 101.325 14.2188 99.4033 14.2188C97.4893 14.2188 96.3252 15.2969 96.208 16.6328L96.2002 16.7188H97.5127L97.5283 16.6484C97.6846 15.9219 98.3408 15.4219 99.3877 15.4219C100.521 15.4219 101.169 16.0234 101.169 17.0156V17.6953L98.8408 17.8281C96.9736 17.9375 95.8955 18.8047 95.8955 20.1875V20.2031C95.8955 21.6797 96.9814 22.6562 98.5986 22.6562ZM97.2861 20.2031V20.1875C97.2861 19.4297 97.9111 18.9453 98.9971 18.8828L101.169 18.75V19.4141C101.169 20.5938 100.185 21.4766 98.9033 21.4766C97.9268 21.4766 97.2861 20.9844 97.2861 20.2031ZM107.622 22.6562C109.458 22.6562 110.794 21.4609 111.013 19.9141L111.021 19.8594H109.685L109.669 19.9219C109.442 20.8281 108.731 21.4531 107.622 21.4531C106.216 21.4531 105.247 20.3359 105.247 18.4453V18.4375C105.247 16.5938 106.192 15.4219 107.606 15.4219C108.802 15.4219 109.458 16.1406 109.661 16.9531L109.677 17.0156H111.005L110.997 16.9531C110.825 15.5625 109.63 14.2188 107.606 14.2188C105.349 14.2188 103.856 15.8594 103.856 18.4219V18.4297C103.856 21.0156 105.317 22.6562 107.622 22.6562ZM112.38 22.5H113.739V19.4375L114.497 18.7109L117.513 22.5H119.091L115.458 17.8828L118.981 14.375H117.333L113.771 17.9609H113.739V11.2266H112.38V22.5ZM128.255 22.6875C131.263 22.6875 133.036 20.8828 133.036 17.8359V16.7656H128.45V18H131.63V18.2031C131.63 20.0938 130.255 21.3906 128.255 21.3906C125.958 21.3906 124.528 19.6406 124.528 16.8047V16.7969C124.528 14.0156 125.935 12.3359 128.255 12.3359C129.841 12.3359 130.935 13.1562 131.458 14.5859L131.489 14.6719H132.966L132.927 14.5234C132.403 12.5312 130.849 11.0391 128.255 11.0391C125.106 11.0391 123.091 13.2734 123.091 16.7969V16.8047C123.091 20.3984 125.106 22.6875 128.255 22.6875ZM137.403 22.6562C138.638 22.6562 139.466 22.1016 139.903 21.3438H139.935V22.5H141.294V14.375H139.935V19.1562C139.935 20.5391 139.099 21.4531 137.817 21.4531C136.567 21.4531 135.95 20.7266 135.95 19.4062V14.375H134.591V19.6484C134.591 21.5 135.622 22.6562 137.403 22.6562ZM145.442 22.6562C146.528 22.6562 147.505 22.0703 147.981 21.1797H148.013V22.5H149.372V16.8828C149.372 15.2578 148.169 14.2188 146.247 14.2188C144.333 14.2188 143.169 15.2969 143.052 16.6328L143.044 16.7188H144.356L144.372 16.6484C144.528 15.9219 145.185 15.4219 146.231 15.4219C147.364 15.4219 148.013 16.0234 148.013 17.0156V17.6953L145.685 17.8281C143.817 17.9375 142.739 18.8047 142.739 20.1875V20.2031C142.739 21.6797 143.825 22.6562 145.442 22.6562ZM144.13 20.2031V20.1875C144.13 19.4297 144.755 18.9453 145.841 18.8828L148.013 18.75V19.4141C148.013 20.5938 147.028 21.4766 145.747 21.4766C144.771 21.4766 144.13 20.9844 144.13 20.2031ZM151.099 22.5H152.458V17.4844C152.458 16.25 153.146 15.5156 154.2 15.5156C154.528 15.5156 154.817 15.5547 154.927 15.5938V14.2734C154.817 14.2578 154.614 14.2188 154.38 14.2188C153.466 14.2188 152.763 14.8125 152.489 15.75H152.458V14.375H151.099V22.5ZM158.255 22.6562C159.341 22.6562 160.317 22.0703 160.794 21.1797H160.825V22.5H162.185V16.8828C162.185 15.2578 160.981 14.2188 159.06 14.2188C157.146 14.2188 155.981 15.2969 155.864 16.6328L155.856 16.7188H157.169L157.185 16.6484C157.341 15.9219 157.997 15.4219 159.044 15.4219C160.177 15.4219 160.825 16.0234 160.825 17.0156V17.6953L158.497 17.8281C156.63 17.9375 155.552 18.8047 155.552 20.1875V20.2031C155.552 21.6797 156.638 22.6562 158.255 22.6562ZM156.942 20.2031V20.1875C156.942 19.4297 157.567 18.9453 158.653 18.8828L160.825 18.75V19.4141C160.825 20.5938 159.841 21.4766 158.56 21.4766C157.583 21.4766 156.942 20.9844 156.942 20.2031ZM163.911 22.5H165.271V17.7188C165.271 16.3359 166.106 15.4219 167.388 15.4219C168.638 15.4219 169.255 16.1484 169.255 17.4688V22.5H170.614V17.2266C170.614 15.375 169.583 14.2188 167.802 14.2188C166.567 14.2188 165.739 14.7734 165.302 15.5312H165.271V14.375H163.911V22.5ZM174.989 22.6562C175.255 22.6562 175.544 22.625 175.716 22.6016V21.5C175.599 21.5078 175.442 21.5312 175.278 21.5312C174.552 21.5312 174.169 21.2891 174.169 20.4219V15.5H175.716V14.375H174.169V12.1797H172.763V14.375H171.575V15.5H172.763V20.4297C172.763 21.9844 173.497 22.6562 174.989 22.6562ZM180.286 22.6562C182.06 22.6562 183.388 21.5938 183.653 20.25L183.669 20.1719H182.333L182.31 20.2422C182.075 20.9375 181.349 21.4531 180.317 21.4531C178.872 21.4531 177.95 20.4766 177.919 18.8047H183.771V18.3047C183.771 15.8672 182.419 14.2188 180.2 14.2188C177.981 14.2188 176.544 15.9453 176.544 18.4609V18.4688C176.544 21.0234 177.95 22.6562 180.286 22.6562ZM180.192 15.4219C181.38 15.4219 182.255 16.1641 182.388 17.7422H177.942C178.091 16.2266 179.013 15.4219 180.192 15.4219ZM188.489 22.6562C190.263 22.6562 191.591 21.5938 191.856 20.25L191.872 20.1719H190.536L190.513 20.2422C190.278 20.9375 189.552 21.4531 188.521 21.4531C187.075 21.4531 186.153 20.4766 186.122 18.8047H191.974V18.3047C191.974 15.8672 190.622 14.2188 188.403 14.2188C186.185 14.2188 184.747 15.9453 184.747 18.4609V18.4688C184.747 21.0234 186.153 22.6562 188.489 22.6562ZM188.396 15.4219C189.583 15.4219 190.458 16.1641 190.591 17.7422H186.146C186.294 16.2266 187.216 15.4219 188.396 15.4219Z" fill="black" fill-opacity="0.2"/>
<defs>
<clipPath id="clip0_207_642">
<rect width="27.9618" height="33" fill="white" transform="translate(0.519531)"/>
</clipPath>
</defs>
</svg>
