<svg width="148" height="24" viewBox="0 0 148 24" fill="none" xmlns="http://www.w3.org/2000/svg">
    <path d="M10.9834 23.6218H0L4.85168 0.882469H14.1758C16.1881 0.882469 17.779 1.33946 18.9484 2.25345C20.1179 3.15693 20.7026 4.33881 20.7026 5.79908C20.7026 7.25936 20.2232 8.52528 19.2645 9.59685C18.3057 10.6579 17.0625 11.3565 15.5349 11.6927L15.5191 11.803C16.7517 12.0446 17.7368 12.5804 18.4743 13.4104C19.2224 14.2403 19.5964 15.2331 19.5964 16.3887C19.5964 18.5003 18.7904 20.2337 17.1784 21.589C15.577 22.9442 13.512 23.6218 10.9834 23.6218ZM8.86578 4.28628L7.6015 10.1169H11.3627C12.7008 10.1169 13.7859 9.80171 14.6183 9.17137C15.4611 8.53053 15.8825 7.71635 15.8825 6.72882C15.8825 5.94091 15.5875 5.33684 14.9975 4.91661C14.4181 4.49639 13.5752 4.28628 12.469 4.28628H8.86578ZM5.48382 19.9659H10.0826C11.4839 19.9659 12.6112 19.6244 13.4646 18.9416C14.318 18.2482 14.7447 17.3552 14.7447 16.2626C14.7447 15.3697 14.4286 14.6868 13.7965 14.2141C13.1643 13.7308 12.2319 13.4892 10.9993 13.4892H6.89034L5.48382 19.9659Z" fill="#161616"/>
    <path d="M10.9834 23.6218H0L4.85168 0.882469H14.1758C16.1881 0.882469 17.779 1.33946 18.9484 2.25345C20.1179 3.15693 20.7026 4.33881 20.7026 5.79908C20.7026 7.25936 20.2232 8.52528 19.2645 9.59685C18.3057 10.6579 17.0625 11.3565 15.5349 11.6927L15.5191 11.803C16.7517 12.0446 17.7368 12.5804 18.4743 13.4104C19.2224 14.2403 19.5964 15.2331 19.5964 16.3887C19.5964 18.5003 18.7904 20.2337 17.1784 21.589C15.577 22.9442 13.512 23.6218 10.9834 23.6218ZM8.86578 4.28628L7.6015 10.1169H11.3627C12.7008 10.1169 13.7859 9.80171 14.6183 9.17137C15.4611 8.53053 15.8825 7.71635 15.8825 6.72882C15.8825 5.94091 15.5875 5.33684 14.9975 4.91661C14.4181 4.49639 13.5752 4.28628 12.469 4.28628H8.86578ZM5.48382 19.9659H10.0826C11.4839 19.9659 12.6112 19.6244 13.4646 18.9416C14.318 18.2482 14.7447 17.3552 14.7447 16.2626C14.7447 15.3697 14.4286 14.6868 13.7965 14.2141C13.1643 13.7308 12.2319 13.4892 10.9993 13.4892H6.89034L5.48382 19.9659Z" fill="black" fill-opacity="0.2"/>
    <path d="M20.8132 23.6218L24.4322 6.68155H28.794L28.3199 9.04531H28.4147C28.8783 8.23638 29.4894 7.60079 30.2479 7.13854C31.0065 6.66579 31.8652 6.42942 32.8239 6.42942C33.6668 6.42942 34.3832 6.57124 34.9732 6.85489L34.0882 10.9836C33.3507 10.6474 32.5711 10.4793 31.7493 10.4793C29.3682 10.4793 27.8827 11.803 27.2927 14.4504L25.333 23.6218H20.8132Z" fill="#161616"/>
    <path d="M20.8132 23.6218L24.4322 6.68155H28.794L28.3199 9.04531H28.4147C28.8783 8.23638 29.4894 7.60079 30.2479 7.13854C31.0065 6.66579 31.8652 6.42942 32.8239 6.42942C33.6668 6.42942 34.3832 6.57124 34.9732 6.85489L34.0882 10.9836C33.3507 10.6474 32.5711 10.4793 31.7493 10.4793C29.3682 10.4793 27.8827 11.803 27.2927 14.4504L25.333 23.6218H20.8132Z" fill="black" fill-opacity="0.2"/>
    <path d="M40.5993 20.5174C41.5369 20.5174 42.3692 20.2548 43.0962 19.7295C43.8232 19.2042 44.2815 18.5318 44.4711 17.7124L44.7872 16.2784L41.1998 16.4202C40.2305 16.4517 39.4667 16.6619 38.9083 17.0506C38.3499 17.4393 38.0707 17.9593 38.0707 18.6106C38.0707 19.1884 38.3025 19.6507 38.766 19.9974C39.2296 20.3441 39.8407 20.5174 40.5993 20.5174ZM38.7818 23.8897C37.3385 23.8897 36.1216 23.4485 35.1312 22.566C34.1514 21.6835 33.6615 20.5752 33.6615 19.241C33.6615 17.5391 34.3095 16.1944 35.6053 15.2068C36.9118 14.2193 38.7186 13.6835 41.0259 13.5995L45.3877 13.4419L45.5932 12.4176C45.6353 12.239 45.6564 12.0289 45.6564 11.7873C45.6564 11.1884 45.4193 10.7157 44.9452 10.369C44.4711 10.0223 43.8126 9.84898 42.9698 9.84898C42.1269 9.84898 41.4368 10.0223 40.8995 10.369C40.3622 10.7157 40.0145 11.1937 39.8565 11.803H35.5895C35.8951 10.1326 36.7379 8.79842 38.1181 7.80039C39.5088 6.80236 41.2367 6.30335 43.3017 6.30335C45.3245 6.30335 46.9628 6.77085 48.2166 7.70584C49.4703 8.63033 50.0972 9.83848 50.0972 11.3303C50.0972 11.782 50.055 12.2495 49.9707 12.7328L47.6476 23.6218H43.2859L43.7284 21.589H43.6335C43.1384 22.2928 42.4641 22.8549 41.6107 23.2751C40.7573 23.6848 39.8143 23.8897 38.7818 23.8897Z" fill="#161616"/>
    <path d="M40.5993 20.5174C41.5369 20.5174 42.3692 20.2548 43.0962 19.7295C43.8232 19.2042 44.2815 18.5318 44.4711 17.7124L44.7872 16.2784L41.1998 16.4202C40.2305 16.4517 39.4667 16.6619 38.9083 17.0506C38.3499 17.4393 38.0707 17.9593 38.0707 18.6106C38.0707 19.1884 38.3025 19.6507 38.766 19.9974C39.2296 20.3441 39.8407 20.5174 40.5993 20.5174ZM38.7818 23.8897C37.3385 23.8897 36.1216 23.4485 35.1312 22.566C34.1514 21.6835 33.6615 20.5752 33.6615 19.241C33.6615 17.5391 34.3095 16.1944 35.6053 15.2068C36.9118 14.2193 38.7186 13.6835 41.0259 13.5995L45.3877 13.4419L45.5932 12.4176C45.6353 12.239 45.6564 12.0289 45.6564 11.7873C45.6564 11.1884 45.4193 10.7157 44.9452 10.369C44.4711 10.0223 43.8126 9.84898 42.9698 9.84898C42.1269 9.84898 41.4368 10.0223 40.8995 10.369C40.3622 10.7157 40.0145 11.1937 39.8565 11.803H35.5895C35.8951 10.1326 36.7379 8.79842 38.1181 7.80039C39.5088 6.80236 41.2367 6.30335 43.3017 6.30335C45.3245 6.30335 46.9628 6.77085 48.2166 7.70584C49.4703 8.63033 50.0972 9.83848 50.0972 11.3303C50.0972 11.782 50.055 12.2495 49.9707 12.7328L47.6476 23.6218H43.2859L43.7284 21.589H43.6335C43.1384 22.2928 42.4641 22.8549 41.6107 23.2751C40.7573 23.6848 39.8143 23.8897 38.7818 23.8897Z" fill="black" fill-opacity="0.2"/>
    <path d="M50.6819 23.6218L54.2851 6.68155H58.8207L55.2175 23.6218H50.6819ZM57.4616 4.86934C56.7663 4.86934 56.1815 4.63821 55.7074 4.17597C55.2333 3.70322 54.9963 3.12541 54.9963 2.44255C54.9963 1.75968 55.2333 1.18188 55.7074 0.709127C56.1815 0.236376 56.7663 0 57.4616 0C58.1464 0 58.7259 0.236376 59.2 0.709127C59.6741 1.18188 59.9112 1.75968 59.9112 2.44255C59.9112 3.12541 59.6741 3.70322 59.2 4.17597C58.7259 4.63821 58.1464 4.86934 57.4616 4.86934Z" fill="#161616"/>
    <path d="M50.6819 23.6218L54.2851 6.68155H58.8207L55.2175 23.6218H50.6819ZM57.4616 4.86934C56.7663 4.86934 56.1815 4.63821 55.7074 4.17597C55.2333 3.70322 54.9963 3.12541 54.9963 2.44255C54.9963 1.75968 55.2333 1.18188 55.7074 0.709127C56.1815 0.236376 56.7663 0 57.4616 0C58.1464 0 58.7259 0.236376 59.2 0.709127C59.6741 1.18188 59.9112 1.75968 59.9112 2.44255C59.9112 3.12541 59.6741 3.70322 59.2 4.17597C58.7259 4.63821 58.1464 4.86934 57.4616 4.86934Z" fill="black" fill-opacity="0.2"/>
    <path d="M58.3624 23.6218L61.9656 6.68155H66.3116L65.7585 9.28168H65.8533C66.4327 8.34668 67.2071 7.61655 68.1764 7.09127C69.1457 6.56599 70.2151 6.30335 71.3845 6.30335C72.9122 6.30335 74.1659 6.76034 75.1458 7.67433C76.1256 8.57781 76.6155 9.74918 76.6155 11.1884C76.6155 11.7978 76.5417 12.4859 76.3942 13.2528L74.1975 23.6218H69.7093L71.748 13.9934C71.8534 13.4787 71.906 13.0269 71.906 12.6382C71.906 11.8608 71.6374 11.241 71.1001 10.7787C70.5733 10.306 69.8727 10.0696 68.9982 10.0696C68.0289 10.0696 67.1755 10.39 66.438 11.0309C65.7111 11.6717 65.2317 12.5227 64.9999 13.5837L62.8664 23.6218H58.3624Z" fill="#161616"/>
    <path d="M58.3624 23.6218L61.9656 6.68155H66.3116L65.7585 9.28168H65.8533C66.4327 8.34668 67.2071 7.61655 68.1764 7.09127C69.1457 6.56599 70.2151 6.30335 71.3845 6.30335C72.9122 6.30335 74.1659 6.76034 75.1458 7.67433C76.1256 8.57781 76.6155 9.74918 76.6155 11.1884C76.6155 11.7978 76.5417 12.4859 76.3942 13.2528L74.1975 23.6218H69.7093L71.748 13.9934C71.8534 13.4787 71.906 13.0269 71.906 12.6382C71.906 11.8608 71.6374 11.241 71.1001 10.7787C70.5733 10.306 69.8727 10.0696 68.9982 10.0696C68.0289 10.0696 67.1755 10.39 66.438 11.0309C65.7111 11.6717 65.2317 12.5227 64.9999 13.5837L62.8664 23.6218H58.3624Z" fill="black" fill-opacity="0.2"/>
    <path d="M85.2126 23.6218H80.4083L84.4066 4.94813H77.5795L78.4171 0.882469H96.8756L96.038 4.94813H89.2109L85.2126 23.6218Z" fill="#161616"/>
    <path d="M85.2126 23.6218H80.4083L84.4066 4.94813H77.5795L78.4171 0.882469H96.8756L96.038 4.94813H89.2109L85.2126 23.6218Z" fill="black" fill-opacity="0.2"/>
    <path d="M112.221 6.68155L108.618 23.6218H104.272L104.825 21.0217H104.73C104.256 21.8936 103.529 22.608 102.549 23.1648C101.569 23.7216 100.479 24 99.2777 24C97.6763 24 96.3962 23.5483 95.4375 22.6448C94.4893 21.7413 94.0152 20.5647 94.0152 19.1149C94.0152 18.2955 94.0889 17.5443 94.2364 16.8615L96.3857 6.68155H100.906L98.8827 16.1208C98.7878 16.6461 98.7404 17.0978 98.7404 17.476C98.7404 19.2305 99.6781 20.1077 101.553 20.1077C102.565 20.1077 103.429 19.7873 104.145 19.1464C104.872 18.5056 105.357 17.6441 105.599 16.562L107.701 6.68155H112.221Z" fill="#161616"/>
    <path d="M112.221 6.68155L108.618 23.6218H104.272L104.825 21.0217H104.73C104.256 21.8936 103.529 22.608 102.549 23.1648C101.569 23.7216 100.479 24 99.2777 24C97.6763 24 96.3962 23.5483 95.4375 22.6448C94.4893 21.7413 94.0152 20.5647 94.0152 19.1149C94.0152 18.2955 94.0889 17.5443 94.2364 16.8615L96.3857 6.68155H100.906L98.8827 16.1208C98.7878 16.6461 98.7404 17.0978 98.7404 17.476C98.7404 19.2305 99.6781 20.1077 101.553 20.1077C102.565 20.1077 103.429 19.7873 104.145 19.1464C104.872 18.5056 105.357 17.6441 105.599 16.562L107.701 6.68155H112.221Z" fill="black" fill-opacity="0.2"/>
    <path d="M111.684 23.6218L115.287 6.68155H119.633L119.08 9.28168H119.174C119.754 8.34668 120.528 7.61655 121.497 7.09127C122.467 6.56599 123.536 6.30335 124.706 6.30335C126.233 6.30335 127.487 6.76034 128.467 7.67433C129.447 8.57781 129.937 9.74918 129.937 11.1884C129.937 11.7978 129.863 12.4859 129.715 13.2528L127.519 23.6218H123.03L125.069 13.9934C125.174 13.4787 125.227 13.0269 125.227 12.6382C125.227 11.8608 124.958 11.241 124.421 10.7787C123.894 10.306 123.194 10.0696 122.319 10.0696C121.35 10.0696 120.497 10.39 119.759 11.0309C119.032 11.6717 118.553 12.5227 118.321 13.5837L116.188 23.6218H111.684Z" fill="#161616"/>
    <path d="M111.684 23.6218L115.287 6.68155H119.633L119.08 9.28168H119.174C119.754 8.34668 120.528 7.61655 121.497 7.09127C122.467 6.56599 123.536 6.30335 124.706 6.30335C126.233 6.30335 127.487 6.76034 128.467 7.67433C129.447 8.57781 129.937 9.74918 129.937 11.1884C129.937 11.7978 129.863 12.4859 129.715 13.2528L127.519 23.6218H123.03L125.069 13.9934C125.174 13.4787 125.227 13.0269 125.227 12.6382C125.227 11.8608 124.958 11.241 124.421 10.7787C123.894 10.306 123.194 10.0696 122.319 10.0696C121.35 10.0696 120.497 10.39 119.759 11.0309C119.032 11.6717 118.553 12.5227 118.321 13.5837L116.188 23.6218H111.684Z" fill="black" fill-opacity="0.2"/>
    <path d="M136.369 13.3316H143.733C143.754 13.1845 143.765 13.0269 143.765 12.8588C143.765 11.9764 143.485 11.241 142.927 10.6527C142.369 10.0538 141.579 9.75443 140.557 9.75443C139.535 9.75443 138.65 10.0854 137.902 10.7472C137.154 11.4091 136.643 12.2705 136.369 13.3316ZM139.197 24C136.859 24 135.02 23.3119 133.682 21.9357C132.355 20.5594 131.691 18.7052 131.691 16.3729C131.691 14.4819 132.065 12.7748 132.813 11.2515C133.571 9.71766 134.641 8.50952 136.021 7.62705C137.401 6.74458 138.966 6.30335 140.715 6.30335C142.917 6.30335 144.681 6.95995 146.009 8.27315C147.336 9.58634 148 11.346 148 13.5522C148 14.5712 147.921 15.4485 147.763 16.1838H135.91C135.889 16.436 135.879 16.6146 135.879 16.7196C135.879 17.8542 136.195 18.7682 136.827 19.4616C137.459 20.155 138.307 20.5016 139.371 20.5016C140.256 20.5016 141.015 20.2968 141.647 19.8871C142.29 19.4773 142.743 18.9258 143.006 18.2324H147.257C146.815 19.9448 145.861 21.3368 144.397 22.4084C142.943 23.4695 141.21 24 139.197 24Z" fill="#161616"/>
    <path d="M136.369 13.3316H143.733C143.754 13.1845 143.765 13.0269 143.765 12.8588C143.765 11.9764 143.485 11.241 142.927 10.6527C142.369 10.0538 141.579 9.75443 140.557 9.75443C139.535 9.75443 138.65 10.0854 137.902 10.7472C137.154 11.4091 136.643 12.2705 136.369 13.3316ZM139.197 24C136.859 24 135.02 23.3119 133.682 21.9357C132.355 20.5594 131.691 18.7052 131.691 16.3729C131.691 14.4819 132.065 12.7748 132.813 11.2515C133.571 9.71766 134.641 8.50952 136.021 7.62705C137.401 6.74458 138.966 6.30335 140.715 6.30335C142.917 6.30335 144.681 6.95995 146.009 8.27315C147.336 9.58634 148 11.346 148 13.5522C148 14.5712 147.921 15.4485 147.763 16.1838H135.91C135.889 16.436 135.879 16.6146 135.879 16.7196C135.879 17.8542 136.195 18.7682 136.827 19.4616C137.459 20.155 138.307 20.5016 139.371 20.5016C140.256 20.5016 141.015 20.2968 141.647 19.8871C142.29 19.4773 142.743 18.9258 143.006 18.2324H147.257C146.815 19.9448 145.861 21.3368 144.397 22.4084C142.943 23.4695 141.21 24 139.197 24Z" fill="black" fill-opacity="0.2"/>
</svg>
