<svg width="380" height="62" viewBox="0 0 380 62" fill="none" xmlns="http://www.w3.org/2000/svg">
<g clip-path="url(#clip0_207_616)">
<path d="M51.6684 34.8379C49.2989 41.1418 44.1364 52.1886 27.1723 58.8579C26.5239 59.1128 25.7878 59.1026 25.1448 58.8344C7.03718 51.2826 1.3684 41.1514 0.0492069 34.625C0.014882 34.4552 0 34.2854 0 34.1122V11.1658C0 9.71134 1.11284 8.50075 2.55951 8.34997C6.51523 7.93768 12.0801 7.20267 14.4783 6.3318C17.0027 5.41509 21.7034 2.71342 24.6982 0.896652C25.5958 0.352097 26.7205 0.338202 27.6265 0.868673C30.0887 2.31025 34.0413 4.5771 37.3633 6.3318C40.4638 7.96951 45.3541 8.50902 48.906 8.61052C50.504 8.65618 51.8416 9.92738 51.8416 11.526V33.8727C51.8416 34.2032 51.7847 34.5286 51.6684 34.8379Z" fill="#4EAF51"/>
<path d="M51.6684 34.8379C49.2989 41.1418 44.1364 52.1886 27.1723 58.8579C26.5239 59.1128 25.7878 59.1026 25.1448 58.8344C7.03718 51.2826 1.3684 41.1514 0.0492069 34.625C0.014882 34.4552 0 34.2854 0 34.1122V11.1658C0 9.71134 1.11284 8.50075 2.55951 8.34997C6.51523 7.93768 12.0801 7.20267 14.4783 6.3318C17.0027 5.41509 21.7034 2.71342 24.6982 0.896652C25.5958 0.352097 26.7205 0.338202 27.6265 0.868673C30.0887 2.31025 34.0413 4.5771 37.3633 6.3318C40.4638 7.96951 45.3541 8.50902 48.906 8.61052C50.504 8.65618 51.8416 9.92738 51.8416 11.526V33.8727C51.8416 34.2032 51.7847 34.5286 51.6684 34.8379Z" fill="black" fill-opacity="0.2"/>
<circle cx="25.6509" cy="30.7826" r="14.4585" fill="#FDFDFD"/>
<path d="M18.1895 30.3163L22.1802 34.614C23.2953 35.815 25.1991 35.8049 26.3015 34.5923L33.5808 26.5851" stroke="#4EAF51" stroke-width="2.79843" stroke-linecap="round"/>
<path d="M18.1895 30.3163L22.1802 34.614C23.2953 35.815 25.1991 35.8049 26.3015 34.5923L33.5808 26.5851" stroke="black" stroke-opacity="0.2" stroke-width="2.79843" stroke-linecap="round"/>
</g>
<path d="M68.3188 41.0496H72.2098V26.932H72.3255L77.9667 41.0496H80.715L86.3418 26.932H86.472V41.0496H90.363V20.177H85.3148L79.3843 35.1769H79.2975L73.367 20.177H68.3188V41.0496ZM100.59 41.3678C105.276 41.3678 108.27 38.3591 108.27 33.2965V33.2675C108.27 28.2483 105.218 25.2251 100.575 25.2251C95.9464 25.2251 92.9088 28.2772 92.9088 33.2675V33.2965C92.9088 38.3447 95.8741 41.3678 100.59 41.3678ZM100.604 38.0554C98.5211 38.0554 97.2048 36.3341 97.2048 33.2965V33.2675C97.2048 30.2733 98.5356 28.5376 100.575 28.5376C102.629 28.5376 103.974 30.2733 103.974 33.2675V33.2965C103.974 36.3196 102.658 38.0554 100.604 38.0554ZM110.455 41.0496H114.678V32.1393C114.678 30.1142 115.879 28.7256 117.774 28.7256C119.669 28.7256 120.623 29.8828 120.623 31.9079V41.0496H124.847V31.04C124.847 27.4093 122.909 25.2251 119.495 25.2251C117.152 25.2251 115.561 26.31 114.765 28.0892H114.678V25.5434H110.455V41.0496ZM134.582 41.3678C139.008 41.3678 141.149 38.7497 141.626 36.4642L141.669 36.3051H137.793L137.764 36.3919C137.46 37.2598 136.404 38.2145 134.668 38.2145C132.513 38.2145 131.168 36.768 131.125 34.2945H141.8V32.9927C141.8 28.3061 138.95 25.2251 134.408 25.2251C129.866 25.2251 126.959 28.3785 126.959 33.3109V33.3254C126.959 38.2868 129.837 41.3678 134.582 41.3678ZM134.48 28.3785C136.231 28.3785 137.489 29.4922 137.749 31.633H131.168C131.443 29.5356 132.745 28.3785 134.48 28.3785ZM145.835 46.1556C149.278 46.1556 151.361 44.984 152.576 41.3244L157.899 25.5434H153.444L150.16 37.6648H150.044L146.775 25.5434H142.132L147.614 41.0496L147.426 41.5558C147.05 42.6118 146.356 42.9734 145.098 42.9734C144.476 42.9734 143.984 42.8866 143.68 42.8287V45.9676C144.172 46.0544 145.011 46.1556 145.835 46.1556ZM165.609 41.0496H174.851C179.307 41.0496 182.069 38.7641 182.069 35.1046V35.0756C182.069 32.3418 179.972 30.2878 177.065 30.0708V29.984C179.364 29.6803 181.1 27.7275 181.1 25.4421V25.4132C181.1 22.202 178.627 20.177 174.692 20.177H165.609V41.0496ZM173.564 23.4171C175.604 23.4171 176.804 24.3717 176.804 26.0352V26.0641C176.804 27.8722 175.488 28.8992 173.029 28.8992H169.977V23.4171H173.564ZM173.55 31.8645C176.226 31.8645 177.614 32.8915 177.614 34.8008V34.8297C177.614 36.768 176.24 37.795 173.738 37.795H169.977V31.8645H173.55ZM188.81 41.2955C190.849 41.2955 192.498 40.3263 193.381 38.7352H193.468V41.0496H197.691V30.418C197.691 27.2936 195.102 25.2251 191.095 25.2251C187.002 25.2251 184.543 27.2791 184.311 30.1432L184.297 30.3167H188.159L188.188 30.1866C188.39 29.1885 189.345 28.4508 190.922 28.4508C192.571 28.4508 193.468 29.3042 193.468 30.6784V31.633L189.634 31.8645C185.787 32.1104 183.603 33.7593 183.603 36.58V36.6089C183.603 39.3427 185.7 41.2955 188.81 41.2955ZM187.783 36.3919V36.363C187.783 35.2637 188.636 34.5694 190.271 34.4681L193.468 34.2656V35.3794C193.468 36.9994 192.079 38.2145 190.184 38.2145C188.723 38.2145 187.783 37.5346 187.783 36.3919ZM207.513 41.3678C211.65 41.3678 214.326 38.7931 214.528 35.4083V35.3215H210.594L210.579 35.4517C210.29 37.0139 209.234 38.0554 207.542 38.0554C205.459 38.0554 204.157 36.3341 204.157 33.2965V33.282C204.157 30.3167 205.459 28.5376 207.527 28.5376C209.278 28.5376 210.305 29.6658 210.565 31.1412L210.594 31.2714H214.514V31.1702C214.355 27.8143 211.679 25.2251 207.469 25.2251C202.826 25.2251 199.861 28.3061 199.861 33.2675V33.282C199.861 38.2868 202.783 41.3678 207.513 41.3678ZM216.712 41.0496H220.936V35.9146L222.021 34.714L226.462 41.0496H231.336L225.189 32.2116L231.047 25.5434H226.259L221.023 31.7487H220.936V20.177H216.712V41.0496ZM248.144 41.4112C253.959 41.4112 257.402 37.9686 257.402 32.2839V29.8828H248.376V33.1374H253.149L253.135 33.4411C253.019 36.0158 251.066 37.7082 248.217 37.7082C244.745 37.7082 242.546 35.0322 242.546 30.5048V30.4903C242.546 26.0641 244.615 23.5183 248.057 23.5183C250.415 23.5183 252.079 24.69 252.773 26.715L252.831 26.8597H257.214L257.17 26.6572C256.476 22.7372 253.062 19.8153 248.043 19.8153C241.924 19.8153 238.091 23.851 238.091 30.5337V30.5482C238.091 37.3466 241.91 41.4112 248.144 41.4112ZM265.213 41.3678C267.556 41.3678 269.147 40.2685 269.943 38.4893H270.029V41.0496H274.253V25.5434H270.029V34.4536C270.029 36.4787 268.829 37.8673 266.934 37.8673C265.039 37.8673 264.084 36.6957 264.084 34.6706V25.5434H259.861V35.553C259.861 39.1836 261.799 41.3678 265.213 41.3678ZM281.616 41.2955C283.655 41.2955 285.304 40.3263 286.186 38.7352H286.273V41.0496H290.497V30.418C290.497 27.2936 287.908 25.2251 283.901 25.2251C279.808 25.2251 277.349 27.2791 277.117 30.1432L277.103 30.3167H280.965L280.994 30.1866C281.196 29.1885 282.151 28.4508 283.727 28.4508C285.376 28.4508 286.273 29.3042 286.273 30.6784V31.633L282.44 31.8645C278.593 32.1104 276.408 33.7593 276.408 36.58V36.6089C276.408 39.3427 278.506 41.2955 281.616 41.2955ZM280.589 36.3919V36.363C280.589 35.2637 281.442 34.5694 283.077 34.4681L286.273 34.2656V35.3794C286.273 36.9994 284.885 38.2145 282.99 38.2145C281.529 38.2145 280.589 37.5346 280.589 36.3919ZM293.231 41.0496H297.455V32.3707C297.455 30.1142 298.67 28.8703 300.752 28.8703C301.36 28.8703 301.939 28.957 302.286 29.1017V25.3843C301.968 25.2975 301.534 25.2251 301.071 25.2251C299.263 25.2251 298.004 26.3389 297.541 28.2483H297.455V25.5434H293.231V41.0496ZM308.26 41.2955C310.299 41.2955 311.948 40.3263 312.831 38.7352H312.917V41.0496H317.141V30.418C317.141 27.2936 314.552 25.2251 310.545 25.2251C306.452 25.2251 303.993 27.2791 303.761 30.1432L303.747 30.3167H307.609L307.638 30.1866C307.84 29.1885 308.795 28.4508 310.372 28.4508C312.02 28.4508 312.917 29.3042 312.917 30.6784V31.633L309.084 31.8645C305.237 32.1104 303.052 33.7593 303.052 36.58V36.6089C303.052 39.3427 305.15 41.2955 308.26 41.2955ZM307.233 36.3919V36.363C307.233 35.2637 308.086 34.5694 309.721 34.4681L312.917 34.2656V35.3794C312.917 36.9994 311.529 38.2145 309.634 38.2145C308.173 38.2145 307.233 37.5346 307.233 36.3919ZM319.875 41.0496H324.099V32.1393C324.099 30.1142 325.299 28.7256 327.194 28.7256C329.089 28.7256 330.044 29.8828 330.044 31.9079V41.0496H334.267V31.04C334.267 27.4093 332.329 25.2251 328.915 25.2251C326.572 25.2251 324.981 26.31 324.185 28.0892H324.099V25.5434H319.875V41.0496ZM343.105 41.3678C343.988 41.3678 344.667 41.281 345.145 41.2087V38.1132C344.884 38.1422 344.61 38.1855 344.233 38.1855C342.961 38.1855 342.31 37.6937 342.31 36.2473V28.7256H345.145V25.5434H342.31V21.7536H338.043V25.5434H335.887V28.7256H338.043V36.7101C338.043 40.037 339.663 41.3678 343.105 41.3678ZM354.301 41.3678C358.727 41.3678 360.868 38.7497 361.345 36.4642L361.389 36.3051H357.512L357.483 36.3919C357.179 37.2598 356.123 38.2145 354.388 38.2145C352.232 38.2145 350.887 36.768 350.844 34.2945H361.519V32.9927C361.519 28.3061 358.669 25.2251 354.127 25.2251C349.585 25.2251 346.678 28.3785 346.678 33.3109V33.3254C346.678 38.2868 349.556 41.3678 354.301 41.3678ZM354.2 28.3785C355.95 28.3785 357.208 29.4922 357.469 31.633H350.887C351.162 29.5356 352.464 28.3785 354.2 28.3785ZM370.762 41.3678C375.188 41.3678 377.329 38.7497 377.806 36.4642L377.849 36.3051H373.973L373.944 36.3919C373.64 37.2598 372.584 38.2145 370.849 38.2145C368.693 38.2145 367.348 36.768 367.305 34.2945H377.98V32.9927C377.98 28.3061 375.13 25.2251 370.588 25.2251C366.046 25.2251 363.139 28.3785 363.139 33.3109V33.3254C363.139 38.2868 366.017 41.3678 370.762 41.3678ZM370.661 28.3785C372.411 28.3785 373.669 29.4922 373.93 31.633H367.348C367.623 29.5356 368.925 28.3785 370.661 28.3785Z" fill="#4EAF51"/>
<path d="M68.3188 41.0496H72.2098V26.932H72.3255L77.9667 41.0496H80.715L86.3418 26.932H86.472V41.0496H90.363V20.177H85.3148L79.3843 35.1769H79.2975L73.367 20.177H68.3188V41.0496ZM100.59 41.3678C105.276 41.3678 108.27 38.3591 108.27 33.2965V33.2675C108.27 28.2483 105.218 25.2251 100.575 25.2251C95.9464 25.2251 92.9088 28.2772 92.9088 33.2675V33.2965C92.9088 38.3447 95.8741 41.3678 100.59 41.3678ZM100.604 38.0554C98.5211 38.0554 97.2048 36.3341 97.2048 33.2965V33.2675C97.2048 30.2733 98.5356 28.5376 100.575 28.5376C102.629 28.5376 103.974 30.2733 103.974 33.2675V33.2965C103.974 36.3196 102.658 38.0554 100.604 38.0554ZM110.455 41.0496H114.678V32.1393C114.678 30.1142 115.879 28.7256 117.774 28.7256C119.669 28.7256 120.623 29.8828 120.623 31.9079V41.0496H124.847V31.04C124.847 27.4093 122.909 25.2251 119.495 25.2251C117.152 25.2251 115.561 26.31 114.765 28.0892H114.678V25.5434H110.455V41.0496ZM134.582 41.3678C139.008 41.3678 141.149 38.7497 141.626 36.4642L141.669 36.3051H137.793L137.764 36.3919C137.46 37.2598 136.404 38.2145 134.668 38.2145C132.513 38.2145 131.168 36.768 131.125 34.2945H141.8V32.9927C141.8 28.3061 138.95 25.2251 134.408 25.2251C129.866 25.2251 126.959 28.3785 126.959 33.3109V33.3254C126.959 38.2868 129.837 41.3678 134.582 41.3678ZM134.48 28.3785C136.231 28.3785 137.489 29.4922 137.749 31.633H131.168C131.443 29.5356 132.745 28.3785 134.48 28.3785ZM145.835 46.1556C149.278 46.1556 151.361 44.984 152.576 41.3244L157.899 25.5434H153.444L150.16 37.6648H150.044L146.775 25.5434H142.132L147.614 41.0496L147.426 41.5558C147.05 42.6118 146.356 42.9734 145.098 42.9734C144.476 42.9734 143.984 42.8866 143.68 42.8287V45.9676C144.172 46.0544 145.011 46.1556 145.835 46.1556ZM165.609 41.0496H174.851C179.307 41.0496 182.069 38.7641 182.069 35.1046V35.0756C182.069 32.3418 179.972 30.2878 177.065 30.0708V29.984C179.364 29.6803 181.1 27.7275 181.1 25.4421V25.4132C181.1 22.202 178.627 20.177 174.692 20.177H165.609V41.0496ZM173.564 23.4171C175.604 23.4171 176.804 24.3717 176.804 26.0352V26.0641C176.804 27.8722 175.488 28.8992 173.029 28.8992H169.977V23.4171H173.564ZM173.55 31.8645C176.226 31.8645 177.614 32.8915 177.614 34.8008V34.8297C177.614 36.768 176.24 37.795 173.738 37.795H169.977V31.8645H173.55ZM188.81 41.2955C190.849 41.2955 192.498 40.3263 193.381 38.7352H193.468V41.0496H197.691V30.418C197.691 27.2936 195.102 25.2251 191.095 25.2251C187.002 25.2251 184.543 27.2791 184.311 30.1432L184.297 30.3167H188.159L188.188 30.1866C188.39 29.1885 189.345 28.4508 190.922 28.4508C192.571 28.4508 193.468 29.3042 193.468 30.6784V31.633L189.634 31.8645C185.787 32.1104 183.603 33.7593 183.603 36.58V36.6089C183.603 39.3427 185.7 41.2955 188.81 41.2955ZM187.783 36.3919V36.363C187.783 35.2637 188.636 34.5694 190.271 34.4681L193.468 34.2656V35.3794C193.468 36.9994 192.079 38.2145 190.184 38.2145C188.723 38.2145 187.783 37.5346 187.783 36.3919ZM207.513 41.3678C211.65 41.3678 214.326 38.7931 214.528 35.4083V35.3215H210.594L210.579 35.4517C210.29 37.0139 209.234 38.0554 207.542 38.0554C205.459 38.0554 204.157 36.3341 204.157 33.2965V33.282C204.157 30.3167 205.459 28.5376 207.527 28.5376C209.278 28.5376 210.305 29.6658 210.565 31.1412L210.594 31.2714H214.514V31.1702C214.355 27.8143 211.679 25.2251 207.469 25.2251C202.826 25.2251 199.861 28.3061 199.861 33.2675V33.282C199.861 38.2868 202.783 41.3678 207.513 41.3678ZM216.712 41.0496H220.936V35.9146L222.021 34.714L226.462 41.0496H231.336L225.189 32.2116L231.047 25.5434H226.259L221.023 31.7487H220.936V20.177H216.712V41.0496ZM248.144 41.4112C253.959 41.4112 257.402 37.9686 257.402 32.2839V29.8828H248.376V33.1374H253.149L253.135 33.4411C253.019 36.0158 251.066 37.7082 248.217 37.7082C244.745 37.7082 242.546 35.0322 242.546 30.5048V30.4903C242.546 26.0641 244.615 23.5183 248.057 23.5183C250.415 23.5183 252.079 24.69 252.773 26.715L252.831 26.8597H257.214L257.17 26.6572C256.476 22.7372 253.062 19.8153 248.043 19.8153C241.924 19.8153 238.091 23.851 238.091 30.5337V30.5482C238.091 37.3466 241.91 41.4112 248.144 41.4112ZM265.213 41.3678C267.556 41.3678 269.147 40.2685 269.943 38.4893H270.029V41.0496H274.253V25.5434H270.029V34.4536C270.029 36.4787 268.829 37.8673 266.934 37.8673C265.039 37.8673 264.084 36.6957 264.084 34.6706V25.5434H259.861V35.553C259.861 39.1836 261.799 41.3678 265.213 41.3678ZM281.616 41.2955C283.655 41.2955 285.304 40.3263 286.186 38.7352H286.273V41.0496H290.497V30.418C290.497 27.2936 287.908 25.2251 283.901 25.2251C279.808 25.2251 277.349 27.2791 277.117 30.1432L277.103 30.3167H280.965L280.994 30.1866C281.196 29.1885 282.151 28.4508 283.727 28.4508C285.376 28.4508 286.273 29.3042 286.273 30.6784V31.633L282.44 31.8645C278.593 32.1104 276.408 33.7593 276.408 36.58V36.6089C276.408 39.3427 278.506 41.2955 281.616 41.2955ZM280.589 36.3919V36.363C280.589 35.2637 281.442 34.5694 283.077 34.4681L286.273 34.2656V35.3794C286.273 36.9994 284.885 38.2145 282.99 38.2145C281.529 38.2145 280.589 37.5346 280.589 36.3919ZM293.231 41.0496H297.455V32.3707C297.455 30.1142 298.67 28.8703 300.752 28.8703C301.36 28.8703 301.939 28.957 302.286 29.1017V25.3843C301.968 25.2975 301.534 25.2251 301.071 25.2251C299.263 25.2251 298.004 26.3389 297.541 28.2483H297.455V25.5434H293.231V41.0496ZM308.26 41.2955C310.299 41.2955 311.948 40.3263 312.831 38.7352H312.917V41.0496H317.141V30.418C317.141 27.2936 314.552 25.2251 310.545 25.2251C306.452 25.2251 303.993 27.2791 303.761 30.1432L303.747 30.3167H307.609L307.638 30.1866C307.84 29.1885 308.795 28.4508 310.372 28.4508C312.02 28.4508 312.917 29.3042 312.917 30.6784V31.633L309.084 31.8645C305.237 32.1104 303.052 33.7593 303.052 36.58V36.6089C303.052 39.3427 305.15 41.2955 308.26 41.2955ZM307.233 36.3919V36.363C307.233 35.2637 308.086 34.5694 309.721 34.4681L312.917 34.2656V35.3794C312.917 36.9994 311.529 38.2145 309.634 38.2145C308.173 38.2145 307.233 37.5346 307.233 36.3919ZM319.875 41.0496H324.099V32.1393C324.099 30.1142 325.299 28.7256 327.194 28.7256C329.089 28.7256 330.044 29.8828 330.044 31.9079V41.0496H334.267V31.04C334.267 27.4093 332.329 25.2251 328.915 25.2251C326.572 25.2251 324.981 26.31 324.185 28.0892H324.099V25.5434H319.875V41.0496ZM343.105 41.3678C343.988 41.3678 344.667 41.281 345.145 41.2087V38.1132C344.884 38.1422 344.61 38.1855 344.233 38.1855C342.961 38.1855 342.31 37.6937 342.31 36.2473V28.7256H345.145V25.5434H342.31V21.7536H338.043V25.5434H335.887V28.7256H338.043V36.7101C338.043 40.037 339.663 41.3678 343.105 41.3678ZM354.301 41.3678C358.727 41.3678 360.868 38.7497 361.345 36.4642L361.389 36.3051H357.512L357.483 36.3919C357.179 37.2598 356.123 38.2145 354.388 38.2145C352.232 38.2145 350.887 36.768 350.844 34.2945H361.519V32.9927C361.519 28.3061 358.669 25.2251 354.127 25.2251C349.585 25.2251 346.678 28.3785 346.678 33.3109V33.3254C346.678 38.2868 349.556 41.3678 354.301 41.3678ZM354.2 28.3785C355.95 28.3785 357.208 29.4922 357.469 31.633H350.887C351.162 29.5356 352.464 28.3785 354.2 28.3785ZM370.762 41.3678C375.188 41.3678 377.329 38.7497 377.806 36.4642L377.849 36.3051H373.973L373.944 36.3919C373.64 37.2598 372.584 38.2145 370.849 38.2145C368.693 38.2145 367.348 36.768 367.305 34.2945H377.98V32.9927C377.98 28.3061 375.13 25.2251 370.588 25.2251C366.046 25.2251 363.139 28.3785 363.139 33.3109V33.3254C363.139 38.2868 366.017 41.3678 370.762 41.3678ZM370.661 28.3785C372.411 28.3785 373.669 29.4922 373.93 31.633H367.348C367.623 29.5356 368.925 28.3785 370.661 28.3785Z" fill="black" fill-opacity="0.2"/>
<defs>
<clipPath id="clip0_207_616">
<rect width="51.7709" height="61.099" fill="white"/>
</clipPath>
</defs>
</svg>
