<svg width="744" height="360" viewBox="0 0 696 360" fill="none" xmlns="http://www.w3.org/2000/svg">
<g clip-path="url(#clip0_237_593)">
<rect width="696" height="360" fill="#FDFDFD"/>
<g filter="url(#filter0_b_237_593)">
<path d="M0 0H696V241.883L0 318V0Z" fill="#F2F7FF" fill-opacity="0.7"/>
</g>
<path d="M515 255.987L696 233V261.013L515 284V255.987Z" fill="#75E3EA"/>
<path d="M329 253.82L592 220V248.18L329 282V253.82Z" fill="#D6B1FF"/>
<path d="M515 202.536L696 180V207.464L515 230V202.536Z" fill="#F1E4FF"/>
<path d="M-28 296.536L153 274V301.464L-28 324V296.536Z" fill="#75E3EA"/>
<path d="M-94 331.536L87 309V336.464L-94 359V331.536Z" fill="#F1E4FF"/>
<path d="M213.656 134.891V140H191.766V106.18H213.656V111.289H197.812V120.43H212.789V125.234H197.812V134.891H213.656ZM227.391 135.992C229.062 135.992 230.469 135.5 231.609 134.516C232.766 133.516 233.344 132.273 233.344 130.789V128.891L227.602 129.242C226.195 129.336 225.102 129.688 224.32 130.297C223.555 130.891 223.172 131.68 223.172 132.664C223.172 133.68 223.555 134.492 224.32 135.102C225.102 135.695 226.125 135.992 227.391 135.992ZM225.633 140.398C223.211 140.398 221.219 139.703 219.656 138.312C218.109 136.922 217.336 135.117 217.336 132.898C217.336 130.695 218.148 128.953 219.773 127.672C221.414 126.391 223.75 125.656 226.781 125.469L233.344 125.094V123.312C233.344 122.016 232.93 121.008 232.102 120.289C231.289 119.57 230.156 119.211 228.703 119.211C227.344 119.211 226.234 119.516 225.375 120.125C224.516 120.734 223.992 121.562 223.805 122.609H218.391C218.516 120.25 219.523 118.336 221.414 116.867C223.32 115.383 225.828 114.641 228.938 114.641C232.016 114.641 234.477 115.391 236.32 116.891C238.18 118.391 239.109 120.391 239.109 122.891V140H233.484V136.039H233.367C232.664 137.367 231.602 138.43 230.18 139.227C228.758 140.008 227.242 140.398 225.633 140.398ZM243.82 140V115.156H249.422V119.492H249.539C249.961 117.977 250.688 116.805 251.719 115.977C252.766 115.148 254.023 114.734 255.492 114.734C256.008 114.734 256.617 114.812 257.32 114.969V120.242C256.742 120.023 255.953 119.914 254.953 119.914C253.297 119.914 252 120.414 251.062 121.414C250.125 122.414 249.656 123.789 249.656 125.539V140H243.82ZM260.484 140V106.18H266.32V140H260.484ZM274.055 149.234C272.789 149.234 272.023 149.203 271.758 149.141V144.523C272.023 144.586 272.586 144.617 273.445 144.617C274.648 144.617 275.586 144.367 276.258 143.867C276.93 143.367 277.43 142.547 277.758 141.406C277.758 141.391 277.812 141.164 277.922 140.727C278.047 140.289 278.102 140.055 278.086 140.023L269.25 115.156H275.625L281.484 135.031H281.578L287.438 115.156H293.578L284.602 140.984C283.539 144.062 282.227 146.203 280.664 147.406C279.102 148.625 276.898 149.234 274.055 149.234ZM311.93 128.867H296.531V123.664H311.93V128.867ZM331.031 140.398C329.234 140.398 327.648 139.992 326.273 139.18C324.914 138.367 323.867 137.227 323.133 135.758H323.016V140H317.297V106.18H323.133V119.422H323.273C323.977 117.953 325.008 116.805 326.367 115.977C327.727 115.148 329.281 114.734 331.031 114.734C334.172 114.734 336.664 115.891 338.508 118.203C340.352 120.5 341.273 123.625 341.273 127.578C341.273 131.547 340.352 134.68 338.508 136.977C336.68 139.258 334.188 140.398 331.031 140.398ZM329.227 119.539C327.414 119.539 325.938 120.281 324.797 121.766C323.672 123.234 323.109 125.172 323.109 127.578C323.109 130 323.672 131.945 324.797 133.414C325.938 134.883 327.414 135.617 329.227 135.617C331.102 135.617 332.578 134.898 333.656 133.461C334.75 132.008 335.297 130.047 335.297 127.578C335.297 125.109 334.75 123.156 333.656 121.719C332.562 120.266 331.086 119.539 329.227 119.539ZM345.211 140V115.156H351.047V140H345.211ZM350.414 110.984C349.789 111.594 349.023 111.898 348.117 111.898C347.211 111.898 346.445 111.594 345.82 110.984C345.195 110.359 344.883 109.609 344.883 108.734C344.883 107.844 345.195 107.094 345.82 106.484C346.445 105.859 347.211 105.547 348.117 105.547C349.023 105.547 349.789 105.859 350.414 106.484C351.055 107.094 351.375 107.844 351.375 108.734C351.375 109.609 351.055 110.359 350.414 110.984ZM355.945 140V115.156H361.547V119.492H361.664C362.086 117.977 362.812 116.805 363.844 115.977C364.891 115.148 366.148 114.734 367.617 114.734C368.133 114.734 368.742 114.812 369.445 114.969V120.242C368.867 120.023 368.078 119.914 367.078 119.914C365.422 119.914 364.125 120.414 363.188 121.414C362.25 122.414 361.781 123.789 361.781 125.539V140H355.945ZM380.789 140.398C377.648 140.398 375.141 139.242 373.266 136.93C371.406 134.617 370.477 131.492 370.477 127.555C370.477 123.633 371.406 120.516 373.266 118.203C375.141 115.891 377.648 114.734 380.789 114.734C382.539 114.734 384.086 115.148 385.43 115.977C386.789 116.805 387.805 117.922 388.477 119.328H388.617V106.18H394.453V140H388.734V135.758H388.641C387.953 137.18 386.914 138.312 385.523 139.156C384.148 139.984 382.57 140.398 380.789 140.398ZM382.547 119.539C380.672 119.539 379.188 120.266 378.094 121.719C377 123.156 376.453 125.109 376.453 127.578C376.453 130.062 376.992 132.023 378.07 133.461C379.164 134.898 380.656 135.617 382.547 135.617C384.391 135.617 385.867 134.891 386.977 133.438C388.086 131.984 388.641 130.031 388.641 127.578C388.641 125.141 388.086 123.195 386.977 121.742C385.867 120.273 384.391 119.539 382.547 119.539ZM428.719 137.047C426.547 139.344 423.625 140.492 419.953 140.492C416.281 140.492 413.359 139.344 411.188 137.047C409.016 134.734 407.93 131.578 407.93 127.578C407.93 123.594 409.023 120.445 411.211 118.133C413.398 115.805 416.312 114.641 419.953 114.641C423.609 114.641 426.523 115.805 428.695 118.133C430.883 120.445 431.977 123.594 431.977 127.578C431.977 131.578 430.891 134.734 428.719 137.047ZM415.5 133.695C416.594 135.148 418.078 135.875 419.953 135.875C421.828 135.875 423.312 135.148 424.406 133.695C425.5 132.242 426.047 130.203 426.047 127.578C426.047 124.969 425.5 122.938 424.406 121.484C423.312 120.016 421.828 119.281 419.953 119.281C418.094 119.281 416.609 120.016 415.5 121.484C414.406 122.938 413.859 124.969 413.859 127.578C413.859 130.203 414.406 132.242 415.5 133.695ZM437.344 140V119.656H433.945V115.227H437.344V113.023C437.344 110.586 437.953 108.797 439.172 107.656C440.406 106.5 442.359 105.922 445.031 105.922C446.234 105.922 447.281 106.008 448.172 106.18V110.258C447.516 110.164 446.898 110.117 446.32 110.117C444.164 110.117 443.086 111.141 443.086 113.188V115.227H448.055V119.656H443.18V140H437.344ZM453.516 140V119.656H450.117V115.227H453.516V113.023C453.516 110.586 454.125 108.797 455.344 107.656C456.578 106.5 458.531 105.922 461.203 105.922C462.406 105.922 463.453 106.008 464.344 106.18V110.258C463.688 110.164 463.07 110.117 462.492 110.117C460.336 110.117 459.258 111.141 459.258 113.188V115.227H464.227V119.656H459.352V140H453.516ZM477.891 119.164C476.266 119.164 474.906 119.727 473.812 120.852C472.734 121.961 472.133 123.391 472.008 125.141H483.609C483.547 123.375 482.992 121.938 481.945 120.828C480.898 119.719 479.547 119.164 477.891 119.164ZM483.633 132.57H489.094C488.719 134.93 487.523 136.844 485.508 138.312C483.492 139.766 481.023 140.492 478.102 140.492C474.383 140.492 471.461 139.352 469.336 137.07C467.211 134.773 466.148 131.641 466.148 127.672C466.148 123.734 467.203 120.578 469.312 118.203C471.438 115.828 474.289 114.641 477.867 114.641C481.383 114.641 484.172 115.773 486.234 118.039C488.297 120.289 489.328 123.305 489.328 127.086V128.984H471.961V129.336C471.961 131.336 472.523 132.945 473.648 134.164C474.789 135.383 476.312 135.992 478.219 135.992C479.562 135.992 480.719 135.688 481.688 135.078C482.672 134.453 483.32 133.617 483.633 132.57ZM493.102 140V115.156H498.703V119.492H498.82C499.242 117.977 499.969 116.805 501 115.977C502.047 115.148 503.305 114.734 504.773 114.734C505.289 114.734 505.898 114.812 506.602 114.969V120.242C506.023 120.023 505.234 119.914 504.234 119.914C502.578 119.914 501.281 120.414 500.344 121.414C499.406 122.414 498.938 123.789 498.938 125.539V140H493.102Z" fill="#5F3FE1"/>
<path d="M246.797 190.891C246.797 195.484 245.492 199.078 242.883 201.672C240.289 204.266 236.68 205.562 232.055 205.562C227.117 205.562 223.211 203.992 220.336 200.852C217.477 197.695 216.047 193.398 216.047 187.961C216.047 182.602 217.469 178.375 220.312 175.281C223.172 172.172 227.047 170.617 231.938 170.617C235.781 170.617 239.039 171.656 241.711 173.734C244.383 175.812 245.992 178.547 246.539 181.938H240.398C239.82 180 238.789 178.484 237.305 177.391C235.82 176.297 234.039 175.75 231.961 175.75C228.914 175.75 226.531 176.82 224.812 178.961C223.094 181.102 222.234 184.078 222.234 187.891C222.234 191.781 223.117 194.844 224.883 197.078C226.664 199.312 229.078 200.43 232.125 200.43C234.672 200.43 236.75 199.695 238.359 198.227C239.984 196.758 240.82 194.836 240.867 192.461L240.891 191.898H232.734V187.281H246.797V190.891ZM261.867 184.164C260.242 184.164 258.883 184.727 257.789 185.852C256.711 186.961 256.109 188.391 255.984 190.141H267.586C267.523 188.375 266.969 186.938 265.922 185.828C264.875 184.719 263.523 184.164 261.867 184.164ZM267.609 197.57H273.07C272.695 199.93 271.5 201.844 269.484 203.312C267.469 204.766 265 205.492 262.078 205.492C258.359 205.492 255.438 204.352 253.312 202.07C251.188 199.773 250.125 196.641 250.125 192.672C250.125 188.734 251.18 185.578 253.289 183.203C255.414 180.828 258.266 179.641 261.844 179.641C265.359 179.641 268.148 180.773 270.211 183.039C272.273 185.289 273.305 188.305 273.305 192.086V193.984H255.938V194.336C255.938 196.336 256.5 197.945 257.625 199.164C258.766 200.383 260.289 200.992 262.195 200.992C263.539 200.992 264.695 200.688 265.664 200.078C266.648 199.453 267.297 198.617 267.609 197.57ZM278.695 174.344H284.531V180.156H289.219V184.656H284.531V197.57C284.531 198.586 284.773 199.336 285.258 199.82C285.742 200.305 286.5 200.547 287.531 200.547C288.219 200.547 288.773 200.508 289.195 200.43V204.883C288.492 205.039 287.484 205.117 286.172 205.117C283.484 205.117 281.562 204.602 280.406 203.57C279.266 202.539 278.695 200.812 278.695 198.391V184.656H275.133V180.156H278.695V174.344ZM330.141 195.438C330.141 191.875 327.984 189.039 324.328 187.914L324.352 187.727C329.133 187 332.297 183.695 332.297 179.453C332.297 174.438 326.859 170.617 319.734 170.617C312.094 170.617 306.422 174.648 306.422 180.062C306.422 182.922 308.273 185.336 311.227 186.367L311.18 186.531C305.414 187.492 301.664 191.266 301.664 196.07C301.664 201.672 307.336 205.586 315.398 205.586C323.977 205.586 330.141 201.32 330.141 195.438ZM314.555 180.977C314.555 178.539 316.758 176.57 319.477 176.57C321.984 176.57 323.812 178.141 323.812 180.297C323.812 182.711 321.586 184.703 318.844 184.703C316.359 184.703 314.555 183.133 314.555 180.977ZM316.336 190.422C319.336 190.422 321.422 192.156 321.422 194.641C321.422 197.406 319.008 199.492 315.797 199.492C312.773 199.492 310.711 197.758 310.711 195.297C310.711 192.508 313.125 190.422 316.336 190.422ZM347.812 205.586C357.75 205.586 364.852 196.516 364.852 183.859C364.852 175.891 359.766 170.594 352.055 170.594C342.188 170.594 335.109 179.641 335.109 192.273C335.109 200.266 340.172 205.586 347.812 205.586ZM343.805 192.062C343.805 184.094 347.461 177.273 351.75 177.273C354.562 177.273 356.156 179.688 356.156 184.07C356.156 192.062 352.477 198.93 348.164 198.93C345.375 198.93 343.805 196.469 343.805 192.062ZM377.484 187.328C383.273 187.328 386.766 182.711 386.766 177.789C386.766 173.172 383.695 170.641 379.336 170.641C373.406 170.641 370.102 175.281 370.102 180.109C370.102 184.75 373.195 187.328 377.484 187.328ZM379.711 205L407.32 171.18H400.828L373.195 205H379.711ZM377.836 182.758C376.852 182.758 376.102 181.914 376.102 180.32C376.102 178.445 377.109 175.211 379.008 175.211C379.992 175.211 380.789 176.008 380.789 177.742C380.789 179.969 379.523 182.758 377.836 182.758ZM401.32 205.398C407.109 205.398 410.602 200.805 410.602 195.859C410.602 191.266 407.531 188.734 403.172 188.734C397.242 188.734 393.938 193.375 393.938 198.18C393.938 202.844 397.031 205.398 401.32 205.398ZM401.672 200.852C400.688 200.852 399.914 199.984 399.914 198.414C399.914 196.539 400.945 193.281 402.844 193.281C403.828 193.281 404.625 194.102 404.625 195.812C404.625 198.039 403.359 200.852 401.672 200.852ZM444.82 202.047C442.648 204.344 439.727 205.492 436.055 205.492C432.383 205.492 429.461 204.344 427.289 202.047C425.117 199.734 424.031 196.578 424.031 192.578C424.031 188.594 425.125 185.445 427.312 183.133C429.5 180.805 432.414 179.641 436.055 179.641C439.711 179.641 442.625 180.805 444.797 183.133C446.984 185.445 448.078 188.594 448.078 192.578C448.078 196.578 446.992 199.734 444.82 202.047ZM431.602 198.695C432.695 200.148 434.18 200.875 436.055 200.875C437.93 200.875 439.414 200.148 440.508 198.695C441.602 197.242 442.148 195.203 442.148 192.578C442.148 189.969 441.602 187.938 440.508 186.484C439.414 185.016 437.93 184.281 436.055 184.281C434.195 184.281 432.711 185.016 431.602 186.484C430.508 187.938 429.961 189.969 429.961 192.578C429.961 195.203 430.508 197.242 431.602 198.695ZM453.445 205V184.656H450.047V180.227H453.445V178.023C453.445 175.586 454.055 173.797 455.273 172.656C456.508 171.5 458.461 170.922 461.133 170.922C462.336 170.922 463.383 171.008 464.273 171.18V175.258C463.617 175.164 463 175.117 462.422 175.117C460.266 175.117 459.188 176.141 459.188 178.188V180.227H464.156V184.656H459.281V205H453.445ZM469.617 205V184.656H466.219V180.227H469.617V178.023C469.617 175.586 470.227 173.797 471.445 172.656C472.68 171.5 474.633 170.922 477.305 170.922C478.508 170.922 479.555 171.008 480.445 171.18V175.258C479.789 175.164 479.172 175.117 478.594 175.117C476.438 175.117 475.359 176.141 475.359 178.188V180.227H480.328V184.656H475.453V205H469.617Z" fill="#5F3FE1"/>
</g>
<defs>
<filter id="filter0_b_237_593" x="-100" y="-100" width="896" height="518" filterUnits="userSpaceOnUse" color-interpolation-filters="sRGB">
<feFlood flood-opacity="0" result="BackgroundImageFix"/>
<feGaussianBlur in="BackgroundImageFix" stdDeviation="50"/>
<feComposite in2="SourceAlpha" operator="in" result="effect1_backgroundBlur_237_593"/>
<feBlend mode="normal" in="SourceGraphic" in2="effect1_backgroundBlur_237_593" result="shape"/>
</filter>
<clipPath id="clip0_237_593">
<rect width="696" height="360" fill="white"/>
</clipPath>
</defs>
</svg>
