<svg width="1000" height="493" viewBox="0 0 1000 493" fill="none" xmlns="http://www.w3.org/2000/svg">
<g clip-path="url(#clip0_236_7211)">
<rect width="1000" height="493" fill="#FDFDFD"/>
<g filter="url(#filter0_b_236_7211)">
<path d="M0 0H1000V343.048L0 451V0Z" fill="#F9F6FF"/>
</g>
<path d="M321.375 200.188V207H292.188V161.906H321.375V168.719H300.25V180.906H320.219V187.312H300.25V200.188H321.375ZM339.688 201.656C341.917 201.656 343.792 201 345.312 199.688C346.854 198.354 347.625 196.698 347.625 194.719V192.188L339.969 192.656C338.094 192.781 336.635 193.25 335.594 194.062C334.573 194.854 334.062 195.906 334.062 197.219C334.062 198.573 334.573 199.656 335.594 200.469C336.635 201.26 338 201.656 339.688 201.656ZM337.344 207.531C334.115 207.531 331.458 206.604 329.375 204.75C327.312 202.896 326.281 200.49 326.281 197.531C326.281 194.594 327.365 192.271 329.531 190.562C331.719 188.854 334.833 187.875 338.875 187.625L347.625 187.125V184.75C347.625 183.021 347.073 181.677 345.969 180.719C344.885 179.76 343.375 179.281 341.438 179.281C339.625 179.281 338.146 179.688 337 180.5C335.854 181.312 335.156 182.417 334.906 183.812H327.688C327.854 180.667 329.198 178.115 331.719 176.156C334.26 174.177 337.604 173.188 341.75 173.188C345.854 173.188 349.135 174.188 351.594 176.188C354.073 178.188 355.312 180.854 355.312 184.188V207H347.812V201.719H347.656C346.719 203.49 345.302 204.906 343.406 205.969C341.51 207.01 339.49 207.531 337.344 207.531ZM361.594 207V173.875H369.062V179.656H369.219C369.781 177.635 370.75 176.073 372.125 174.969C373.521 173.865 375.198 173.312 377.156 173.312C377.844 173.312 378.656 173.417 379.594 173.625V180.656C378.823 180.365 377.771 180.219 376.438 180.219C374.229 180.219 372.5 180.885 371.25 182.219C370 183.552 369.375 185.385 369.375 187.719V207H361.594ZM383.812 207V161.906H391.594V207H383.812ZM401.906 219.312C400.219 219.312 399.198 219.271 398.844 219.188V213.031C399.198 213.115 399.948 213.156 401.094 213.156C402.698 213.156 403.948 212.823 404.844 212.156C405.74 211.49 406.406 210.396 406.844 208.875C406.844 208.854 406.917 208.552 407.062 207.969C407.229 207.385 407.302 207.073 407.281 207.031L395.5 173.875H404L411.812 200.375H411.938L419.75 173.875H427.938L415.969 208.312C414.552 212.417 412.802 215.271 410.719 216.875C408.635 218.5 405.698 219.312 401.906 219.312ZM452.406 192.156H431.875V185.219H452.406V192.156ZM477.875 207.531C475.479 207.531 473.365 206.99 471.531 205.906C469.719 204.823 468.323 203.302 467.344 201.344H467.188V207H459.562V161.906H467.344V179.562H467.531C468.469 177.604 469.844 176.073 471.656 174.969C473.469 173.865 475.542 173.312 477.875 173.312C482.062 173.312 485.385 174.854 487.844 177.938C490.302 181 491.531 185.167 491.531 190.438C491.531 195.729 490.302 199.906 487.844 202.969C485.406 206.01 482.083 207.531 477.875 207.531ZM475.469 179.719C473.052 179.719 471.083 180.708 469.562 182.688C468.062 184.646 467.312 187.229 467.312 190.438C467.312 193.667 468.062 196.26 469.562 198.219C471.083 200.177 473.052 201.156 475.469 201.156C477.969 201.156 479.938 200.198 481.375 198.281C482.833 196.344 483.562 193.729 483.562 190.438C483.562 187.146 482.833 184.542 481.375 182.625C479.917 180.688 477.948 179.719 475.469 179.719ZM496.781 207V173.875H504.562V207H496.781ZM503.719 168.312C502.885 169.125 501.865 169.531 500.656 169.531C499.448 169.531 498.427 169.125 497.594 168.312C496.76 167.479 496.344 166.479 496.344 165.312C496.344 164.125 496.76 163.125 497.594 162.312C498.427 161.479 499.448 161.062 500.656 161.062C501.865 161.062 502.885 161.479 503.719 162.312C504.573 163.125 505 164.125 505 165.312C505 166.479 504.573 167.479 503.719 168.312ZM511.094 207V173.875H518.562V179.656H518.719C519.281 177.635 520.25 176.073 521.625 174.969C523.021 173.865 524.698 173.312 526.656 173.312C527.344 173.312 528.156 173.417 529.094 173.625V180.656C528.323 180.365 527.271 180.219 525.938 180.219C523.729 180.219 522 180.885 520.75 182.219C519.5 183.552 518.875 185.385 518.875 187.719V207H511.094ZM544.219 207.531C540.031 207.531 536.688 205.99 534.188 202.906C531.708 199.823 530.469 195.656 530.469 190.406C530.469 185.177 531.708 181.021 534.188 177.938C536.688 174.854 540.031 173.312 544.219 173.312C546.552 173.312 548.615 173.865 550.406 174.969C552.219 176.073 553.573 177.562 554.469 179.438H554.656V161.906H562.438V207H554.812V201.344H554.688C553.771 203.24 552.385 204.75 550.531 205.875C548.698 206.979 546.594 207.531 544.219 207.531ZM546.562 179.719C544.062 179.719 542.083 180.688 540.625 182.625C539.167 184.542 538.438 187.146 538.438 190.438C538.438 193.75 539.156 196.365 540.594 198.281C542.052 200.198 544.042 201.156 546.562 201.156C549.021 201.156 550.99 200.188 552.469 198.25C553.948 196.312 554.688 193.708 554.688 190.438C554.688 187.188 553.948 184.594 552.469 182.656C550.99 180.698 549.021 179.719 546.562 179.719ZM608.125 203.062C605.229 206.125 601.333 207.656 596.438 207.656C591.542 207.656 587.646 206.125 584.75 203.062C581.854 199.979 580.406 195.771 580.406 190.438C580.406 185.125 581.865 180.927 584.781 177.844C587.698 174.74 591.583 173.188 596.438 173.188C601.312 173.188 605.198 174.74 608.094 177.844C611.01 180.927 612.469 185.125 612.469 190.438C612.469 195.771 611.021 199.979 608.125 203.062ZM590.5 198.594C591.958 200.531 593.938 201.5 596.438 201.5C598.938 201.5 600.917 200.531 602.375 198.594C603.833 196.656 604.562 193.938 604.562 190.438C604.562 186.958 603.833 184.25 602.375 182.312C600.917 180.354 598.938 179.375 596.438 179.375C593.958 179.375 591.979 180.354 590.5 182.312C589.042 184.25 588.312 186.958 588.312 190.438C588.312 193.938 589.042 196.656 590.5 198.594ZM619.625 207V179.875H615.094V173.969H619.625V171.031C619.625 167.781 620.438 165.396 622.062 163.875C623.708 162.333 626.312 161.562 629.875 161.562C631.479 161.562 632.875 161.677 634.062 161.906V167.344C633.188 167.219 632.365 167.156 631.594 167.156C628.719 167.156 627.281 168.521 627.281 171.25V173.969H633.906V179.875H627.406V207H619.625ZM641.188 207V179.875H636.656V173.969H641.188V171.031C641.188 167.781 642 165.396 643.625 163.875C645.271 162.333 647.875 161.562 651.438 161.562C653.042 161.562 654.438 161.677 655.625 161.906V167.344C654.75 167.219 653.927 167.156 653.156 167.156C650.281 167.156 648.844 168.521 648.844 171.25V173.969H655.469V179.875H648.969V207H641.188ZM673.688 179.219C671.521 179.219 669.708 179.969 668.25 181.469C666.812 182.948 666.01 184.854 665.844 187.188H681.312C681.229 184.833 680.49 182.917 679.094 181.438C677.698 179.958 675.896 179.219 673.688 179.219ZM681.344 197.094H688.625C688.125 200.24 686.531 202.792 683.844 204.75C681.156 206.688 677.865 207.656 673.969 207.656C669.01 207.656 665.115 206.135 662.281 203.094C659.448 200.031 658.031 195.854 658.031 190.562C658.031 185.312 659.438 181.104 662.25 177.938C665.083 174.771 668.885 173.188 673.656 173.188C678.344 173.188 682.062 174.698 684.812 177.719C687.562 180.719 688.938 184.74 688.938 189.781V192.312H665.781V192.781C665.781 195.448 666.531 197.594 668.031 199.219C669.552 200.844 671.583 201.656 674.125 201.656C675.917 201.656 677.458 201.25 678.75 200.438C680.062 199.604 680.927 198.49 681.344 197.094ZM693.969 207V173.875H701.438V179.656H701.594C702.156 177.635 703.125 176.073 704.5 174.969C705.896 173.865 707.573 173.312 709.531 173.312C710.219 173.312 711.031 173.417 711.969 173.625V180.656C711.198 180.365 710.146 180.219 708.812 180.219C706.604 180.219 704.875 180.885 703.625 182.219C702.375 183.552 701.75 185.385 701.75 187.719V207H693.969Z" fill="#5F3FE1"/>
<path d="M365.562 272.188C365.562 278.312 363.823 283.104 360.344 286.562C356.885 290.021 352.073 291.75 345.906 291.75C339.323 291.75 334.115 289.656 330.281 285.469C326.469 281.26 324.562 275.531 324.562 268.281C324.562 261.135 326.458 255.5 330.25 251.375C334.062 247.229 339.229 245.156 345.75 245.156C350.875 245.156 355.219 246.542 358.781 249.312C362.344 252.083 364.49 255.729 365.219 260.25H357.031C356.26 257.667 354.885 255.646 352.906 254.188C350.927 252.729 348.552 252 345.781 252C341.719 252 338.542 253.427 336.25 256.281C333.958 259.135 332.812 263.104 332.812 268.188C332.812 273.375 333.99 277.458 336.344 280.438C338.719 283.417 341.938 284.906 346 284.906C349.396 284.906 352.167 283.927 354.312 281.969C356.479 280.01 357.594 277.448 357.656 274.281L357.688 273.531H346.812V267.375H365.562V272.188ZM385.656 263.219C383.49 263.219 381.677 263.969 380.219 265.469C378.781 266.948 377.979 268.854 377.812 271.188H393.281C393.198 268.833 392.458 266.917 391.062 265.438C389.667 263.958 387.865 263.219 385.656 263.219ZM393.312 281.094H400.594C400.094 284.24 398.5 286.792 395.812 288.75C393.125 290.688 389.833 291.656 385.938 291.656C380.979 291.656 377.083 290.135 374.25 287.094C371.417 284.031 370 279.854 370 274.562C370 269.312 371.406 265.104 374.219 261.938C377.052 258.771 380.854 257.188 385.625 257.188C390.312 257.188 394.031 258.698 396.781 261.719C399.531 264.719 400.906 268.74 400.906 273.781V276.312H377.75V276.781C377.75 279.448 378.5 281.594 380 283.219C381.521 284.844 383.552 285.656 386.094 285.656C387.885 285.656 389.427 285.25 390.719 284.438C392.031 283.604 392.896 282.49 393.312 281.094ZM408.094 250.125H415.875V257.875H422.125V263.875H415.875V281.094C415.875 282.448 416.198 283.448 416.844 284.094C417.49 284.74 418.5 285.062 419.875 285.062C420.792 285.062 421.531 285.01 422.094 284.906V290.844C421.156 291.052 419.812 291.156 418.062 291.156C414.479 291.156 411.917 290.469 410.375 289.094C408.854 287.719 408.094 285.417 408.094 282.188V263.875H403.344V257.875H408.094V250.125ZM476.688 278.25C476.688 273.5 473.812 269.719 468.938 268.219L468.969 267.969C475.344 267 479.562 262.594 479.562 256.938C479.562 250.25 472.312 245.156 462.812 245.156C452.625 245.156 445.062 250.531 445.062 257.75C445.062 261.562 447.531 264.781 451.469 266.156L451.406 266.375C443.719 267.656 438.719 272.688 438.719 279.094C438.719 286.562 446.281 291.781 457.031 291.781C468.469 291.781 476.688 286.094 476.688 278.25ZM455.906 258.969C455.906 255.719 458.844 253.094 462.469 253.094C465.812 253.094 468.25 255.188 468.25 258.062C468.25 261.281 465.281 263.938 461.625 263.938C458.312 263.938 455.906 261.844 455.906 258.969ZM458.281 271.562C462.281 271.562 465.062 273.875 465.062 277.188C465.062 280.875 461.844 283.656 457.562 283.656C453.531 283.656 450.781 281.344 450.781 278.062C450.781 274.344 454 271.562 458.281 271.562ZM500.25 291.781C513.5 291.781 522.969 279.688 522.969 262.812C522.969 252.188 516.188 245.125 505.906 245.125C492.75 245.125 483.312 257.188 483.312 274.031C483.312 284.688 490.062 291.781 500.25 291.781ZM494.906 273.75C494.906 263.125 499.781 254.031 505.5 254.031C509.25 254.031 511.375 257.25 511.375 263.094C511.375 273.75 506.469 282.906 500.719 282.906C497 282.906 494.906 279.625 494.906 273.75ZM539.812 267.438C547.531 267.438 552.188 261.281 552.188 254.719C552.188 248.562 548.094 245.188 542.281 245.188C534.375 245.188 529.969 251.375 529.969 257.812C529.969 264 534.094 267.438 539.812 267.438ZM542.781 291L579.594 245.906H570.938L534.094 291H542.781ZM540.281 261.344C538.969 261.344 537.969 260.219 537.969 258.094C537.969 255.594 539.312 251.281 541.844 251.281C543.156 251.281 544.219 252.344 544.219 254.656C544.219 257.625 542.531 261.344 540.281 261.344ZM571.594 291.531C579.312 291.531 583.969 285.406 583.969 278.812C583.969 272.688 579.875 269.312 574.062 269.312C566.156 269.312 561.75 275.5 561.75 281.906C561.75 288.125 565.875 291.531 571.594 291.531ZM572.062 285.469C570.75 285.469 569.719 284.312 569.719 282.219C569.719 279.719 571.094 275.375 573.625 275.375C574.938 275.375 576 276.469 576 278.75C576 281.719 574.312 285.469 572.062 285.469ZM629.594 287.062C626.698 290.125 622.802 291.656 617.906 291.656C613.01 291.656 609.115 290.125 606.219 287.062C603.323 283.979 601.875 279.771 601.875 274.438C601.875 269.125 603.333 264.927 606.25 261.844C609.167 258.74 613.052 257.188 617.906 257.188C622.781 257.188 626.667 258.74 629.562 261.844C632.479 264.927 633.938 269.125 633.938 274.438C633.938 279.771 632.49 283.979 629.594 287.062ZM611.969 282.594C613.427 284.531 615.406 285.5 617.906 285.5C620.406 285.5 622.385 284.531 623.844 282.594C625.302 280.656 626.031 277.938 626.031 274.438C626.031 270.958 625.302 268.25 623.844 266.312C622.385 264.354 620.406 263.375 617.906 263.375C615.427 263.375 613.448 264.354 611.969 266.312C610.51 268.25 609.781 270.958 609.781 274.438C609.781 277.938 610.51 280.656 611.969 282.594ZM641.094 291V263.875H636.562V257.969H641.094V255.031C641.094 251.781 641.906 249.396 643.531 247.875C645.177 246.333 647.781 245.562 651.344 245.562C652.948 245.562 654.344 245.677 655.531 245.906V251.344C654.656 251.219 653.833 251.156 653.062 251.156C650.188 251.156 648.75 252.521 648.75 255.25V257.969H655.375V263.875H648.875V291H641.094ZM662.656 291V263.875H658.125V257.969H662.656V255.031C662.656 251.781 663.469 249.396 665.094 247.875C666.74 246.333 669.344 245.562 672.906 245.562C674.51 245.562 675.906 245.677 677.094 245.906V251.344C676.219 251.219 675.396 251.156 674.625 251.156C671.75 251.156 670.312 252.521 670.312 255.25V257.969H676.938V263.875H670.438V291H662.656Z" fill="#5F3FE1"/>
<path d="M748.066 369.107L1000.52 340.899L999.933 379.893L747.48 408.101L748.066 369.107Z" fill="#3F63E1" fill-opacity="0.62"/>
<path d="M487.959 358.375L855.792 318.516L855.042 357.597L487.209 397.456L487.959 358.375Z" fill="#863FE1" fill-opacity="0.4"/>
<path d="M766.802 289.544L1019.4 263.251L1018.6 301.692L766 327.985L766.802 289.544Z" fill="#DFD6F9"/>
<path d="M-6.46587 451.584L245.948 424.016L245.413 461.939L-7.00028 489.506L-6.46587 451.584Z" fill="#DFD6F9"/>
<path d="M-43.4169 417.489L210.009 389.745L209.458 427.996L-43.9678 455.74L-43.4169 417.489Z" fill="#3F63E1" fill-opacity="0.62"/>
</g>
<defs>
<filter id="filter0_b_236_7211" x="-100" y="-100" width="1200" height="651" filterUnits="userSpaceOnUse" color-interpolation-filters="sRGB">
<feFlood flood-opacity="0" result="BackgroundImageFix"/>
<feGaussianBlur in="BackgroundImageFix" stdDeviation="50"/>
<feComposite in2="SourceAlpha" operator="in" result="effect1_backgroundBlur_236_7211"/>
<feBlend mode="normal" in="SourceGraphic" in2="effect1_backgroundBlur_236_7211" result="shape"/>
</filter>
<clipPath id="clip0_236_7211">
<rect width="1000" height="493" fill="white"/>
</clipPath>
</defs>
</svg>
