<svg width="300" height="100" viewBox="0 0 301 101" fill="none" xmlns="http://www.w3.org/2000/svg">
<path d="M6.29517 43.5C7.43612 45.9 7.40443 49.8333 7.24596 51.5C5.81977 50.1667 2.68215 47.1 1.54119 45.5C0.400239 43.9 0.431933 38.8333 0.590398 36.5C2.01659 37.8333 5.15421 41.1 6.29517 43.5Z" fill="#BFC0C2"/>
<path d="M15.3272 38C14.5665 39.2 11.524 41.1667 10.0978 42C10.2563 40 10.6683 35.6 11.0486 34C11.4289 32.4 15.3272 29.3333 17.2288 28C16.9118 30.8333 16.0878 36.8 15.3272 38Z" fill="#BFC0C2"/>
<path d="M7.72082 27C8.48146 29.8 7.08696 33.5 6.29463 35C4.86844 33.6667 1.92097 30.2 1.54066 27C1.16034 23.8 2.64992 19.6667 3.44225 18C4.55151 19.8333 6.96019 24.2 7.72082 27Z" fill="#BFC0C2"/>
<path d="M17.7042 20.5C16.9435 22.1 12.9502 24.5 11.0486 25.5C11.3655 23.5 12.4748 18.8 14.3764 16C16.278 13.2 19.6058 11.8333 21.0319 11.5C20.2396 13.8333 18.4648 18.9 17.7042 20.5Z" fill="#BFC0C2"/>
<path d="M11.524 9C11.524 11.4 10.2563 16 9.62241 18C8.35469 16.3333 5.91431 12.2 6.29463 9C6.67495 5.8 8.35469 1.66667 9.14701 0C9.93934 2 11.524 6.6 11.524 9Z" fill="#BFC0C2"/>
<path d="M16.7539 53C16.7539 55.8 13.9015 59.1667 12.4753 60.5C11.9999 58.1667 11.1442 53 11.5245 51C11.9049 49 14.5354 45.1667 15.8031 43.5C16.12 45.5 16.7539 50.2 16.7539 53Z" fill="#BFC0C2"/>
<path d="M8.67215 61.5C9.81311 63.1 10.4153 67.8333 10.5737 70C9.14755 69.1667 5.91485 67.1 4.39358 65.5C2.87231 63.9 2.17506 58.5 2.01659 56C3.75971 57.1667 7.5312 59.9 8.67215 61.5Z" fill="#BFC0C2"/>
<path d="M20.0817 69C20.0817 71.8 18.1801 75.1667 17.2293 76.5C16.437 74.5 14.8523 70 14.8523 68C14.8523 66 16.437 61.5 17.2293 59.5C18.1801 61.5 20.0817 66.2 20.0817 69Z" fill="#BFC0C2"/>
<path d="M14.3769 78.5C15.8982 79.7 17.2293 84.3333 17.7047 86.5C15.8031 85.6667 11.6196 83.7 10.0983 82.5C8.57707 81.3 7.24596 76.3333 6.77056 74C8.67215 75 12.8556 77.3 14.3769 78.5Z" fill="#BFC0C2"/>
<path d="M26.7373 83C26.7373 85.4 25.7865 89.3333 25.3111 91C24.2018 89.5 21.7931 85.8 21.0325 83C20.2718 80.2 21.6663 75.8333 22.4587 74C23.8849 76 26.7373 80.6 26.7373 83Z" fill="#BFC0C2"/>
<path d="M21.9833 92.5C25.7865 94.1 27.0542 98.5 27.2127 100.5C25.3111 100 21.0325 99.5 18.6555 97.5C16.6633 95.8238 14.2185 92.3333 13.4261 90.5C14.6939 90.5 18.1801 90.9 21.9833 92.5Z" fill="#BFC0C2"/>
<path d="M294.385 43.5C293.244 45.9 293.276 49.8333 293.434 51.5C294.86 50.1667 297.998 47.1 299.139 45.5C300.28 43.9 300.248 38.8333 300.09 36.5C298.663 37.8333 295.526 41.1 294.385 43.5Z" fill="#BFC0C2"/>
<path d="M285.353 38C286.113 39.2 289.156 41.1667 290.582 42C290.424 40 290.012 35.6 289.631 34C289.251 32.4 285.353 29.3333 283.451 28C283.768 30.8333 284.592 36.8 285.353 38Z" fill="#BFC0C2"/>
<path d="M292.959 27C292.199 29.8 293.593 33.5 294.385 35C295.812 33.6667 298.759 30.2 299.139 27C299.52 23.8 298.03 19.6667 297.238 18C296.129 19.8333 293.72 24.2 292.959 27Z" fill="#BFC0C2"/>
<path d="M282.976 20.5C283.737 22.1 287.73 24.5 289.631 25.5C289.315 23.5 288.205 18.8 286.304 16C284.402 13.2 281.074 11.8333 279.648 11.5C280.44 13.8333 282.215 18.9 282.976 20.5Z" fill="#BFC0C2"/>
<path d="M289.156 9C289.156 11.4 290.424 16 291.058 18C292.325 16.3333 294.766 12.2 294.385 9C294.005 5.8 292.325 1.66667 291.533 0C290.741 2 289.156 6.6 289.156 9Z" fill="#BFC0C2"/>
<path d="M283.926 53C283.926 55.8 286.779 59.1667 288.205 60.5C288.68 58.1667 289.536 53 289.155 51C288.775 49 286.145 45.1667 284.877 43.5C284.56 45.5 283.926 50.2 283.926 53Z" fill="#BFC0C2"/>
<path d="M292.008 61.5C290.867 63.1 290.265 67.8333 290.106 70C291.533 69.1667 294.765 67.1 296.286 65.5C297.808 63.9 298.505 58.5 298.663 56C296.92 57.1667 293.149 59.9 292.008 61.5Z" fill="#BFC0C2"/>
<path d="M280.598 69C280.598 71.8 282.5 75.1667 283.451 76.5C284.243 74.5 285.828 70 285.828 68C285.828 66 284.243 61.5 283.451 59.5C282.5 61.5 280.598 66.2 280.598 69Z" fill="#BFC0C2"/>
<path d="M286.303 78.5C284.782 79.7 283.451 84.3333 282.975 86.5C284.877 85.6667 289.06 83.7 290.582 82.5C292.103 81.3 293.434 76.3333 293.909 74C292.008 75 287.824 77.3 286.303 78.5Z" fill="#BFC0C2"/>
<path d="M273.943 83C273.943 85.4 274.894 89.3333 275.369 91C276.478 89.5 278.887 85.8 279.648 83C280.408 80.2 279.014 75.8333 278.221 74C276.795 76 273.943 80.6 273.943 83Z" fill="#BFC0C2"/>
<path d="M278.697 92.5C274.894 94.1 273.626 98.5 273.467 100.5C275.369 100 279.648 99.5 282.025 97.5C284.017 95.8238 286.462 92.3333 287.254 90.5C285.986 90.5 282.5 90.9 278.697 92.5Z" fill="#BFC0C2"/>
</svg>
